<svg width="489" height="719" viewBox="0 0 489 719" fill="none" xmlns="http://www.w3.org/2000/svg">
<path opacity="0.010101" d="M272.067 341.069L409.643 82.3264C413.405 75.2499 421.297 71.4009 429.19 72.7927L717.782 123.679C725.675 125.071 731.774 131.387 732.89 139.324L773.674 429.516C774.789 437.453 770.667 445.205 763.464 448.719L500.077 577.181C492.873 580.694 484.227 579.17 478.659 573.405L275.093 362.606C269.526 356.841 268.304 348.146 272.067 341.069Z" stroke="url(#paint0_linear_1_350)" stroke-opacity="0.1" stroke-width="3"/>
<path opacity="0.020202" d="M269.149 337.411L410.935 81.6223C414.821 74.6125 422.778 70.9019 430.645 72.4311L717.729 128.235C725.596 129.764 731.584 136.185 732.561 144.14L768.203 434.417C769.179 442.372 764.923 450.051 757.659 453.438L492.603 577.036C485.339 580.423 476.721 578.748 471.255 572.886L271.799 358.997C266.333 353.135 265.263 344.421 269.149 337.411Z" stroke="url(#paint1_linear_1_350)" stroke-opacity="0.1" stroke-width="3"/>
<path opacity="0.030303" d="M266.314 333.763L412.248 80.9974C416.256 74.0564 424.277 70.4853 432.116 72.1516L717.607 132.835C725.447 134.501 731.322 141.026 732.159 148.997L762.668 439.267C763.506 447.237 759.116 454.841 751.794 458.101L485.158 576.815C477.837 580.075 469.248 578.249 463.886 572.293L268.587 355.392C263.224 349.436 262.306 340.704 266.314 333.763Z" stroke="url(#paint2_linear_1_350)" stroke-opacity="0.1" stroke-width="3"/>
<path opacity="0.040404" d="M263.56 330.129L413.581 80.4521C417.709 73.5822 425.791 70.1516 433.601 71.9545L717.416 137.479C725.226 139.281 730.986 145.908 731.684 153.892L757.071 444.065C757.77 452.049 753.248 459.575 745.87 462.707L477.744 576.519C470.367 579.651 461.812 577.676 456.554 571.627L265.456 351.794C260.198 345.745 259.433 336.999 263.56 330.129Z" stroke="url(#paint3_linear_1_350)" stroke-opacity="0.1" stroke-width="3"/>
<path opacity="0.050505" d="M260.889 326.508L414.933 79.9859C419.18 73.1891 427.321 69.9 435.097 71.839L717.156 142.164C724.932 144.103 730.576 150.829 731.135 158.824L751.413 448.809C751.972 456.805 747.319 464.25 739.888 467.253L470.362 576.149C462.931 579.151 454.412 577.027 449.26 570.887L262.406 348.203C257.254 342.063 256.641 333.305 260.889 326.508Z" stroke="url(#paint4_linear_1_350)" stroke-opacity="0.1" stroke-width="3"/>
<path opacity="0.0606061" d="M258.298 322.901L416.301 79.5982C420.666 72.8765 428.863 69.73 436.604 71.8043L716.825 146.889C724.567 148.964 730.092 155.787 730.511 163.791L745.694 453.499C746.114 461.502 741.332 468.866 733.85 471.738L463.013 575.703C455.53 578.575 447.049 576.303 442.006 570.074L259.436 344.62C254.392 338.391 253.933 329.623 258.298 322.901Z" stroke="url(#paint5_linear_1_350)" stroke-opacity="0.1" stroke-width="3"/>
<path opacity="0.0707071" d="M255.788 319.311L417.685 79.2899C422.166 72.6454 430.417 69.6425 438.121 71.8516L716.424 151.654C724.128 153.863 729.533 160.782 729.813 168.791L739.917 458.133C740.197 466.143 735.287 473.422 727.756 476.163L455.698 575.184C448.167 577.925 439.727 575.505 434.792 569.189L256.547 341.046C251.613 334.73 251.307 325.956 255.788 319.311Z" stroke="url(#paint6_linear_1_350)" stroke-opacity="0.1" stroke-width="3"/>
<path opacity="0.0808081" d="M253.358 315.74L419.082 79.0625C423.679 72.4972 431.98 69.6388 439.645 71.982L715.95 156.457C723.615 158.8 728.898 165.812 729.038 173.826L734.081 462.712C734.221 470.725 729.185 477.918 721.607 480.527L448.418 574.593C440.84 577.203 432.443 574.636 427.62 568.235L253.738 337.485C248.914 331.084 248.761 322.305 253.358 315.74Z" stroke="url(#paint7_linear_1_350)" stroke-opacity="0.1" stroke-width="3"/>
<path opacity="0.0909091" d="M251.008 312.188L420.492 78.914C425.203 72.43 433.553 69.7168 441.175 72.1935L715.405 161.296C723.028 163.773 728.188 170.876 728.188 178.891V467.233C728.188 475.248 723.028 482.351 715.405 484.828L441.175 573.93C433.553 576.407 425.203 573.694 420.492 567.21L251.008 333.936C246.297 327.452 246.297 318.672 251.008 312.188Z" stroke="url(#paint8_linear_1_350)" stroke-opacity="0.1" stroke-width="3"/>
<path opacity="0.10101" d="M248.738 308.656L421.913 78.8447C426.736 72.4439 435.132 69.8769 442.71 72.4862L714.788 166.17C722.366 168.779 727.402 175.971 727.262 183.985L722.24 471.696C722.1 479.709 716.816 486.721 709.152 489.064L433.971 573.196C426.306 575.539 418.004 572.68 413.407 566.115L248.358 330.4C243.761 323.835 243.914 315.056 248.738 308.656Z" stroke="url(#paint9_linear_1_350)" stroke-opacity="0.1" stroke-width="3"/>
<path opacity="0.111111" d="M246.546 305.147L423.343 78.8565C428.278 72.5409 436.717 70.1207 444.249 72.8619L714.097 171.079C721.629 173.82 726.538 181.099 726.259 189.109L716.237 476.101C715.957 484.11 710.551 491.029 702.847 493.238L426.805 572.392C419.101 574.601 410.85 571.598 406.368 564.954L245.787 326.882C241.305 320.237 241.611 311.463 246.546 305.147Z" stroke="url(#paint10_linear_1_350)" stroke-opacity="0.1" stroke-width="3"/>
<path opacity="0.121212" d="M244.432 301.66L424.782 78.9467C429.826 72.7181 438.306 70.4457 445.789 73.3179L713.333 176.019C720.816 178.891 725.598 186.254 725.178 194.258L710.18 480.444C709.76 488.448 704.235 495.271 696.493 497.346L419.679 571.518C411.938 573.592 403.741 570.446 399.376 563.724L243.294 323.379C238.929 316.657 239.388 307.889 244.432 301.66Z" stroke="url(#paint11_linear_1_350)" stroke-opacity="0.1" stroke-width="3"/>
<path opacity="0.131313" d="M242.396 298.2L426.228 79.118C431.379 72.9784 439.899 70.8543 447.33 73.8566L712.496 180.991C719.927 183.993 724.58 191.439 724.021 199.434L704.071 484.729C703.512 492.724 697.868 499.45 690.092 501.389L412.596 570.576C404.819 572.515 396.678 569.226 392.431 562.429L240.879 319.895C236.632 313.098 237.244 304.34 242.396 298.2Z" stroke="url(#paint12_linear_1_350)" stroke-opacity="0.1" stroke-width="3"/>
<path opacity="0.141414" d="M240.437 294.765L427.678 79.3686C432.936 73.3199 441.491 71.3448 448.869 74.4764L711.584 185.992C718.962 189.124 723.484 196.65 722.785 204.634L697.911 488.951C697.212 496.936 691.452 503.562 683.643 505.365L405.554 569.567C397.745 571.37 389.663 567.939 385.535 561.069L238.541 316.431C234.414 309.561 235.179 300.814 240.437 294.765Z" stroke="url(#paint13_linear_1_350)" stroke-opacity="0.1" stroke-width="3"/>
<path opacity="0.151515" d="M238.554 291.358L429.133 79.6984C434.496 73.7423 443.084 71.9169 450.406 75.1767L710.598 191.022C717.92 194.282 722.31 201.885 721.472 209.856L691.701 493.111C690.863 501.082 684.988 507.607 677.149 509.273L398.557 568.49C390.717 570.156 382.696 566.585 378.689 559.644L236.281 312.987C232.274 306.046 233.192 297.314 238.554 291.358Z" stroke="url(#paint14_linear_1_350)" stroke-opacity="0.1" stroke-width="3"/>
<path opacity="0.161616" d="M236.747 287.979L430.59 80.1083C436.056 74.2467 444.675 72.5714 451.939 75.9585L709.537 196.078C716.8 199.466 721.057 207.145 720.08 215.1L685.442 497.209C684.465 505.164 678.477 511.585 670.609 513.114L391.604 567.348C383.736 568.877 375.779 565.166 371.893 558.157L234.097 309.565C230.211 302.555 231.281 293.841 236.747 287.979Z" stroke="url(#paint15_linear_1_350)" stroke-opacity="0.1" stroke-width="3"/>
<path opacity="0.171717" d="M235.015 284.632L432.048 80.598C437.616 74.8327 446.262 73.3081 453.466 76.8215L708.4 201.161C715.604 204.674 719.726 212.427 718.61 220.363L679.135 501.243C678.02 509.18 671.921 515.496 664.028 516.887L384.697 566.141C376.804 567.533 368.912 563.684 365.15 556.607L231.989 306.168C228.226 299.091 229.448 290.397 235.015 284.632Z" stroke="url(#paint16_linear_1_350)" stroke-opacity="0.1" stroke-width="3"/>
<path opacity="0.181818" d="M233.358 281.315L433.506 81.1665C439.174 75.4992 447.845 74.1258 454.987 77.7644L707.188 206.267C714.329 209.906 718.315 217.729 717.061 225.645L672.782 505.212C671.529 513.129 665.32 519.337 657.404 520.591L377.837 564.87C369.921 566.124 362.098 562.138 358.459 554.996L229.956 302.795C226.317 295.654 227.691 286.982 233.358 281.315Z" stroke="url(#paint17_linear_1_350)" stroke-opacity="0.1" stroke-width="3"/>
<path opacity="0.191919" d="M231.774 278.031L434.962 81.8145C440.727 76.2471 449.422 75.0251 456.498 78.7878L705.9 211.397C712.976 215.16 716.825 223.051 715.434 230.944L666.384 509.117C664.992 517.01 658.677 523.109 650.74 524.225L371.024 563.536C363.088 564.651 355.335 560.529 351.822 553.326L227.998 299.449C224.484 292.245 226.009 283.598 231.774 278.031Z" stroke="url(#paint18_linear_1_350)" stroke-opacity="0.1" stroke-width="3"/>
<path opacity="0.20202" d="M230.264 274.779L436.415 82.54C442.277 77.0739 450.991 76.0039 458.001 79.8895L704.536 216.546C711.546 220.432 715.256 228.389 713.727 236.257L659.943 512.954C658.413 520.822 651.992 526.81 644.037 527.786L364.261 562.139C356.306 563.115 348.627 558.859 345.24 551.595L226.114 296.128C222.727 288.864 224.402 280.245 230.264 274.779Z" stroke="url(#paint19_linear_1_350)" stroke-opacity="0.1" stroke-width="3"/>
<path opacity="0.212121" d="M228.825 271.565L437.863 83.3463C443.82 77.9835 452.551 77.0657 459.492 81.0731L703.096 221.718C710.037 225.725 713.608 233.746 711.941 241.585L653.458 516.727C651.792 524.567 645.267 530.442 637.296 531.28L357.548 560.682C349.577 561.52 341.974 557.13 338.714 549.808L224.303 292.838C221.044 285.516 222.869 276.928 228.825 271.565Z" stroke="url(#paint20_linear_1_350)" stroke-opacity="0.1" stroke-width="3"/>
<path opacity="0.222222" d="M227.458 268.386L439.306 84.2295C445.354 78.9714 454.101 78.2062 460.971 82.3341L701.579 226.906C708.449 231.034 711.879 239.116 710.076 246.925L646.932 520.432C645.129 528.241 638.503 534.001 630.519 534.7L350.886 559.165C342.902 559.863 335.376 555.341 332.244 547.963L222.565 289.577C219.434 282.199 221.409 273.644 227.458 268.386Z" stroke="url(#paint21_linear_1_350)" stroke-opacity="0.1" stroke-width="3"/>
<path opacity="0.232323" d="M226.161 265.245L440.741 85.192C446.88 80.0403 455.639 79.4278 462.436 83.675L699.985 232.112C706.782 236.36 710.071 244.5 708.132 252.277L640.367 524.07C638.428 531.846 631.702 537.49 623.707 538.049L344.276 557.589C336.281 558.148 328.835 553.495 325.832 546.064L220.9 286.347C217.898 278.916 220.022 270.397 226.161 265.245Z" stroke="url(#paint22_linear_1_350)" stroke-opacity="0.1" stroke-width="3"/>
<path opacity="0.242424" d="M224.935 262.144L442.167 86.2326C448.396 81.1888 457.164 80.7293 463.885 85.0944L698.315 237.335C705.037 241.7 708.183 249.897 706.109 257.638L633.762 527.639C631.688 535.381 624.865 540.906 616.861 541.326L337.719 555.955C329.715 556.375 322.351 551.593 319.479 544.11L219.306 283.151C216.434 275.668 218.706 267.188 224.935 262.144Z" stroke="url(#paint23_linear_1_350)" stroke-opacity="0.1" stroke-width="3"/>
<path opacity="0.252525" d="M223.777 259.081L443.583 87.3498C449.899 82.4155 458.674 82.109 465.318 86.5908L696.568 242.571C703.213 247.053 706.216 255.303 704.006 263.007L627.121 531.139C624.912 538.844 617.993 544.249 609.983 544.529L331.215 554.264C323.205 554.543 315.926 549.634 313.185 542.102L217.783 279.987C215.042 272.455 217.462 264.015 223.777 259.081Z" stroke="url(#paint24_linear_1_350)" stroke-opacity="0.1" stroke-width="3"/>
<path opacity="0.262626" d="M222.687 256.059L444.988 88.5442C451.388 83.7208 460.167 83.5676 466.732 88.1646L694.743 247.82C701.309 252.417 704.167 260.718 701.824 268.383L620.442 534.57C618.099 542.235 611.087 547.519 603.073 547.659L324.766 552.516C316.752 552.656 309.56 547.62 306.951 540.042L216.329 276.857C213.72 269.279 216.287 260.883 222.687 256.059Z" stroke="url(#paint25_linear_1_350)" stroke-opacity="0.1" stroke-width="3"/>
<path opacity="0.272727" d="M221.665 253.081L446.38 89.8164C452.864 85.1055 461.644 85.1055 468.128 89.8164L692.842 253.081C699.326 257.792 702.039 266.142 699.563 273.765L613.729 537.932C611.253 545.555 604.15 550.715 596.135 550.715L318.373 550.715C310.358 550.715 303.255 545.555 300.778 537.932L214.945 273.765C212.468 266.142 215.181 257.792 221.665 253.081Z" stroke="url(#paint26_linear_1_350)" stroke-opacity="0.1" stroke-width="3"/>
<path opacity="0.282828" d="M220.71 250.146L447.758 91.1649C454.323 86.5678 463.102 86.721 469.502 91.5444L690.864 258.352C697.264 263.176 699.831 271.572 697.222 279.15L606.983 541.223C604.374 548.802 597.181 553.838 589.168 553.698L312.036 548.86C304.022 548.72 297.01 543.436 294.667 535.772L213.629 270.709C211.286 263.044 214.144 254.743 220.71 250.146Z" stroke="url(#paint27_linear_1_350)" stroke-opacity="0.1" stroke-width="3"/>
<path opacity="0.292929" d="M219.819 247.255L449.12 92.5901C455.765 88.1083 464.539 88.4147 470.855 93.3491L688.808 263.633C695.124 268.567 697.544 277.007 694.803 284.538L600.205 544.445C597.463 551.976 590.184 556.886 582.175 556.606L305.756 546.953C297.747 546.674 290.828 541.268 288.619 533.564L212.381 267.692C210.172 259.988 213.175 251.737 219.819 247.255Z" stroke="url(#paint28_linear_1_350)" stroke-opacity="0.1" stroke-width="3"/>
<path opacity="0.30303" d="M218.993 244.409L450.465 94.0896C457.187 89.7245 465.955 90.184 472.184 95.2278L686.675 268.919C692.904 273.963 695.176 282.444 692.304 289.926L593.395 547.594C590.522 555.076 583.159 559.858 575.155 559.438L299.535 544.994C291.531 544.574 284.708 539.049 282.633 531.307L211.199 264.713C209.125 256.971 212.272 248.774 218.993 244.409Z" stroke="url(#paint29_linear_1_350)" stroke-opacity="0.1" stroke-width="3"/>
<path opacity="0.313131" d="M218.231 241.611L451.793 95.6657C458.589 91.4186 467.348 92.031 473.488 97.1828L684.465 274.214C690.604 279.365 692.728 287.885 689.726 295.316L586.555 550.672C583.553 558.103 576.107 562.756 568.112 562.197L293.372 542.985C285.377 542.426 278.651 536.783 276.712 529.006L210.084 261.776C208.145 253.999 211.434 245.858 218.231 241.611Z" stroke="url(#paint30_linear_1_350)" stroke-opacity="0.1" stroke-width="3"/>
<path opacity="0.323232" d="M217.531 238.86L453.101 97.3151C459.971 93.1872 468.717 93.9524 474.766 99.2105L682.178 279.511C688.227 284.769 690.202 293.324 687.07 300.701L579.688 553.678C576.556 561.055 569.031 565.577 561.046 564.879L287.269 540.926C279.285 540.228 272.658 534.468 270.855 526.658L209.034 258.879C207.231 251.069 210.661 242.987 217.531 238.86Z" stroke="url(#paint31_linear_1_350)" stroke-opacity="0.1" stroke-width="3"/>
<path opacity="0.333333" d="M216.893 236.158L454.388 99.0399C461.329 95.0326 470.061 95.9503 476.017 101.313L679.814 284.813C685.77 290.175 687.595 298.764 684.335 306.085L572.794 556.612C569.534 563.934 561.93 568.324 553.959 567.486L281.226 538.821C273.255 537.983 266.731 532.108 265.064 524.268L208.048 256.025C206.381 248.186 209.952 240.165 216.893 236.158Z" stroke="url(#paint32_linear_1_350)" stroke-opacity="0.1" stroke-width="3"/>
<path opacity="0.343434" d="M216.316 233.505L455.653 100.838C462.663 96.9521 471.378 98.0221 477.239 103.488L677.373 290.115C683.234 295.581 684.909 304.2 681.522 311.464L565.874 559.473C562.487 566.737 554.807 570.993 546.853 570.017L275.245 536.667C267.29 535.691 260.868 529.703 259.339 521.835L207.125 253.215C205.595 245.348 209.306 237.39 216.316 233.505Z" stroke="url(#paint33_linear_1_350)" stroke-opacity="0.1" stroke-width="3"/>
<path opacity="0.353535" d="M215.798 230.904L456.896 102.71C463.972 98.947 472.667 100.169 478.432 105.736L674.855 295.42C680.62 300.987 682.145 309.634 678.631 316.837L558.93 562.262C555.416 569.466 547.664 573.588 539.728 572.472L269.325 534.47C261.388 533.354 255.072 527.255 253.681 519.362L206.264 250.451C204.873 242.558 208.722 234.666 215.798 230.904Z" stroke="url(#paint34_linear_1_350)" stroke-opacity="0.1" stroke-width="3"/>
<path opacity="0.363636" d="M215.338 228.353L458.113 104.653C465.254 101.015 473.926 102.388 479.593 108.055L672.26 300.722C677.927 306.39 679.301 315.062 675.662 322.203L551.962 564.977C548.324 572.118 540.501 576.104 532.585 574.851L263.467 532.226C255.551 530.973 249.343 524.764 248.089 516.848L205.465 247.731C204.211 239.815 208.197 231.992 215.338 228.353Z" stroke="url(#paint35_linear_1_350)" stroke-opacity="0.1" stroke-width="3"/>
<path opacity="0.373737" d="M214.937 225.856L459.305 106.67C466.508 103.157 475.155 104.681 480.722 110.446L669.589 306.024C675.157 311.789 676.379 320.484 672.616 327.56L544.974 567.62C541.211 574.696 533.32 578.545 525.427 577.153L257.673 529.941C249.78 528.549 243.681 522.234 242.566 514.297L204.727 245.059C203.611 237.122 207.733 229.37 214.937 225.856Z" stroke="url(#paint36_linear_1_350)" stroke-opacity="0.1" stroke-width="3"/>
<path opacity="0.383838" d="M214.592 223.412L460.47 108.757C467.734 105.37 476.353 107.045 481.819 112.907L666.843 311.32C672.309 317.182 673.379 325.896 669.493 332.906L537.966 570.188C534.08 577.197 526.123 580.908 518.255 579.379L251.943 527.613C244.076 526.084 238.088 519.662 237.111 511.707L204.048 242.433C203.072 234.478 207.328 226.799 214.592 223.412Z" stroke="url(#paint37_linear_1_350)" stroke-opacity="0.1" stroke-width="3"/>
<path opacity="0.393939" d="M214.302 221.022L461.606 110.915C468.928 107.655 477.516 109.481 482.879 115.437L664.019 316.613C669.382 322.569 670.299 331.301 666.292 338.242L530.938 572.682C526.93 579.623 518.909 583.194 511.07 581.528L246.277 525.245C238.437 523.578 232.562 517.053 231.724 509.083L203.428 239.857C202.59 231.886 206.98 224.282 214.302 221.022Z" stroke="url(#paint38_linear_1_350)" stroke-opacity="0.1" stroke-width="3"/>
<path opacity="0.40404" d="M214.066 218.687L462.714 113.143C470.092 110.011 478.647 111.986 483.905 118.035L661.12 321.898C666.378 327.946 667.143 336.693 663.015 343.563L523.893 575.102C519.765 581.972 511.683 585.402 503.874 583.599L240.676 522.835C232.867 521.033 227.106 514.406 226.408 506.422L202.865 237.329C202.167 229.345 206.689 221.819 214.066 218.687Z" stroke="url(#paint39_linear_1_350)" stroke-opacity="0.1" stroke-width="3"/>
<path opacity="0.414141" d="M213.884 216.41L463.791 115.441C471.222 112.439 479.741 114.563 484.893 120.702L658.146 327.177C663.297 333.316 663.91 342.075 659.663 348.872L516.832 577.449C512.585 584.246 504.444 587.535 496.667 585.596L235.141 520.39C227.364 518.451 221.72 511.725 221.161 503.73L202.359 234.853C201.8 226.858 206.453 219.412 213.884 216.41Z" stroke="url(#paint40_linear_1_350)" stroke-opacity="0.1" stroke-width="3"/>
<path opacity="0.424242" d="M213.754 214.189L464.836 117.808C472.319 114.935 480.8 117.208 485.843 123.436L655.096 332.446C660.14 338.675 660.6 347.443 656.234 354.165L509.756 579.721C505.391 586.443 497.194 589.589 489.453 587.515L229.671 517.907C221.93 515.832 216.404 509.009 215.985 501.005L201.909 232.428C201.49 224.425 206.272 217.061 213.754 214.189Z" stroke="url(#paint41_linear_1_350)" stroke-opacity="0.1" stroke-width="3"/>
<path opacity="0.434343" d="M213.675 212.026L465.848 120.242C473.38 117.501 481.82 119.921 486.754 126.236L651.971 337.705C656.906 344.021 657.212 352.796 652.73 359.44L502.667 581.919C498.185 588.563 489.934 591.566 482.23 589.357L224.268 515.387C216.564 513.178 211.159 506.26 210.879 498.25L201.513 230.056C201.234 222.046 206.143 214.767 213.675 212.026Z" stroke="url(#paint42_linear_1_350)" stroke-opacity="0.1" stroke-width="3"/>
<path opacity="0.444444" d="M213.645 209.921L466.827 122.744C474.405 120.135 482.801 122.702 487.625 129.103L648.773 342.953C653.596 349.354 653.749 358.133 649.152 364.698L495.566 584.042C490.969 590.607 482.667 593.466 475.002 591.122L218.933 512.834C211.268 510.491 205.984 503.479 205.844 495.465L201.171 227.736C201.031 219.723 206.067 212.531 213.645 209.921Z" stroke="url(#paint43_linear_1_350)" stroke-opacity="0.1" stroke-width="3"/>
<path opacity="0.454545" d="M213.665 207.877L467.77 125.313C475.392 122.836 483.743 125.55 488.454 132.034L645.499 348.188C650.21 354.672 650.21 363.453 645.499 369.937L488.454 586.091C483.743 592.575 475.392 595.289 467.77 592.812L213.665 510.248C206.042 507.771 200.882 500.668 200.882 492.654L200.882 225.471C200.882 217.457 206.042 210.354 213.665 207.877Z" stroke="url(#paint44_linear_1_350)" stroke-opacity="0.1" stroke-width="3"/>
<path opacity="0.464646" d="M213.731 205.892L468.677 127.947C476.341 125.604 484.643 128.463 489.24 135.028L642.152 353.409C646.749 359.974 646.596 368.753 641.773 375.154L481.332 588.066C476.509 594.466 468.113 597.033 460.534 594.424L208.465 507.63C200.887 505.02 195.851 497.828 195.99 489.815L200.643 223.261C200.783 215.247 206.067 208.235 213.731 205.892Z" stroke="url(#paint45_linear_1_350)" stroke-opacity="0.1" stroke-width="3"/>
<path opacity="0.474747" d="M213.845 203.968L469.546 130.646C477.251 128.437 485.501 131.44 489.983 138.085L638.732 358.614C643.214 365.258 642.907 374.033 637.973 380.349L474.203 589.965C469.269 596.28 460.829 598.701 453.297 595.959L203.333 504.98C195.802 502.239 190.892 494.96 191.172 486.95L200.455 221.105C200.735 213.096 206.14 206.177 213.845 203.968Z" stroke="url(#paint46_linear_1_350)" stroke-opacity="0.1" stroke-width="3"/>
<path opacity="0.484848" d="M214.003 202.105L470.377 133.41C478.119 131.335 486.316 134.482 490.681 141.204L635.238 363.802C639.604 370.524 639.144 379.292 634.1 385.521L467.067 591.79C462.023 598.018 453.542 600.291 446.06 597.419L198.27 502.301C190.788 499.429 186.006 492.065 186.425 484.062L200.316 219.007C200.736 211.003 206.261 204.18 214.003 202.105Z" stroke="url(#paint47_linear_1_350)" stroke-opacity="0.1" stroke-width="3"/>
<path opacity="0.494949" d="M214.205 200.304L471.169 136.236C478.946 134.297 487.086 137.586 491.334 144.383L631.673 368.972C635.92 375.769 635.307 384.528 630.155 390.667L459.925 593.54C454.774 599.679 446.254 601.803 438.823 598.801L193.276 499.594C185.845 496.591 181.193 489.145 181.752 481.15L200.225 216.964C200.784 208.969 206.428 202.243 214.205 200.304Z" stroke="url(#paint48_linear_1_350)" stroke-opacity="0.1" stroke-width="3"/>
<path opacity="0.50505" d="M214.45 198.568L471.92 139.126C479.73 137.323 487.812 140.754 491.939 147.624L628.035 374.124C632.163 380.994 631.397 389.741 626.139 395.79L452.78 595.217C447.522 601.265 438.967 603.24 431.59 600.109L188.352 496.861C180.975 493.729 176.453 486.203 177.151 478.219L200.182 214.981C200.88 206.997 206.64 200.371 214.45 198.568Z" stroke="url(#paint49_linear_1_350)" stroke-opacity="0.1" stroke-width="3"/>
<path opacity="0.515152" d="M214.736 196.895L472.63 142.078C480.469 140.411 488.49 143.982 492.498 150.923L624.325 379.256C628.333 386.197 627.415 394.928 622.052 400.885L445.632 596.819C440.269 602.775 431.681 604.6 424.359 601.34L183.498 494.102C176.176 490.842 171.786 483.238 172.624 475.268L200.184 213.057C201.021 205.086 206.896 198.561 214.736 196.895Z" stroke="url(#paint50_linear_1_350)" stroke-opacity="0.1" stroke-width="3"/>
<path opacity="0.525253" d="M215.062 195.285L473.297 145.089C481.164 143.56 489.122 147.271 493.007 154.28L620.545 384.365C624.43 391.374 623.36 400.089 617.894 405.95L438.483 598.346C433.017 604.207 424.398 605.883 417.134 602.496L178.714 491.318C171.45 487.931 167.194 480.252 168.17 472.297L200.23 211.191C201.207 203.236 207.195 196.814 215.062 195.285Z" stroke="url(#paint51_linear_1_350)" stroke-opacity="0.1" stroke-width="3"/>
<path opacity="0.535354" d="M215.428 193.741L473.92 148.162C481.813 146.77 489.704 150.619 493.467 157.695L616.694 389.451C620.456 396.528 619.235 405.222 613.667 410.988L431.333 599.8C425.766 605.565 417.119 607.09 409.916 603.576L174 488.513C166.797 484.999 162.675 477.247 163.79 469.31L200.32 209.385C201.436 201.448 207.535 195.132 215.428 193.741Z" stroke="url(#paint52_linear_1_350)" stroke-opacity="0.1" stroke-width="3"/>
<path opacity="0.545455" d="M215.831 192.261L474.499 151.292C482.415 150.039 490.238 154.025 493.877 161.166L612.773 394.513C616.412 401.655 615.038 410.326 609.371 415.994L424.185 601.179C418.518 606.847 409.846 608.22 402.705 604.581L169.358 485.685C162.217 482.046 158.23 474.223 159.484 466.307L200.453 207.64C201.707 199.724 207.915 193.515 215.831 192.261Z" stroke="url(#paint53_linear_1_350)" stroke-opacity="0.1" stroke-width="3"/>
<path opacity="0.555556" d="M216.271 190.848L475.033 154.481C482.969 153.366 490.722 157.488 494.235 164.691L608.783 399.55C612.297 406.754 610.772 415.4 605.007 420.968L417.04 602.485C411.275 608.052 402.58 609.274 395.504 605.512L164.786 482.837C157.709 479.074 153.86 471.183 155.252 463.29L200.627 205.955C202.019 198.062 208.335 191.963 216.271 190.848Z" stroke="url(#paint54_linear_1_350)" stroke-opacity="0.1" stroke-width="3"/>
<path opacity="0.565657" d="M216.746 189.501L475.519 157.728C483.474 156.751 491.154 161.008 494.541 168.272L604.724 404.561C608.111 411.825 606.436 420.443 600.574 425.909L409.899 603.718C404.037 609.184 395.322 610.254 388.313 606.368L160.285 479.97C153.275 476.085 149.565 468.127 151.094 460.26L200.841 204.333C202.37 196.466 208.791 190.478 216.746 189.501Z" stroke="url(#paint55_linear_1_350)" stroke-opacity="0.1" stroke-width="3"/>
<path opacity="0.575758" d="M217.256 188.221L475.959 161.03C483.93 160.192 491.534 164.582 494.794 171.904L600.598 409.543C603.857 416.865 602.032 425.453 596.076 430.816L402.763 604.876C396.807 610.239 388.075 611.157 381.134 607.149L155.856 477.085C148.915 473.078 145.344 465.057 147.01 457.217L201.094 202.773C202.76 194.933 209.285 189.058 217.256 188.221Z" stroke="url(#paint56_linear_1_350)" stroke-opacity="0.1" stroke-width="3"/>
<path opacity="0.585859" d="M217.798 187.009L476.351 164.388C484.335 163.69 491.861 168.212 494.993 175.589L596.403 414.498C599.535 421.875 597.56 430.43 591.511 435.688L395.633 605.963C389.584 611.221 380.838 611.986 373.968 607.858L151.498 474.185C144.628 470.057 141.197 461.975 143 454.165L201.384 201.277C203.187 193.467 209.813 187.707 217.798 187.009Z" stroke="url(#paint57_linear_1_350)" stroke-opacity="0.1" stroke-width="3"/>
<path opacity="0.59596" d="M218.371 185.863L476.693 167.8C484.688 167.241 492.134 171.893 495.136 179.324L592.142 419.422C595.144 426.853 593.02 435.372 586.881 440.524L388.511 606.975C382.372 612.127 373.613 612.74 366.816 608.493L147.211 471.268C140.415 467.021 137.125 458.88 139.064 451.104L201.711 199.843C203.65 192.066 210.376 186.423 218.371 185.863Z" stroke="url(#paint58_linear_1_350)" stroke-opacity="0.1" stroke-width="3"/>
<path opacity="0.606061" d="M218.975 184.787L476.986 171.265C484.99 170.846 492.353 175.628 495.225 183.11L587.815 424.315C590.687 431.797 588.415 440.278 582.186 445.322L381.399 607.916C375.17 612.96 366.402 613.42 359.681 609.055L142.997 468.339C136.276 463.974 133.129 455.777 135.203 448.035L202.073 198.473C204.148 190.732 210.971 185.206 218.975 184.787Z" stroke="url(#paint59_linear_1_350)" stroke-opacity="0.1" stroke-width="3"/>
<path opacity="0.616162" d="M219.607 183.779L477.227 174.782C485.237 174.503 492.516 179.412 495.257 186.944L583.422 429.175C586.164 436.707 583.743 445.147 577.428 450.081L374.296 608.785C367.981 613.719 359.206 614.025 352.562 609.544L138.854 465.396C132.21 460.915 129.207 452.664 131.416 444.96L202.469 197.168C204.678 189.464 211.597 184.058 219.607 183.779Z" stroke="url(#paint60_linear_1_350)" stroke-opacity="0.1" stroke-width="3"/>
<path opacity="0.626263" d="M220.267 182.84L477.417 178.352C485.431 178.212 492.623 183.248 495.232 190.826L578.965 434.004C581.574 441.582 579.007 449.978 572.606 454.801L367.206 609.582C360.805 614.405 352.026 614.559 345.461 609.962L134.783 462.444C128.218 457.847 125.36 449.545 127.703 441.88L202.898 195.929C205.241 188.264 212.253 182.98 220.267 182.84Z" stroke="url(#paint61_linear_1_350)" stroke-opacity="0.1" stroke-width="3"/>
<path opacity="0.636364" d="M220.953 181.971L477.555 181.971C485.57 181.971 492.673 187.132 495.15 194.754L574.444 438.797C576.921 446.42 574.207 454.77 567.723 459.481L360.128 610.308C353.644 615.019 344.864 615.019 338.38 610.308L130.785 459.481C124.301 454.77 121.587 446.42 124.064 438.797L203.358 194.754C205.835 187.132 212.938 181.971 220.953 181.971Z" stroke="url(#paint62_linear_1_350)" stroke-opacity="0.1" stroke-width="3"/>
<path opacity="0.646465" d="M221.664 181.171L477.639 185.639C485.653 185.779 492.665 191.063 495.008 198.728L569.859 443.555C572.202 451.22 569.344 459.521 562.779 464.118L353.064 610.962C346.499 615.559 337.72 615.406 331.319 610.582L126.857 456.509C120.457 451.686 117.89 443.29 120.499 435.712L203.849 193.645C206.458 186.067 213.65 181.031 221.664 181.171Z" stroke="url(#paint63_linear_1_350)" stroke-opacity="0.1" stroke-width="3"/>
<path opacity="0.656566" d="M222.399 180.442L477.669 189.356C485.679 189.636 492.598 195.041 494.807 202.745L565.212 448.277C567.421 455.981 564.418 464.232 557.774 468.713L346.016 611.546C339.371 616.028 330.597 615.721 324.281 610.787L123.002 453.531C116.687 448.597 114.266 440.157 117.008 432.625L204.369 192.603C207.11 185.072 214.389 180.162 222.399 180.442Z" stroke="url(#paint64_linear_1_350)" stroke-opacity="0.1" stroke-width="3"/>
<path opacity="0.666667" d="M223.156 179.781L477.645 193.118C485.649 193.538 492.472 199.063 494.547 206.805L560.504 452.96C562.578 460.702 559.432 468.899 552.71 473.264L338.984 612.059C332.263 616.424 323.495 615.964 317.266 610.921L119.219 450.545C112.991 445.502 110.718 437.021 113.591 429.538L204.916 191.626C207.789 184.144 215.152 179.362 223.156 179.781Z" stroke="url(#paint65_linear_1_350)" stroke-opacity="0.1" stroke-width="3"/>
<path opacity="0.676768" d="M223.934 179.192L477.565 196.928C485.561 197.487 492.286 203.131 494.225 210.907L555.734 457.606C557.673 465.382 554.384 473.523 547.587 477.77L331.97 612.503C325.174 616.75 316.415 616.137 310.275 610.986L115.508 447.556C109.368 442.405 107.244 433.885 110.247 426.454L205.491 190.717C208.493 183.286 215.939 178.633 223.934 179.192Z" stroke="url(#paint66_linear_1_350)" stroke-opacity="0.1" stroke-width="3"/>
<path opacity="0.686869" d="M224.732 178.674L477.43 200.782C485.414 201.48 492.04 207.241 493.843 215.05L550.905 462.212C552.708 470.021 549.277 478.103 542.407 482.231L324.976 612.877C318.106 617.005 309.359 616.24 303.31 610.981L111.868 444.564C105.82 439.305 103.845 430.75 106.976 423.373L206.09 189.875C209.222 182.497 216.748 177.975 224.732 178.674Z" stroke="url(#paint67_linear_1_350)" stroke-opacity="0.1" stroke-width="3"/>
<path opacity="0.69697" d="M225.548 178.226L477.237 204.679C485.208 205.517 491.733 211.392 493.399 219.232L546.016 466.777C547.683 474.616 544.112 482.637 537.171 486.644L318.001 613.182C311.06 617.189 302.328 616.272 296.372 610.909L108.301 441.568C102.345 436.206 100.519 427.617 103.779 420.296L206.714 189.1C209.974 181.778 217.577 177.388 225.548 178.226Z" stroke="url(#paint68_linear_1_350)" stroke-opacity="0.1" stroke-width="3"/>
<path opacity="0.707071" d="M226.382 177.85L476.987 208.621C484.942 209.598 491.363 215.586 492.893 223.453L541.069 471.301C542.599 479.169 538.888 487.126 531.878 491.012L311.048 613.42C304.038 617.306 295.323 616.236 289.462 610.77L104.804 438.574C98.9427 433.108 97.2673 424.489 100.654 417.225L207.36 188.394C210.747 181.13 218.427 176.874 226.382 177.85Z" stroke="url(#paint69_linear_1_350)" stroke-opacity="0.1" stroke-width="3"/>
<path opacity="0.717172" d="M227.231 177.545L476.679 212.602C484.615 213.718 490.931 219.817 492.323 227.71L536.065 475.782C537.457 483.675 533.608 491.567 526.531 495.329L304.117 613.589C297.04 617.352 288.346 616.13 282.581 610.562L101.379 435.578C95.6139 430.011 94.0892 421.364 97.6026 414.161L208.028 187.755C211.542 180.551 219.294 176.429 227.231 177.545Z" stroke="url(#paint70_linear_1_350)" stroke-opacity="0.1" stroke-width="3"/>
<path opacity="0.727273" d="M228.094 177.311L476.312 216.625C484.228 217.879 490.436 224.087 491.69 232.003L531.004 480.221C532.258 488.137 528.272 495.96 521.13 499.599L297.21 613.692C290.069 617.331 281.397 615.957 275.73 610.29L98.0253 432.585C92.3581 426.918 90.9846 418.246 94.6232 411.105L208.716 187.185C212.355 180.044 220.178 176.058 228.094 177.311Z" stroke="url(#paint71_linear_1_350)" stroke-opacity="0.1" stroke-width="3"/>
<path opacity="0.737374" d="M228.971 177.149L475.886 220.687C483.779 222.078 489.878 228.394 490.994 236.331L525.888 484.615C527.003 492.552 522.881 500.304 515.678 503.817L290.329 613.728C283.125 617.241 274.478 615.716 268.911 609.951L94.7433 429.595C89.1758 423.83 87.9539 415.135 91.7165 408.059L209.424 186.683C213.187 179.606 221.078 175.757 228.971 177.149Z" stroke="url(#paint72_linear_1_350)" stroke-opacity="0.1" stroke-width="3"/>
<path opacity="0.747475" d="M229.86 177.059L475.4 224.787C483.268 226.317 489.256 232.738 490.232 240.693L520.716 488.965C521.693 496.92 517.436 504.599 510.173 507.986L283.472 613.698C276.208 617.085 267.59 615.41 262.124 609.548L91.5311 426.61C86.0651 420.749 84.995 412.034 88.8806 405.024L210.149 186.25C214.035 179.24 221.992 175.53 229.86 177.059Z" stroke="url(#paint73_linear_1_350)" stroke-opacity="0.1" stroke-width="3"/>
<path opacity="0.757576" d="M230.758 177.039L474.854 228.923C482.693 230.59 488.568 237.115 489.406 245.085L515.491 493.267C516.329 501.238 511.939 508.841 504.617 512.101L276.643 613.602C269.321 616.862 260.733 615.036 255.37 609.08L88.3896 423.629C83.0267 417.673 82.109 408.941 86.1163 402L210.891 185.885C214.898 178.944 222.919 175.373 230.758 177.039Z" stroke="url(#paint74_linear_1_350)" stroke-opacity="0.1" stroke-width="3"/>
<path opacity="0.767677" d="M231.667 177.092L474.247 233.096C482.056 234.899 487.816 241.526 488.515 249.51L510.213 497.523C510.912 505.507 506.39 513.033 499.012 516.165L269.842 613.441C262.465 616.573 253.91 614.598 248.652 608.549L85.3189 420.656C80.0608 414.607 79.2956 405.861 83.4234 398.991L211.648 185.59C215.776 178.72 223.858 175.289 231.667 177.092Z" stroke="url(#paint75_linear_1_350)" stroke-opacity="0.1" stroke-width="3"/>
<path opacity="0.777778" d="M232.583 177.217L473.578 237.304C481.355 239.243 486.998 245.969 487.558 253.964L504.883 501.732C505.442 509.727 500.79 517.173 493.358 520.175L263.071 613.218C255.64 616.22 247.121 614.096 241.969 607.956L82.318 417.692C77.1663 411.552 76.5538 402.793 80.8009 395.996L212.419 185.364C216.666 178.567 224.806 175.278 232.583 177.217Z" stroke="url(#paint76_linear_1_350)" stroke-opacity="0.1" stroke-width="3"/>
<path opacity="0.787879" d="M233.506 177.414L472.848 241.546C480.589 243.62 486.115 250.443 486.534 258.447L499.502 505.893C499.922 513.896 495.14 521.26 487.658 524.132L256.33 612.93C248.848 615.802 240.367 613.53 235.323 607.301L79.3869 414.736C74.3431 408.508 73.8836 399.74 78.2487 393.018L213.202 185.208C217.567 178.486 225.764 175.34 233.506 177.414Z" stroke="url(#paint77_linear_1_350)" stroke-opacity="0.1" stroke-width="3"/>
<path opacity="0.79798" d="M234.434 177.681L472.055 245.818C479.759 248.027 485.165 254.946 485.444 262.956L494.071 510.002C494.351 518.012 489.441 525.291 481.91 528.032L249.621 612.579C242.089 615.32 233.649 612.9 228.715 606.584L76.525 411.79C71.5907 405.475 71.2843 396.7 75.766 390.055L213.997 185.119C218.479 178.475 226.729 175.472 234.434 177.681Z" stroke="url(#paint78_linear_1_350)" stroke-opacity="0.1" stroke-width="3"/>
<path opacity="0.808081" d="M235.365 178.021L471.199 250.123C478.864 252.466 484.148 259.478 484.288 267.492L488.592 514.064C488.731 522.077 483.695 529.269 476.117 531.878L242.943 612.167C235.365 614.776 226.969 612.209 222.146 605.808L73.7324 408.857C68.909 402.456 68.7558 393.678 73.3528 387.112L214.802 185.102C219.399 178.536 227.701 175.678 235.365 178.021Z" stroke="url(#paint79_linear_1_350)" stroke-opacity="0.1" stroke-width="3"/>
<path opacity="0.818182" d="M236.3 178.431L470.281 254.456C477.903 256.933 483.064 264.036 483.064 272.051L483.064 518.073C483.064 526.087 477.903 533.191 470.28 535.667L236.3 611.692C228.677 614.169 220.327 611.456 215.616 604.972L71.0082 405.936C66.2973 399.452 66.2973 390.672 71.0082 384.188L215.616 185.152C220.327 178.668 228.677 175.955 236.3 178.431Z" stroke="url(#paint80_linear_1_350)" stroke-opacity="0.1" stroke-width="3"/>
<path opacity="0.828283" d="M237.236 178.914L469.298 258.819C476.876 261.429 481.912 268.621 481.772 276.634L477.489 522.031C477.349 530.044 472.065 537.056 464.4 539.4L229.691 611.158C222.026 613.501 213.724 610.642 209.127 604.077L68.3523 403.029C63.7553 396.464 63.9085 387.685 68.7319 381.285L216.438 185.272C221.261 178.872 229.657 176.305 237.236 178.914Z" stroke="url(#paint81_linear_1_350)" stroke-opacity="0.1" stroke-width="3"/>
<path opacity="0.838384" d="M238.172 179.467L468.252 263.209C475.784 265.95 480.693 273.229 480.414 281.239L471.869 525.936C471.589 533.946 466.183 540.865 458.479 543.074L223.118 610.563C215.414 612.772 207.163 609.769 202.681 603.124L65.7652 400.138C61.2834 393.493 61.5898 384.718 66.5242 378.403L217.267 185.461C222.201 179.146 230.641 176.726 238.172 179.467Z" stroke="url(#paint82_linear_1_350)" stroke-opacity="0.1" stroke-width="3"/>
<path opacity="0.848485" d="M239.107 180.092L467.141 267.626C474.624 270.498 479.406 277.862 478.986 285.866L466.203 529.789C465.783 537.793 460.258 544.616 452.516 546.691L216.581 609.91C208.839 611.984 200.642 608.837 196.277 602.116L63.2445 397.263C58.8794 390.542 59.3389 381.774 64.3827 375.545L218.1 185.721C223.143 179.492 231.624 177.22 239.107 180.092Z" stroke="url(#paint83_linear_1_350)" stroke-opacity="0.1" stroke-width="3"/>
<path opacity="0.858586" d="M240.039 180.787L465.966 272.067C473.398 275.07 478.05 282.516 477.491 290.511L460.494 533.588C459.935 541.583 454.291 548.309 446.514 550.248L210.082 609.197C202.305 611.136 194.164 607.847 189.917 601.05L60.7914 394.406C56.5443 387.609 57.1567 378.85 62.3085 372.711L218.937 186.048C224.089 179.908 232.608 177.784 240.039 180.787Z" stroke="url(#paint84_linear_1_350)" stroke-opacity="0.1" stroke-width="3"/>
<path opacity="0.868687" d="M240.967 181.553L464.726 276.533C472.104 279.665 476.626 287.19 475.927 295.175L454.741 537.333C454.043 545.317 448.282 551.943 440.473 553.746L203.621 608.428C195.811 610.231 187.729 606.8 183.601 599.93L58.4044 391.567C54.2765 384.697 55.0418 375.951 60.2999 369.902L219.777 186.445C225.035 180.396 233.59 178.421 240.967 181.553Z" stroke="url(#paint85_linear_1_350)" stroke-opacity="0.1" stroke-width="3"/>
<path opacity="0.878788" d="M241.891 182.39L463.421 281.022C470.743 284.282 475.133 291.885 474.295 299.856L448.948 541.023C448.11 548.994 442.235 555.518 434.395 557.185L197.199 607.602C189.36 609.269 181.339 605.697 177.332 598.757L56.084 388.75C52.0767 381.809 52.9944 373.077 58.3573 367.121L220.618 186.912C225.981 180.956 234.569 179.13 241.891 182.39Z" stroke="url(#paint86_linear_1_350)" stroke-opacity="0.1" stroke-width="3"/>
<path opacity="0.888889" d="M242.808 183.297L462.05 285.531C469.314 288.918 473.571 296.597 472.594 304.552L443.113 544.657C442.136 552.612 436.148 559.033 428.281 560.562L190.818 606.72C182.95 608.249 174.993 604.539 171.107 597.529L53.8285 385.952C49.9429 378.942 51.0129 370.228 56.4789 364.366L221.459 187.446C226.925 181.585 235.544 179.91 242.808 183.297Z" stroke="url(#paint87_linear_1_350)" stroke-opacity="0.1" stroke-width="3"/>
<path opacity="0.89899" d="M243.717 184.274L460.614 290.061C467.817 293.574 471.939 301.327 470.824 309.263L437.239 548.234C436.123 556.171 430.024 562.487 422.131 563.879L184.478 605.783C176.585 607.175 168.693 603.326 164.931 596.25L51.6381 383.177C47.8754 376.101 49.0973 367.406 54.6648 361.641L222.299 188.05C227.867 182.285 236.514 180.76 243.717 184.274Z" stroke="url(#paint88_linear_1_350)" stroke-opacity="0.1" stroke-width="3"/>
<path opacity="0.909091" d="M244.618 185.321L459.112 294.611C466.253 298.25 470.239 306.073 468.985 313.989L431.326 551.757C430.073 559.673 423.864 565.881 415.948 567.135L178.18 604.794C170.264 606.047 162.441 602.061 158.803 594.92L49.5127 380.427C45.8741 373.285 47.2476 364.614 52.9148 358.946L223.138 188.723C228.805 183.056 237.477 181.683 244.618 185.321Z" stroke="url(#paint89_linear_1_350)" stroke-opacity="0.1" stroke-width="3"/>
<path opacity="0.919192" d="M245.509 186.436L457.544 299.177C464.62 302.94 468.469 310.831 467.077 318.724L425.377 555.22C423.985 563.112 417.669 569.212 409.732 570.327L171.926 603.749C163.989 604.864 156.237 600.742 152.723 593.539L47.451 377.699C43.9376 370.495 45.4622 361.848 51.2275 356.281L223.973 189.463C229.738 183.895 238.432 182.673 245.509 186.436Z" stroke="url(#paint90_linear_1_350)" stroke-opacity="0.1" stroke-width="3"/>
<path opacity="0.929293" d="M246.388 187.621L455.909 303.76C462.919 307.646 466.629 315.603 465.1 323.471L419.391 558.626C417.861 566.493 411.44 572.481 403.485 573.458L165.715 602.652C157.76 603.629 150.08 599.372 146.693 592.109L45.4524 374.997C42.0653 367.733 43.7406 359.115 49.6022 353.648L224.802 190.272C230.664 184.806 239.379 183.736 246.388 187.621Z" stroke="url(#paint91_linear_1_350)" stroke-opacity="0.1" stroke-width="3"/>
<path opacity="0.939394" d="M247.255 188.875L454.208 308.359C461.149 312.366 464.72 320.387 463.054 328.227L413.369 561.973C411.703 569.813 405.178 575.688 397.207 576.526L159.548 601.505C151.577 602.342 143.974 597.952 140.714 590.631L43.5167 372.322C40.2568 365 42.0823 356.412 48.0383 351.049L225.626 191.148C231.583 185.785 240.314 184.868 247.255 188.875Z" stroke="url(#paint92_linear_1_350)" stroke-opacity="0.1" stroke-width="3"/>
<path opacity="0.949495" d="M248.109 190.198L452.441 312.973C459.311 317.101 462.741 325.183 460.938 332.992L407.314 565.263C405.511 573.072 398.885 578.833 390.901 579.531L153.427 600.307C145.443 601.006 137.917 596.484 134.786 589.106L41.643 369.676C38.5114 362.298 40.4864 353.743 46.5352 348.485L226.443 192.093C232.492 186.835 241.239 186.07 248.109 190.198Z" stroke="url(#paint93_linear_1_350)" stroke-opacity="0.1" stroke-width="3"/>
<path opacity="0.959596" d="M248.947 191.587L450.607 317.598C457.404 321.845 460.693 329.986 458.754 337.763L401.226 568.492C399.288 576.269 392.562 581.912 384.567 582.471L147.353 599.059C139.358 599.618 131.912 594.965 128.91 587.534L39.8308 367.057C36.8284 359.625 38.9525 351.106 45.0921 345.954L227.252 193.104C233.392 187.952 242.15 187.34 248.947 191.587Z" stroke="url(#paint94_linear_1_350)" stroke-opacity="0.1" stroke-width="3"/>
<path opacity="0.969697" d="M249.769 193.045L448.706 322.236C455.428 326.601 458.574 334.798 456.5 342.54L395.107 571.662C393.032 579.404 386.209 584.929 378.205 585.349L141.325 597.763C133.322 598.182 125.958 593.4 123.086 585.918L38.0793 364.468C35.2071 356.986 37.4796 348.505 43.7081 343.461L228.051 194.183C234.28 189.139 243.048 188.68 249.769 193.045Z" stroke="url(#paint95_linear_1_350)" stroke-opacity="0.1" stroke-width="3"/>
<path opacity="0.979798" d="M250.574 194.568L446.739 326.883C453.383 331.365 456.386 339.615 454.177 347.319L388.956 574.77C386.747 582.475 379.828 587.88 371.819 588.16L135.346 596.418C127.336 596.697 120.057 591.788 117.316 584.256L36.3878 361.909C33.6466 354.377 36.0667 345.938 42.3823 341.003L228.839 195.327C235.155 190.393 243.93 190.086 250.574 194.568Z" stroke="url(#paint96_linear_1_350)" stroke-opacity="0.1" stroke-width="3"/>
<path opacity="0.989899" d="M251.361 196.159L444.705 331.54C451.27 336.137 454.129 344.439 451.785 352.104L382.777 577.82C380.434 585.484 373.422 590.768 365.408 590.908L129.415 595.027C121.401 595.167 114.209 590.131 111.6 582.553L34.7561 359.383C32.1467 351.805 34.7138 343.408 41.1146 338.585L229.616 196.539C236.017 191.716 244.796 191.562 251.361 196.159Z" stroke="url(#paint97_linear_1_350)" stroke-opacity="0.1" stroke-width="3"/>
<path d="M252.128 197.816L442.604 336.206C449.088 340.916 451.801 349.267 449.325 356.889L376.569 580.807C374.092 588.43 366.989 593.591 358.975 593.591H123.533C115.518 593.591 108.415 588.43 105.938 580.808L33.1829 356.889C30.7063 349.267 33.4194 340.916 39.9035 336.206L230.38 197.816C236.864 193.106 245.644 193.106 252.128 197.816Z" stroke="url(#paint98_linear_1_350)" stroke-opacity="0.1" stroke-width="3"/>
<defs>
<linearGradient id="paint0_linear_1_350" x1="302.054" y1="624.529" x2="532.934" y2="250.185" gradientUnits="userSpaceOnUse">
<stop stop-color="#56F395"/>
<stop offset="1" stop-color="#60A5FA"/>
</linearGradient>
<linearGradient id="paint1_linear_1_350" x1="294.124" y1="620.854" x2="531.069" y2="251.272" gradientUnits="userSpaceOnUse">
<stop stop-color="#56F395"/>
<stop offset="1" stop-color="#60A5FA"/>
</linearGradient>
<linearGradient id="paint2_linear_1_350" x1="286.286" y1="617.102" x2="529.2" y2="252.38" gradientUnits="userSpaceOnUse">
<stop stop-color="#56F395"/>
<stop offset="1" stop-color="#60A5FA"/>
</linearGradient>
<linearGradient id="paint3_linear_1_350" x1="278.541" y1="613.275" x2="527.327" y2="253.508" gradientUnits="userSpaceOnUse">
<stop stop-color="#56F395"/>
<stop offset="1" stop-color="#60A5FA"/>
</linearGradient>
<linearGradient id="paint4_linear_1_350" x1="270.89" y1="609.373" x2="525.449" y2="254.655" gradientUnits="userSpaceOnUse">
<stop stop-color="#56F395"/>
<stop offset="1" stop-color="#60A5FA"/>
</linearGradient>
<linearGradient id="paint5_linear_1_350" x1="263.335" y1="605.399" x2="523.567" y2="255.821" gradientUnits="userSpaceOnUse">
<stop stop-color="#56F395"/>
<stop offset="1" stop-color="#60A5FA"/>
</linearGradient>
<linearGradient id="paint6_linear_1_350" x1="255.877" y1="601.354" x2="521.68" y2="257.006" gradientUnits="userSpaceOnUse">
<stop stop-color="#56F395"/>
<stop offset="1" stop-color="#60A5FA"/>
</linearGradient>
<linearGradient id="paint7_linear_1_350" x1="248.516" y1="597.242" x2="519.786" y2="258.212" gradientUnits="userSpaceOnUse">
<stop stop-color="#56F395"/>
<stop offset="1" stop-color="#60A5FA"/>
</linearGradient>
<linearGradient id="paint8_linear_1_350" x1="241.254" y1="593.062" x2="517.888" y2="259.436" gradientUnits="userSpaceOnUse">
<stop stop-color="#56F395"/>
<stop offset="1" stop-color="#60A5FA"/>
</linearGradient>
<linearGradient id="paint9_linear_1_350" x1="234.091" y1="588.817" x2="515.983" y2="260.678" gradientUnits="userSpaceOnUse">
<stop stop-color="#56F395"/>
<stop offset="1" stop-color="#60A5FA"/>
</linearGradient>
<linearGradient id="paint10_linear_1_350" x1="227.03" y1="584.51" x2="514.071" y2="261.941" gradientUnits="userSpaceOnUse">
<stop stop-color="#56F395"/>
<stop offset="1" stop-color="#60A5FA"/>
</linearGradient>
<linearGradient id="paint11_linear_1_350" x1="220.069" y1="580.141" x2="512.153" y2="263.221" gradientUnits="userSpaceOnUse">
<stop stop-color="#56F395"/>
<stop offset="1" stop-color="#60A5FA"/>
</linearGradient>
<linearGradient id="paint12_linear_1_350" x1="213.212" y1="575.714" x2="510.228" y2="264.52" gradientUnits="userSpaceOnUse">
<stop stop-color="#56F395"/>
<stop offset="1" stop-color="#60A5FA"/>
</linearGradient>
<linearGradient id="paint13_linear_1_350" x1="206.458" y1="571.23" x2="508.295" y2="265.838" gradientUnits="userSpaceOnUse">
<stop stop-color="#56F395"/>
<stop offset="1" stop-color="#60A5FA"/>
</linearGradient>
<linearGradient id="paint14_linear_1_350" x1="199.808" y1="566.69" x2="506.355" y2="267.173" gradientUnits="userSpaceOnUse">
<stop stop-color="#56F395"/>
<stop offset="1" stop-color="#60A5FA"/>
</linearGradient>
<linearGradient id="paint15_linear_1_350" x1="193.262" y1="562.097" x2="504.407" y2="268.527" gradientUnits="userSpaceOnUse">
<stop stop-color="#56F395"/>
<stop offset="1" stop-color="#60A5FA"/>
</linearGradient>
<linearGradient id="paint16_linear_1_350" x1="186.822" y1="557.453" x2="502.45" y2="269.899" gradientUnits="userSpaceOnUse">
<stop stop-color="#56F395"/>
<stop offset="1" stop-color="#60A5FA"/>
</linearGradient>
<linearGradient id="paint17_linear_1_350" x1="180.489" y1="552.76" x2="500.484" y2="271.288" gradientUnits="userSpaceOnUse">
<stop stop-color="#56F395"/>
<stop offset="1" stop-color="#60A5FA"/>
</linearGradient>
<linearGradient id="paint18_linear_1_350" x1="174.263" y1="548.02" x2="498.51" y2="272.694" gradientUnits="userSpaceOnUse">
<stop stop-color="#56F395"/>
<stop offset="1" stop-color="#60A5FA"/>
</linearGradient>
<linearGradient id="paint19_linear_1_350" x1="168.144" y1="543.233" x2="496.526" y2="274.117" gradientUnits="userSpaceOnUse">
<stop stop-color="#56F395"/>
<stop offset="1" stop-color="#60A5FA"/>
</linearGradient>
<linearGradient id="paint20_linear_1_350" x1="162.134" y1="538.405" x2="494.533" y2="275.559" gradientUnits="userSpaceOnUse">
<stop stop-color="#56F395"/>
<stop offset="1" stop-color="#60A5FA"/>
</linearGradient>
<linearGradient id="paint21_linear_1_350" x1="156.232" y1="533.534" x2="492.53" y2="277.015" gradientUnits="userSpaceOnUse">
<stop stop-color="#56F395"/>
<stop offset="1" stop-color="#60A5FA"/>
</linearGradient>
<linearGradient id="paint22_linear_1_350" x1="150.441" y1="528.624" x2="490.517" y2="278.49" gradientUnits="userSpaceOnUse">
<stop stop-color="#56F395"/>
<stop offset="1" stop-color="#60A5FA"/>
</linearGradient>
<linearGradient id="paint23_linear_1_350" x1="144.758" y1="523.678" x2="488.494" y2="279.981" gradientUnits="userSpaceOnUse">
<stop stop-color="#56F395"/>
<stop offset="1" stop-color="#60A5FA"/>
</linearGradient>
<linearGradient id="paint24_linear_1_350" x1="139.187" y1="518.696" x2="486.46" y2="281.488" gradientUnits="userSpaceOnUse">
<stop stop-color="#56F395"/>
<stop offset="1" stop-color="#60A5FA"/>
</linearGradient>
<linearGradient id="paint25_linear_1_350" x1="133.725" y1="513.68" x2="484.415" y2="283.01" gradientUnits="userSpaceOnUse">
<stop stop-color="#56F395"/>
<stop offset="1" stop-color="#60A5FA"/>
</linearGradient>
<linearGradient id="paint26_linear_1_350" x1="128.375" y1="508.634" x2="482.359" y2="284.549" gradientUnits="userSpaceOnUse">
<stop stop-color="#56F395"/>
<stop offset="1" stop-color="#60A5FA"/>
</linearGradient>
<linearGradient id="paint27_linear_1_350" x1="123.136" y1="503.559" x2="480.291" y2="286.103" gradientUnits="userSpaceOnUse">
<stop stop-color="#56F395"/>
<stop offset="1" stop-color="#60A5FA"/>
</linearGradient>
<linearGradient id="paint28_linear_1_350" x1="118.009" y1="498.457" x2="478.212" y2="287.673" gradientUnits="userSpaceOnUse">
<stop stop-color="#56F395"/>
<stop offset="1" stop-color="#60A5FA"/>
</linearGradient>
<linearGradient id="paint29_linear_1_350" x1="112.993" y1="493.329" x2="476.121" y2="289.257" gradientUnits="userSpaceOnUse">
<stop stop-color="#56F395"/>
<stop offset="1" stop-color="#60A5FA"/>
</linearGradient>
<linearGradient id="paint30_linear_1_350" x1="108.09" y1="488.18" x2="474.018" y2="290.857" gradientUnits="userSpaceOnUse">
<stop stop-color="#56F395"/>
<stop offset="1" stop-color="#60A5FA"/>
</linearGradient>
<linearGradient id="paint31_linear_1_350" x1="103.299" y1="483.008" x2="471.902" y2="292.47" gradientUnits="userSpaceOnUse">
<stop stop-color="#56F395"/>
<stop offset="1" stop-color="#60A5FA"/>
</linearGradient>
<linearGradient id="paint32_linear_1_350" x1="98.6211" y1="477.819" x2="469.774" y2="294.099" gradientUnits="userSpaceOnUse">
<stop stop-color="#56F395"/>
<stop offset="1" stop-color="#60A5FA"/>
</linearGradient>
<linearGradient id="paint33_linear_1_350" x1="94.0553" y1="472.612" x2="467.632" y2="295.741" gradientUnits="userSpaceOnUse">
<stop stop-color="#56F395"/>
<stop offset="1" stop-color="#60A5FA"/>
</linearGradient>
<linearGradient id="paint34_linear_1_350" x1="89.6025" y1="467.391" x2="465.478" y2="297.397" gradientUnits="userSpaceOnUse">
<stop stop-color="#56F395"/>
<stop offset="1" stop-color="#60A5FA"/>
</linearGradient>
<linearGradient id="paint35_linear_1_350" x1="85.2617" y1="462.157" x2="463.31" y2="299.067" gradientUnits="userSpaceOnUse">
<stop stop-color="#56F395"/>
<stop offset="1" stop-color="#60A5FA"/>
</linearGradient>
<linearGradient id="paint36_linear_1_350" x1="81.0342" y1="456.912" x2="461.129" y2="300.75" gradientUnits="userSpaceOnUse">
<stop stop-color="#56F395"/>
<stop offset="1" stop-color="#60A5FA"/>
</linearGradient>
<linearGradient id="paint37_linear_1_350" x1="76.9199" y1="451.659" x2="458.935" y2="302.446" gradientUnits="userSpaceOnUse">
<stop stop-color="#56F395"/>
<stop offset="1" stop-color="#60A5FA"/>
</linearGradient>
<linearGradient id="paint38_linear_1_350" x1="72.917" y1="446.399" x2="456.725" y2="304.155" gradientUnits="userSpaceOnUse">
<stop stop-color="#56F395"/>
<stop offset="1" stop-color="#60A5FA"/>
</linearGradient>
<linearGradient id="paint39_linear_1_350" x1="69.0273" y1="441.133" x2="454.502" y2="305.875" gradientUnits="userSpaceOnUse">
<stop stop-color="#56F395"/>
<stop offset="1" stop-color="#60A5FA"/>
</linearGradient>
<linearGradient id="paint40_linear_1_350" x1="65.25" y1="435.867" x2="452.265" y2="307.609" gradientUnits="userSpaceOnUse">
<stop stop-color="#56F395"/>
<stop offset="1" stop-color="#60A5FA"/>
</linearGradient>
<linearGradient id="paint41_linear_1_350" x1="61.585" y1="430.599" x2="450.013" y2="309.354" gradientUnits="userSpaceOnUse">
<stop stop-color="#56F395"/>
<stop offset="1" stop-color="#60A5FA"/>
</linearGradient>
<linearGradient id="paint42_linear_1_350" x1="58.0313" y1="425.332" x2="447.746" y2="311.111" gradientUnits="userSpaceOnUse">
<stop stop-color="#56F395"/>
<stop offset="1" stop-color="#60A5FA"/>
</linearGradient>
<linearGradient id="paint43_linear_1_350" x1="54.5898" y1="420.07" x2="445.465" y2="312.879" gradientUnits="userSpaceOnUse">
<stop stop-color="#56F395"/>
<stop offset="1" stop-color="#60A5FA"/>
</linearGradient>
<linearGradient id="paint44_linear_1_350" x1="51.2596" y1="414.813" x2="443.168" y2="314.659" gradientUnits="userSpaceOnUse">
<stop stop-color="#56F395"/>
<stop offset="1" stop-color="#60A5FA"/>
</linearGradient>
<linearGradient id="paint45_linear_1_350" x1="48.0405" y1="409.563" x2="440.856" y2="316.449" gradientUnits="userSpaceOnUse">
<stop stop-color="#56F395"/>
<stop offset="1" stop-color="#60A5FA"/>
</linearGradient>
<linearGradient id="paint46_linear_1_350" x1="44.9321" y1="404.322" x2="438.529" y2="318.249" gradientUnits="userSpaceOnUse">
<stop stop-color="#56F395"/>
<stop offset="1" stop-color="#60A5FA"/>
</linearGradient>
<linearGradient id="paint47_linear_1_350" x1="41.934" y1="399.092" x2="436.186" y2="320.06" gradientUnits="userSpaceOnUse">
<stop stop-color="#56F395"/>
<stop offset="1" stop-color="#60A5FA"/>
</linearGradient>
<linearGradient id="paint48_linear_1_350" x1="39.0458" y1="393.875" x2="433.828" y2="321.88" gradientUnits="userSpaceOnUse">
<stop stop-color="#56F395"/>
<stop offset="1" stop-color="#60A5FA"/>
</linearGradient>
<linearGradient id="paint49_linear_1_350" x1="36.2671" y1="388.675" x2="431.453" y2="323.711" gradientUnits="userSpaceOnUse">
<stop stop-color="#56F395"/>
<stop offset="1" stop-color="#60A5FA"/>
</linearGradient>
<linearGradient id="paint50_linear_1_350" x1="33.5972" y1="383.492" x2="429.063" y2="325.55" gradientUnits="userSpaceOnUse">
<stop stop-color="#56F395"/>
<stop offset="1" stop-color="#60A5FA"/>
</linearGradient>
<linearGradient id="paint51_linear_1_350" x1="31.0358" y1="378.327" x2="426.657" y2="327.398" gradientUnits="userSpaceOnUse">
<stop stop-color="#56F395"/>
<stop offset="1" stop-color="#60A5FA"/>
</linearGradient>
<linearGradient id="paint52_linear_1_350" x1="28.582" y1="373.183" x2="424.234" y2="329.256" gradientUnits="userSpaceOnUse">
<stop stop-color="#56F395"/>
<stop offset="1" stop-color="#60A5FA"/>
</linearGradient>
<linearGradient id="paint53_linear_1_350" x1="26.2358" y1="368.062" x2="421.795" y2="331.121" gradientUnits="userSpaceOnUse">
<stop stop-color="#56F395"/>
<stop offset="1" stop-color="#60A5FA"/>
</linearGradient>
<linearGradient id="paint54_linear_1_350" x1="23.9962" y1="362.965" x2="419.339" y2="332.994" gradientUnits="userSpaceOnUse">
<stop stop-color="#56F395"/>
<stop offset="1" stop-color="#60A5FA"/>
</linearGradient>
<linearGradient id="paint55_linear_1_350" x1="21.8623" y1="357.896" x2="416.867" y2="334.875" gradientUnits="userSpaceOnUse">
<stop stop-color="#56F395"/>
<stop offset="1" stop-color="#60A5FA"/>
</linearGradient>
<linearGradient id="paint56_linear_1_350" x1="19.834" y1="352.854" x2="414.378" y2="336.764" gradientUnits="userSpaceOnUse">
<stop stop-color="#56F395"/>
<stop offset="1" stop-color="#60A5FA"/>
</linearGradient>
<linearGradient id="paint57_linear_1_350" x1="17.9102" y1="347.843" x2="411.873" y2="338.66" gradientUnits="userSpaceOnUse">
<stop stop-color="#56F395"/>
<stop offset="1" stop-color="#60A5FA"/>
</linearGradient>
<linearGradient id="paint58_linear_1_350" x1="16.0898" y1="342.864" x2="409.35" y2="340.562" gradientUnits="userSpaceOnUse">
<stop stop-color="#56F395"/>
<stop offset="1" stop-color="#60A5FA"/>
</linearGradient>
<linearGradient id="paint59_linear_1_350" x1="14.373" y1="337.918" x2="406.811" y2="342.471" gradientUnits="userSpaceOnUse">
<stop stop-color="#56F395"/>
<stop offset="1" stop-color="#60A5FA"/>
</linearGradient>
<linearGradient id="paint60_linear_1_350" x1="12.7578" y1="333.008" x2="404.255" y2="344.386" gradientUnits="userSpaceOnUse">
<stop stop-color="#56F395"/>
<stop offset="1" stop-color="#60A5FA"/>
</linearGradient>
<linearGradient id="paint61_linear_1_350" x1="11.2441" y1="328.136" x2="401.681" y2="346.307" gradientUnits="userSpaceOnUse">
<stop stop-color="#56F395"/>
<stop offset="1" stop-color="#60A5FA"/>
</linearGradient>
<linearGradient id="paint62_linear_1_350" x1="9.83105" y1="323.303" x2="399.09" y2="348.234" gradientUnits="userSpaceOnUse">
<stop stop-color="#56F395"/>
<stop offset="1" stop-color="#60A5FA"/>
</linearGradient>
<linearGradient id="paint63_linear_1_350" x1="8.51709" y1="318.51" x2="396.482" y2="350.166" gradientUnits="userSpaceOnUse">
<stop stop-color="#56F395"/>
<stop offset="1" stop-color="#60A5FA"/>
</linearGradient>
<linearGradient id="paint64_linear_1_350" x1="7.30176" y1="313.76" x2="393.857" y2="352.103" gradientUnits="userSpaceOnUse">
<stop stop-color="#56F395"/>
<stop offset="1" stop-color="#60A5FA"/>
</linearGradient>
<linearGradient id="paint65_linear_1_350" x1="6.18457" y1="309.053" x2="391.214" y2="354.043" gradientUnits="userSpaceOnUse">
<stop stop-color="#56F395"/>
<stop offset="1" stop-color="#60A5FA"/>
</linearGradient>
<linearGradient id="paint66_linear_1_350" x1="5.16357" y1="304.393" x2="388.554" y2="355.989" gradientUnits="userSpaceOnUse">
<stop stop-color="#56F395"/>
<stop offset="1" stop-color="#60A5FA"/>
</linearGradient>
<linearGradient id="paint67_linear_1_350" x1="4.2384" y1="299.78" x2="385.876" y2="357.938" gradientUnits="userSpaceOnUse">
<stop stop-color="#56F395"/>
<stop offset="1" stop-color="#60A5FA"/>
</linearGradient>
<linearGradient id="paint68_linear_1_350" x1="3.40771" y1="295.215" x2="383.181" y2="359.89" gradientUnits="userSpaceOnUse">
<stop stop-color="#56F395"/>
<stop offset="1" stop-color="#60A5FA"/>
</linearGradient>
<linearGradient id="paint69_linear_1_350" x1="2.67041" y1="290.703" x2="380.469" y2="361.847" gradientUnits="userSpaceOnUse">
<stop stop-color="#56F395"/>
<stop offset="1" stop-color="#60A5FA"/>
</linearGradient>
<linearGradient id="paint70_linear_1_350" x1="2.02539" y1="286.241" x2="377.739" y2="363.805" gradientUnits="userSpaceOnUse">
<stop stop-color="#56F395"/>
<stop offset="1" stop-color="#60A5FA"/>
</linearGradient>
<linearGradient id="paint71_linear_1_350" x1="1.47168" y1="281.833" x2="374.991" y2="365.767" gradientUnits="userSpaceOnUse">
<stop stop-color="#56F395"/>
<stop offset="1" stop-color="#60A5FA"/>
</linearGradient>
<linearGradient id="paint72_linear_1_350" x1="1.00879" y1="277.481" x2="372.226" y2="367.731" gradientUnits="userSpaceOnUse">
<stop stop-color="#56F395"/>
<stop offset="1" stop-color="#60A5FA"/>
</linearGradient>
<linearGradient id="paint73_linear_1_350" x1="0.633789" y1="273.186" x2="369.443" y2="369.698" gradientUnits="userSpaceOnUse">
<stop stop-color="#56F395"/>
<stop offset="1" stop-color="#60A5FA"/>
</linearGradient>
<linearGradient id="paint74_linear_1_350" x1="0.34668" y1="268.948" x2="366.643" y2="371.665" gradientUnits="userSpaceOnUse">
<stop stop-color="#56F395"/>
<stop offset="1" stop-color="#60A5FA"/>
</linearGradient>
<linearGradient id="paint75_linear_1_350" x1="0.146484" y1="264.77" x2="363.825" y2="373.634" gradientUnits="userSpaceOnUse">
<stop stop-color="#56F395"/>
<stop offset="1" stop-color="#60A5FA"/>
</linearGradient>
<linearGradient id="paint76_linear_1_350" x1="0.03125" y1="260.654" x2="360.99" y2="375.605" gradientUnits="userSpaceOnUse">
<stop stop-color="#56F395"/>
<stop offset="1" stop-color="#60A5FA"/>
</linearGradient>
<linearGradient id="paint77_linear_1_350" x1="0" y1="256.6" x2="358.137" y2="377.577" gradientUnits="userSpaceOnUse">
<stop stop-color="#56F395"/>
<stop offset="1" stop-color="#60A5FA"/>
</linearGradient>
<linearGradient id="paint78_linear_1_350" x1="0.0512695" y1="252.609" x2="355.267" y2="379.547" gradientUnits="userSpaceOnUse">
<stop stop-color="#56F395"/>
<stop offset="1" stop-color="#60A5FA"/>
</linearGradient>
<linearGradient id="paint79_linear_1_350" x1="0.18396" y1="248.684" x2="352.379" y2="381.519" gradientUnits="userSpaceOnUse">
<stop stop-color="#56F395"/>
<stop offset="1" stop-color="#60A5FA"/>
</linearGradient>
<linearGradient id="paint80_linear_1_350" x1="0.396484" y1="244.825" x2="349.474" y2="383.49" gradientUnits="userSpaceOnUse">
<stop stop-color="#56F395"/>
<stop offset="1" stop-color="#60A5FA"/>
</linearGradient>
<linearGradient id="paint81_linear_1_350" x1="0.6875" y1="241.034" x2="346.551" y2="385.461" gradientUnits="userSpaceOnUse">
<stop stop-color="#56F395"/>
<stop offset="1" stop-color="#60A5FA"/>
</linearGradient>
<linearGradient id="paint82_linear_1_350" x1="1.05664" y1="237.311" x2="343.612" y2="387.43" gradientUnits="userSpaceOnUse">
<stop stop-color="#56F395"/>
<stop offset="1" stop-color="#60A5FA"/>
</linearGradient>
<linearGradient id="paint83_linear_1_350" x1="1.50061" y1="233.66" x2="340.654" y2="389.399" gradientUnits="userSpaceOnUse">
<stop stop-color="#56F395"/>
<stop offset="1" stop-color="#60A5FA"/>
</linearGradient>
<linearGradient id="paint84_linear_1_350" x1="2.01953" y1="230.078" x2="337.68" y2="391.366" gradientUnits="userSpaceOnUse">
<stop stop-color="#56F395"/>
<stop offset="1" stop-color="#60A5FA"/>
</linearGradient>
<linearGradient id="paint85_linear_1_350" x1="2.61096" y1="226.571" x2="334.688" y2="393.332" gradientUnits="userSpaceOnUse">
<stop stop-color="#56F395"/>
<stop offset="1" stop-color="#60A5FA"/>
</linearGradient>
<linearGradient id="paint86_linear_1_350" x1="3.27441" y1="223.137" x2="331.68" y2="395.296" gradientUnits="userSpaceOnUse">
<stop stop-color="#56F395"/>
<stop offset="1" stop-color="#60A5FA"/>
</linearGradient>
<linearGradient id="paint87_linear_1_350" x1="4.0072" y1="219.778" x2="328.654" y2="397.256" gradientUnits="userSpaceOnUse">
<stop stop-color="#56F395"/>
<stop offset="1" stop-color="#60A5FA"/>
</linearGradient>
<linearGradient id="paint88_linear_1_350" x1="4.80859" y1="216.495" x2="325.611" y2="399.215" gradientUnits="userSpaceOnUse">
<stop stop-color="#56F395"/>
<stop offset="1" stop-color="#60A5FA"/>
</linearGradient>
<linearGradient id="paint89_linear_1_350" x1="5.67761" y1="213.289" x2="322.552" y2="401.171" gradientUnits="userSpaceOnUse">
<stop stop-color="#56F395"/>
<stop offset="1" stop-color="#60A5FA"/>
</linearGradient>
<linearGradient id="paint90_linear_1_350" x1="6.61182" y1="210.161" x2="319.476" y2="403.123" gradientUnits="userSpaceOnUse">
<stop stop-color="#56F395"/>
<stop offset="1" stop-color="#60A5FA"/>
</linearGradient>
<linearGradient id="paint91_linear_1_350" x1="7.60986" y1="207.112" x2="316.383" y2="405.072" gradientUnits="userSpaceOnUse">
<stop stop-color="#56F395"/>
<stop offset="1" stop-color="#60A5FA"/>
</linearGradient>
<linearGradient id="paint92_linear_1_350" x1="8.67029" y1="204.143" x2="313.274" y2="407.017" gradientUnits="userSpaceOnUse">
<stop stop-color="#56F395"/>
<stop offset="1" stop-color="#60A5FA"/>
</linearGradient>
<linearGradient id="paint93_linear_1_350" x1="9.7915" y1="201.256" x2="310.148" y2="408.959" gradientUnits="userSpaceOnUse">
<stop stop-color="#56F395"/>
<stop offset="1" stop-color="#60A5FA"/>
</linearGradient>
<linearGradient id="paint94_linear_1_350" x1="10.972" y1="198.45" x2="307.005" y2="410.894" gradientUnits="userSpaceOnUse">
<stop stop-color="#56F395"/>
<stop offset="1" stop-color="#60A5FA"/>
</linearGradient>
<linearGradient id="paint95_linear_1_350" x1="12.2101" y1="195.727" x2="303.847" y2="412.827" gradientUnits="userSpaceOnUse">
<stop stop-color="#56F395"/>
<stop offset="1" stop-color="#60A5FA"/>
</linearGradient>
<linearGradient id="paint96_linear_1_350" x1="13.5039" y1="193.086" x2="300.672" y2="414.752" gradientUnits="userSpaceOnUse">
<stop stop-color="#56F395"/>
<stop offset="1" stop-color="#60A5FA"/>
</linearGradient>
<linearGradient id="paint97_linear_1_350" x1="14.8525" y1="190.532" x2="297.482" y2="416.674" gradientUnits="userSpaceOnUse">
<stop stop-color="#56F395"/>
<stop offset="1" stop-color="#60A5FA"/>
</linearGradient>
<linearGradient id="paint98_linear_1_350" x1="16.2538" y1="188.062" x2="294.275" y2="418.59" gradientUnits="userSpaceOnUse">
<stop stop-color="#56F395"/>
<stop offset="1" stop-color="#60A5FA"/>
</linearGradient>
</defs>
</svg>
