<svg width="686" height="626" viewBox="0 0 686 626" fill="none" xmlns="http://www.w3.org/2000/svg">
<path d="M322.473 153.441C408.809 139.767 489.252 141.939 549.511 156.488C579.642 163.762 604.701 174.125 622.926 187.127C641.149 200.128 652.507 215.741 655.323 233.524C658.14 251.307 652.163 269.667 638.849 287.662C625.534 305.659 604.904 323.259 578.496 339.488C525.681 371.946 449.847 398.87 363.511 412.545C277.176 426.219 196.733 424.046 136.474 409.498C106.343 402.223 81.2836 391.86 63.0587 378.858C44.8358 365.858 33.478 350.244 30.6615 332.461C27.8449 314.678 33.8219 296.319 47.1355 278.323C60.4506 260.326 81.0811 242.727 107.489 226.497C160.303 194.04 236.138 167.115 322.473 153.441Z" stroke="url(#paint0_linear_50_555)" stroke-opacity="0.1"/>
<path d="M324.738 153.102C411.298 140.937 491.691 144.513 551.688 160.111C581.687 167.911 606.561 178.709 624.557 192.027C642.55 205.344 653.633 221.153 656.139 238.983C658.645 256.812 652.348 275.064 638.723 292.825C625.096 310.587 604.161 327.824 577.474 343.59C524.101 375.121 447.808 400.718 361.247 412.883C274.686 425.048 194.293 421.472 134.297 405.874C104.298 398.075 79.4235 387.276 61.4283 373.958C43.4351 360.642 32.3515 344.832 29.8458 327.003C27.34 309.173 33.6365 290.921 47.2621 273.161C60.8893 255.398 81.8238 238.162 108.511 222.396C161.884 190.865 238.177 165.268 324.738 153.102Z" stroke="url(#paint1_linear_50_555)" stroke-opacity="0.1"/>
<path d="M327.007 152.803C413.767 142.151 494.086 147.129 553.8 163.772C583.659 172.094 608.341 183.325 626.101 196.955C643.859 210.584 654.665 226.584 656.859 244.455C659.054 262.325 652.44 280.464 638.506 297.984C624.571 315.506 603.339 332.375 576.38 347.673C522.466 378.267 445.738 402.529 358.978 413.182C272.218 423.834 191.899 418.856 132.185 402.213C102.326 393.891 77.6436 382.66 59.8836 369.03C42.1255 355.402 31.3196 339.401 29.1253 321.531C26.9311 303.66 33.5452 285.521 47.4787 268.001C61.4138 250.479 82.646 233.61 109.604 218.313C163.519 187.718 240.247 163.456 327.007 152.803Z" stroke="url(#paint2_linear_50_555)" stroke-opacity="0.1"/>
<path d="M329.282 152.545C416.215 143.408 496.434 149.787 555.849 167.47C585.558 176.311 610.04 187.971 627.56 201.909C645.077 215.846 655.602 232.032 657.484 249.938C659.366 267.844 652.437 285.866 638.2 303.14C623.961 320.416 602.437 336.911 575.216 351.736C520.776 381.385 443.636 404.304 356.703 413.441C269.77 422.578 189.551 416.198 130.136 398.516C100.427 389.674 75.9447 378.014 58.4253 364.076C40.9077 350.14 30.3827 333.953 28.5007 316.047C26.6187 298.141 33.5483 280.12 47.7855 262.846C62.0243 245.57 83.5476 229.074 110.769 214.249C165.209 184.6 242.349 161.682 329.282 152.545Z" stroke="url(#paint3_linear_50_555)" stroke-opacity="0.1"/>
<path d="M331.56 152.325C418.639 144.707 498.735 152.485 557.833 171.202C587.383 180.561 611.658 192.646 628.931 206.888C646.203 221.128 656.444 237.496 658.013 255.432C659.582 273.368 652.339 291.266 637.803 308.289C623.265 325.313 601.457 341.431 573.981 355.778C519.031 384.473 441.503 406.042 354.424 413.66C267.345 421.279 187.25 413.5 128.152 394.783C98.6023 385.425 74.3269 373.339 57.0534 359.098C39.7817 344.857 29.5408 328.49 27.9716 310.553C26.4024 292.617 33.6455 274.72 48.182 257.697C62.7201 240.672 84.528 224.555 112.004 210.207C166.953 181.512 244.482 159.943 331.56 152.325Z" stroke="url(#paint4_linear_50_555)" stroke-opacity="0.1"/>
<path d="M333.843 152.145C421.041 146.048 500.989 155.223 559.751 174.968C589.133 184.841 613.194 197.349 630.216 211.89C647.237 226.429 657.19 242.973 658.446 260.934C659.702 278.895 652.148 296.663 637.317 313.43C622.484 330.198 600.398 345.932 572.676 359.799C517.234 387.53 439.341 407.742 352.142 413.84C264.944 419.937 184.996 410.762 126.234 391.017C96.8519 381.144 72.7911 368.636 55.7688 354.096C38.7483 339.556 28.7946 323.012 27.5386 305.051C26.2827 287.09 33.837 269.322 48.6684 252.555C63.5014 235.787 85.5873 220.053 113.309 206.187C168.751 178.455 246.644 158.243 333.843 152.145Z" stroke="url(#paint5_linear_50_555)" stroke-opacity="0.1"/>
<path d="M336.128 152.005C423.419 147.431 503.195 158 561.603 178.768C590.808 189.152 614.647 202.077 631.413 216.913C648.177 231.747 657.841 248.462 658.783 266.442C659.725 284.423 651.862 302.056 636.74 318.562C621.617 335.069 599.26 350.415 571.3 363.795C515.382 390.554 437.149 409.405 349.857 413.979C262.565 418.554 182.79 407.985 124.382 387.217C95.1764 376.833 71.3375 363.907 54.5716 349.072C37.8074 334.238 28.1439 317.522 27.2016 299.542C26.2593 281.562 34.1226 263.928 49.2444 247.423C64.3678 230.916 86.7249 215.57 114.685 202.19C170.602 175.43 248.836 156.58 336.128 152.005Z" stroke="url(#paint6_linear_50_555)" stroke-opacity="0.1"/>
<path d="M338.415 151.905C425.773 148.855 505.352 160.815 563.389 182.599C592.408 193.491 616.018 206.83 632.522 221.957C649.025 237.081 658.395 253.962 659.024 271.956C659.652 289.95 651.482 307.444 636.075 323.683C620.666 339.923 598.044 354.877 569.855 367.767C513.479 393.547 434.928 411.028 347.57 414.079C260.212 417.13 180.633 405.17 122.596 383.386C93.5762 372.494 69.9666 359.154 53.4621 344.028C36.9594 328.903 27.5891 312.022 26.9608 294.028C26.3324 276.034 34.5023 258.541 49.9098 242.302C65.3189 226.061 87.9405 211.107 116.13 198.217C172.506 172.438 251.056 154.956 338.415 151.905Z" stroke="url(#paint7_linear_50_555)" stroke-opacity="0.1"/>
<path d="M340.703 151.845C428.101 150.32 507.459 163.667 565.107 186.46C593.932 197.857 617.306 211.607 633.544 227.019C649.78 242.429 658.854 259.471 659.168 277.473C659.483 295.475 651.009 312.824 635.32 328.791C619.63 344.761 596.751 359.317 568.341 371.714C511.524 396.505 432.68 412.613 345.282 414.139C257.883 415.665 178.525 402.318 120.877 379.524C92.0523 368.127 68.6791 354.377 52.4411 338.966C36.2048 323.555 27.1306 306.513 26.8164 288.511C26.5022 270.509 34.9761 253.16 50.6646 237.193C66.3549 221.224 89.234 206.667 117.644 194.271C174.461 169.479 253.305 153.371 340.703 151.845Z" stroke="url(#paint8_linear_50_555)" stroke-opacity="0.1"/>
<path d="M342.992 151.826C430.404 151.826 509.517 166.556 566.758 190.352C595.38 202.25 618.51 216.405 634.476 232.098C650.441 247.79 659.217 264.988 659.217 282.992C659.217 300.997 650.441 318.195 634.476 333.886C618.51 349.579 595.38 363.735 566.758 375.633C509.517 399.429 430.404 414.159 342.992 414.159C255.581 414.159 176.468 399.429 119.227 375.633C90.6047 363.735 67.4751 349.579 51.5085 333.886C35.5437 318.195 26.7683 300.997 26.7683 282.992C26.7683 264.988 35.5437 247.79 51.5085 232.098C67.4751 216.405 90.6047 202.25 119.227 190.352C176.468 166.556 255.581 151.826 342.992 151.826Z" stroke="url(#paint9_linear_50_555)" stroke-opacity="0.1"/>
<path d="M345.282 151.846C432.68 153.371 511.524 169.48 568.341 194.271C596.751 206.668 619.63 221.224 635.32 237.194C651.009 253.161 659.483 270.51 659.168 288.512C658.854 306.514 649.78 323.556 633.544 338.966C617.306 354.378 593.932 368.127 565.107 379.525C507.459 402.318 428.101 415.665 340.703 414.139C253.305 412.614 174.461 396.506 117.644 371.714C89.234 359.318 66.3549 344.761 50.6646 328.792C34.9761 312.824 26.5022 295.476 26.8164 277.474C27.1306 259.472 36.2048 242.429 52.4411 227.019C68.6791 211.607 92.0523 197.858 120.877 186.461C178.525 163.667 257.883 150.32 345.282 151.846Z" stroke="url(#paint10_linear_50_555)" stroke-opacity="0.1"/>
<path d="M347.57 151.905C434.928 154.956 513.479 172.438 569.855 198.217C598.044 211.107 620.666 226.061 636.075 242.302C651.482 258.541 659.652 276.035 659.024 294.028C658.396 312.022 649.025 328.904 632.523 344.028C616.018 359.154 592.408 372.494 563.389 383.386C505.352 405.17 425.773 417.13 338.415 414.079C251.056 411.029 172.506 393.547 116.13 367.767C87.9406 354.877 65.319 339.923 49.9098 323.683C34.5023 307.444 26.3325 289.95 26.9608 271.956C27.5892 253.962 36.9595 237.081 53.4622 221.957C69.9667 206.831 93.5763 193.491 122.596 182.599C180.633 160.815 260.212 148.855 347.57 151.905Z" stroke="url(#paint11_linear_50_555)" stroke-opacity="0.1"/>
<path d="M349.857 152.005C437.149 156.58 515.382 175.43 571.3 202.189C599.26 215.569 621.617 230.916 636.74 247.423C651.862 263.928 659.725 281.562 658.783 299.542C657.841 317.522 648.177 334.237 631.413 349.071C614.647 363.907 590.808 376.833 561.603 387.217C503.195 407.985 423.419 418.554 336.128 413.979C248.836 409.404 170.602 390.554 114.685 363.795C86.7249 350.415 64.3677 335.068 49.2444 318.561C34.1226 302.056 26.2593 284.422 27.2016 266.442C28.1439 248.462 37.8074 231.747 54.5715 216.913C71.3375 202.077 95.1763 189.152 124.382 178.767C182.79 158 262.565 147.43 349.857 152.005Z" stroke="url(#paint12_linear_50_555)" stroke-opacity="0.1"/>
<path d="M352.142 152.145C439.341 158.242 517.233 178.455 572.675 206.186C600.398 220.052 622.484 235.787 637.316 252.555C652.148 269.322 659.702 287.09 658.446 305.051C657.19 323.012 647.237 339.556 630.216 354.095C613.194 368.636 589.133 381.143 559.751 391.016C500.989 410.762 421.041 419.937 333.843 413.839C246.644 407.742 168.751 387.529 113.309 359.798C85.5872 345.932 63.5013 330.198 48.6683 313.429C33.837 296.663 26.2826 278.894 27.5386 260.933C28.7945 242.973 38.7482 226.429 55.7687 211.889C72.7911 197.348 96.8518 184.841 126.234 174.968C184.996 155.223 264.943 146.047 352.142 152.145Z" stroke="url(#paint13_linear_50_555)" stroke-opacity="0.1"/>
<path d="M354.424 152.325C441.503 159.943 519.031 181.512 573.981 210.207C601.457 224.554 623.265 240.672 637.803 257.696C652.339 274.719 659.582 292.617 658.013 310.553C656.444 328.489 646.203 344.857 628.931 359.097C611.658 373.339 587.382 385.424 557.833 394.783C498.735 413.5 418.639 421.278 331.56 413.66C244.481 406.042 166.953 384.473 112.004 355.778C84.5279 341.43 62.72 325.313 48.1819 308.288C33.6454 291.265 26.4023 273.368 27.9715 255.432C29.5408 237.495 39.7817 221.127 57.0533 206.887C74.3269 192.646 98.6023 180.56 128.152 171.202C187.25 152.485 267.345 144.706 354.424 152.325Z" stroke="url(#paint14_linear_50_555)" stroke-opacity="0.1"/>
<path d="M356.703 152.544C443.636 161.681 520.776 184.6 575.216 214.249C602.437 229.074 623.961 245.57 638.2 262.845C652.437 280.119 659.366 298.141 657.484 316.047C655.602 333.953 645.077 350.139 627.56 364.076C610.04 378.014 585.558 389.674 555.849 398.515C496.434 416.198 416.215 422.577 329.282 413.44C242.349 404.303 165.209 381.385 110.769 351.736C83.5475 336.911 62.0242 320.415 47.7855 303.139C33.5483 285.865 26.6186 267.844 28.5006 249.938C30.3826 232.032 40.9077 215.845 58.4252 201.909C75.9447 187.971 100.427 176.311 130.136 167.469C189.551 149.787 269.77 143.407 356.703 152.544Z" stroke="url(#paint15_linear_50_555)" stroke-opacity="0.1"/>
<path d="M358.978 152.803C445.738 163.456 522.466 187.718 576.38 218.312C603.339 233.61 624.571 250.479 638.506 268.001C652.44 285.52 659.054 303.66 656.859 321.53C654.665 339.401 643.859 355.401 626.101 369.03C608.341 382.66 583.659 393.891 553.8 402.213C494.086 418.855 413.767 423.834 327.007 413.181C240.247 402.529 163.519 378.267 109.604 347.672C82.646 332.374 61.4138 315.506 47.4787 297.984C33.5452 280.464 26.9311 262.325 29.1253 244.454C31.3196 226.584 42.1255 210.583 59.8836 196.955C77.6436 183.325 102.326 172.093 132.185 163.772C191.899 147.129 272.218 142.15 358.978 152.803Z" stroke="url(#paint16_linear_50_555)" stroke-opacity="0.1"/>
<path d="M361.247 153.102C447.808 165.268 524.101 190.864 577.474 222.395C604.161 238.162 625.096 255.398 638.723 273.16C652.348 290.921 658.645 309.173 656.139 327.002C653.633 344.832 642.55 360.641 624.557 373.958C606.561 387.276 581.687 398.075 551.687 405.874C491.691 421.472 411.298 425.048 324.738 412.883C238.177 400.717 161.884 375.12 108.511 343.589C81.8238 327.823 60.8893 310.587 47.2621 292.824C33.6364 275.064 27.3399 256.812 29.8457 238.983C32.3515 221.153 43.435 205.344 61.4283 192.027C79.4235 178.709 104.298 167.91 134.297 160.111C194.293 144.513 274.686 140.937 361.247 153.102Z" stroke="url(#paint17_linear_50_555)" stroke-opacity="0.1"/>
<path d="M363.511 153.44C449.847 167.114 525.681 194.039 578.496 226.497C604.904 242.726 625.534 260.325 638.849 278.323C652.163 296.318 658.14 314.677 655.323 332.46C652.507 350.244 641.149 365.857 622.926 378.858C604.701 391.86 579.642 402.222 549.511 409.497C489.252 424.046 408.809 426.218 322.473 412.544C236.138 398.87 160.303 371.945 107.489 339.488C81.0812 323.258 60.4506 305.659 47.1356 287.661C33.8219 269.666 27.8449 251.307 30.6615 233.524C33.4781 215.741 44.8358 200.127 63.0587 187.126C81.2836 174.125 106.343 163.762 136.474 156.487C196.733 141.939 277.176 139.766 363.511 153.44Z" stroke="url(#paint18_linear_50_555)" stroke-opacity="0.1"/>
<path d="M365.769 153.818C451.853 168.997 527.206 197.241 579.446 230.615C605.567 247.303 625.887 265.26 638.886 283.487C651.883 301.712 657.539 320.173 654.412 337.904C651.286 355.635 639.657 371.048 621.21 383.729C602.761 396.411 577.525 406.335 547.272 413.082C486.768 426.577 406.299 427.345 320.216 412.166C234.132 396.987 158.779 368.744 106.539 335.369C80.4184 318.681 60.0981 300.725 47.0992 282.497C34.1016 264.272 28.446 245.812 31.5725 228.081C34.699 210.349 46.3275 194.936 64.7745 182.256C83.2235 169.574 108.46 159.65 138.713 152.902C199.217 139.408 279.686 138.639 365.769 153.818Z" stroke="url(#paint19_linear_50_555)" stroke-opacity="0.1"/>
<path d="M368.02 154.236C453.826 170.915 528.675 200.47 580.324 234.751C606.149 251.892 626.153 270.2 638.832 288.652C651.509 307.101 656.842 325.657 653.407 343.331C649.971 361.005 638.075 376.213 619.41 388.57C600.742 400.928 575.337 410.409 544.97 416.628C484.24 429.065 403.77 428.429 317.965 411.75C232.159 395.071 157.31 365.516 105.661 331.235C79.8354 314.094 59.8317 295.785 47.1528 277.334C34.4753 258.885 29.1427 240.328 32.5782 222.654C36.0136 204.98 47.9094 189.773 66.5749 177.416C85.2424 165.058 110.648 155.576 141.014 149.358C201.745 136.921 282.215 137.557 368.02 154.236Z" stroke="url(#paint20_linear_50_555)" stroke-opacity="0.1"/>
<path d="M370.264 154.692C455.765 172.866 530.087 203.722 581.13 238.899C606.652 256.489 626.333 275.144 638.688 293.813C651.042 312.481 656.05 331.128 652.306 348.739C648.563 366.35 636.404 381.348 617.525 393.377C598.645 405.407 573.078 414.444 542.607 420.132C481.669 431.507 401.223 429.467 315.721 411.293C230.22 393.119 155.898 362.262 104.855 327.085C79.3328 309.496 59.6516 290.841 47.2967 272.171C34.9431 253.504 29.9351 234.857 33.6786 217.246C37.422 199.634 49.5813 184.636 68.4596 172.607C87.34 160.577 112.907 151.54 143.378 145.852C204.316 134.477 284.762 136.518 370.264 154.692Z" stroke="url(#paint21_linear_50_555)" stroke-opacity="0.1"/>
<path d="M372.499 155.187C457.67 174.851 531.441 207 581.863 243.062C607.074 261.094 626.427 280.09 638.454 298.972C650.48 317.853 655.162 336.584 651.112 354.127C647.062 371.671 634.642 386.454 615.557 398.152C596.47 409.851 570.748 418.44 540.184 423.595C479.056 433.905 398.658 430.461 313.486 410.797C228.315 391.134 154.543 358.985 104.122 322.922C78.9104 304.89 59.5578 285.895 47.5306 267.012C35.5047 248.132 30.8229 229.401 34.8731 211.857C38.9233 194.314 51.3425 179.531 70.4279 167.833C89.5154 156.134 115.237 147.545 145.801 142.39C206.929 132.08 287.327 135.524 372.499 155.187Z" stroke="url(#paint22_linear_50_555)" stroke-opacity="0.1"/>
<path d="M374.725 155.722C459.54 176.869 532.739 210.3 582.523 247.237C607.416 265.707 626.435 285.037 638.13 304.126C649.825 323.214 654.179 342.024 649.823 359.494C645.468 376.964 632.792 391.528 613.506 402.891C594.217 414.255 568.35 422.394 537.7 427.015C476.402 436.256 396.075 431.41 311.26 410.263C226.445 389.116 153.246 355.685 103.462 318.747C78.5685 300.278 59.5503 280.948 47.8545 261.858C36.1599 242.771 31.8058 223.961 36.1615 206.491C40.5173 189.021 53.1926 174.457 72.4793 163.094C91.768 151.73 117.635 143.59 148.285 138.97C209.583 129.728 289.91 134.575 374.725 155.722Z" stroke="url(#paint23_linear_50_555)" stroke-opacity="0.1"/>
<path d="M376.941 156.295C461.374 178.919 533.979 213.623 583.111 251.423C607.678 270.324 626.356 289.983 637.717 309.274C649.076 328.562 653.102 347.446 648.442 364.837C643.782 382.228 630.854 396.569 611.372 407.594C591.888 418.619 565.883 426.306 535.156 430.391C473.707 438.561 393.477 432.313 309.044 409.69C224.611 387.066 152.006 352.362 102.874 314.561C78.307 295.66 59.6292 276.001 48.2683 256.71C36.9086 237.422 32.8834 218.539 37.5434 201.147C42.2034 183.756 55.1309 169.415 74.613 158.391C94.0971 147.365 120.102 139.678 150.828 135.593C212.278 127.423 292.508 133.671 376.941 156.295Z" stroke="url(#paint24_linear_50_555)" stroke-opacity="0.1"/>
<path d="M379.147 156.907C463.172 181.001 535.16 216.967 583.625 255.619C607.859 274.946 626.191 294.928 637.213 314.414C648.234 333.898 651.929 352.848 646.967 370.156C642.004 387.463 628.828 401.576 609.156 412.259C589.483 422.943 563.347 430.175 532.555 433.723C470.972 440.819 390.863 433.172 306.838 409.078C222.813 384.984 150.824 349.019 102.36 310.366C78.1262 291.04 59.7943 271.057 48.7718 251.571C37.7504 232.087 34.0554 213.137 39.0182 195.829C43.981 178.522 57.1569 164.409 76.8284 153.726C96.5019 143.042 122.637 135.811 153.43 132.262C215.013 125.166 295.121 132.813 379.147 156.907Z" stroke="url(#paint25_linear_50_555)" stroke-opacity="0.1"/>
<path d="M381.342 157.557C464.934 183.114 536.283 220.33 584.066 259.822C607.959 279.569 625.939 299.868 636.62 319.544C647.299 339.217 650.663 358.229 645.399 375.447C640.135 392.665 626.715 406.546 606.86 416.884C587.003 427.223 560.745 433.998 529.895 437.008C468.198 443.028 388.235 433.984 304.643 408.428C221.051 382.871 149.701 345.654 101.918 306.162C78.0261 286.416 60.0457 266.116 49.3649 246.441C38.6853 226.768 35.3216 207.755 40.5857 190.537C45.8498 173.319 59.27 159.438 79.1249 149.1C98.9819 138.761 125.24 131.987 156.09 128.977C217.787 122.956 297.75 132 381.342 157.557Z" stroke="url(#paint26_linear_50_555)" stroke-opacity="0.1"/>
<path d="M383.525 158.245C466.658 185.257 537.348 223.713 584.434 264.033C607.978 284.194 625.601 304.804 635.937 324.663C646.272 344.519 649.303 363.587 643.739 380.711C638.176 397.835 624.515 411.479 604.483 421.469C584.448 431.46 558.077 437.775 527.179 440.246C465.386 445.189 385.593 434.751 302.46 407.739C219.326 380.728 148.637 342.272 101.551 301.952C78.0067 281.791 60.3833 261.181 50.0476 241.322C39.713 221.465 36.6816 202.397 42.2453 185.274C47.8091 168.15 61.4695 154.506 81.5018 144.516C101.536 134.525 127.908 128.21 158.806 125.738C220.599 120.796 300.392 131.234 383.525 158.245Z" stroke="url(#paint27_linear_50_555)" stroke-opacity="0.1"/>
<path d="M385.696 158.971C468.345 187.43 538.353 227.114 584.728 268.25C607.917 288.818 625.178 309.733 635.165 329.769C645.152 349.803 647.85 368.921 641.988 385.945C636.126 402.968 622.23 416.373 602.026 426.011C581.821 435.651 555.343 441.505 524.406 443.437C462.536 447.3 382.938 435.471 300.289 407.013C217.639 378.554 147.632 338.87 101.257 297.735C78.0681 277.166 60.8071 256.252 50.8195 236.215C40.833 216.181 38.1349 197.063 43.9966 180.04C49.8584 163.016 63.7549 149.612 83.9585 139.973C104.164 130.333 130.642 124.479 161.579 122.547C223.449 118.684 303.047 130.513 385.696 158.971Z" stroke="url(#paint28_linear_50_555)" stroke-opacity="0.1"/>
<path d="M387.854 159.736C469.994 189.633 539.298 230.533 584.949 272.471C607.775 293.442 624.668 314.654 634.304 334.861C643.94 355.067 646.304 374.229 640.146 391.148C633.988 408.067 619.86 421.226 599.491 430.511C579.12 439.797 552.544 445.187 521.578 446.579C459.65 449.362 380.271 436.146 298.131 406.249C215.991 376.353 146.687 335.453 101.036 293.514C78.2101 272.544 61.3167 251.332 51.6803 231.124C42.045 210.919 39.6809 191.757 45.8389 174.838C51.9969 157.919 66.1252 144.759 86.4939 135.475C106.865 126.189 133.441 120.798 164.406 119.407C226.334 116.623 305.714 129.84 387.854 159.736Z" stroke="url(#paint29_linear_50_555)" stroke-opacity="0.1"/>
<path d="M389.998 160.538C471.604 191.863 540.184 233.966 585.095 276.695C607.552 298.061 624.073 319.565 633.355 339.937C642.636 360.308 644.665 379.508 638.213 396.317C631.761 413.126 617.405 426.037 596.877 434.965C576.347 443.893 549.681 448.819 518.696 449.671C456.729 451.373 377.592 436.773 295.986 405.447C214.381 374.122 145.801 332.019 100.889 289.29C78.4327 267.924 61.9121 246.42 52.6299 226.048C43.3487 205.677 41.3194 186.477 47.7717 169.668C54.224 152.859 68.5798 139.948 89.1075 131.02C109.637 122.092 136.304 117.165 167.288 116.314C229.256 114.612 308.393 129.212 389.998 160.538Z" stroke="url(#paint30_linear_50_555)" stroke-opacity="0.1"/>
<path d="M392.128 161.377C473.175 194.122 541.009 237.415 585.168 280.922C607.249 302.676 623.392 324.465 632.317 344.996C641.241 365.525 642.935 384.758 636.19 401.452C629.446 418.146 614.867 430.804 594.186 439.372C573.504 447.941 546.756 452.401 515.761 452.712C453.773 453.332 374.903 437.353 293.856 404.608C212.81 371.863 144.976 328.57 100.816 285.063C78.736 263.309 62.5932 241.52 53.668 220.989C44.7436 200.46 43.0497 181.227 49.7945 164.533C56.5392 147.839 71.1181 135.181 91.7985 126.613C112.481 118.044 139.229 113.583 170.224 113.273C232.212 112.653 311.082 128.632 392.128 161.377Z" stroke="url(#paint31_linear_50_555)" stroke-opacity="0.1"/>
<path d="M394.243 162.253C474.706 196.407 541.775 240.878 585.168 285.149C606.865 307.285 622.625 329.352 631.191 350.036C639.755 370.718 641.113 389.978 634.078 406.551C627.043 423.125 612.246 435.527 591.419 443.733C570.59 451.939 543.768 455.932 512.772 455.701C450.784 455.24 372.204 437.887 291.741 403.732C211.279 369.578 144.21 325.107 100.817 280.837C79.1198 258.7 63.3598 236.633 54.7942 215.949C46.2295 195.267 44.8715 176.007 51.9066 159.434C58.9416 142.86 73.7392 130.458 94.566 122.253C115.395 114.046 142.217 110.053 173.212 110.284C235.201 110.746 313.781 128.098 394.243 162.253Z" stroke="url(#paint32_linear_50_555)" stroke-opacity="0.1"/>
<path d="M396.343 163.166C476.197 198.719 542.479 244.354 585.093 289.375C606.401 311.886 621.773 334.225 629.977 355.056C638.179 375.884 639.201 395.164 631.877 411.612C624.554 428.061 609.542 440.202 588.576 448.044C567.607 455.886 540.719 459.409 509.732 458.638C447.761 457.094 369.496 438.373 289.642 402.819C209.788 367.266 143.506 321.631 100.892 276.61C79.5839 254.099 64.2114 231.76 56.0081 210.929C47.8057 190.101 46.784 170.821 54.1072 154.372C61.4304 137.924 76.4423 125.782 97.409 117.941C118.378 110.099 145.266 106.575 176.252 107.347C238.224 108.89 316.488 127.612 396.343 163.166Z" stroke="url(#paint33_linear_50_555)" stroke-opacity="0.1"/>
<path d="M398.426 164.115C477.648 201.056 543.123 247.841 584.945 293.599C605.856 316.478 620.837 339.082 628.675 360.053C636.513 381.021 637.198 400.316 629.589 416.634C621.98 432.952 606.758 444.83 585.658 452.304C564.555 459.779 537.61 462.833 506.641 461.521C444.706 458.896 366.781 438.811 287.559 401.869C208.337 364.928 142.862 318.143 101.04 272.386C80.1283 249.506 65.148 226.902 57.3095 205.931C49.4718 184.963 48.7868 165.668 56.396 149.35C64.0051 133.032 79.2266 121.154 100.327 113.68C121.43 106.205 148.375 103.151 179.343 104.463C241.278 107.088 319.204 127.173 398.426 164.115Z" stroke="url(#paint34_linear_50_555)" stroke-opacity="0.1"/>
<path d="M400.492 165.101C479.057 203.419 543.706 251.339 584.723 297.82C605.232 321.061 619.816 343.924 627.287 365.028C634.757 386.129 635.106 405.434 627.213 421.616C619.32 437.799 603.894 449.409 582.666 456.514C561.436 463.619 534.442 466.203 503.501 464.35C441.621 460.645 364.058 439.203 285.493 400.885C206.928 362.566 142.279 314.646 101.262 268.165C80.7528 244.924 66.1692 222.062 58.6979 200.958C51.2274 179.856 50.8792 160.552 58.772 144.369C66.6648 128.186 82.0912 116.576 103.319 109.471C124.549 102.366 151.543 99.7825 182.484 101.635C244.364 105.34 321.927 126.782 400.492 165.101Z" stroke="url(#paint35_linear_50_555)" stroke-opacity="0.1"/>
<path d="M402.541 166.122C480.425 205.806 544.228 254.847 584.427 302.037C604.528 325.633 618.71 348.746 625.812 369.977C632.913 391.206 632.924 410.513 624.75 426.556C616.576 442.598 600.949 453.938 579.601 460.671C558.25 467.405 531.215 469.516 500.311 467.124C438.506 462.339 361.328 439.547 283.444 399.863C205.56 360.179 141.757 311.138 101.557 263.949C81.4571 240.353 67.2748 217.24 60.1729 196.009C53.0717 174.78 53.0606 155.472 61.2346 139.43C69.4086 123.388 85.0353 112.048 106.384 105.315C127.734 98.5812 154.77 96.4694 185.674 98.8618C247.479 103.646 324.657 126.438 402.541 166.122Z" stroke="url(#paint36_linear_50_555)" stroke-opacity="0.1"/>
<path d="M404.571 167.179C481.751 208.216 544.689 258.363 584.058 306.247C603.744 330.19 617.52 353.547 624.251 374.899C630.98 396.249 630.654 415.553 622.202 431.451C613.749 447.348 597.927 458.413 576.464 464.773C554.999 471.133 527.931 472.772 497.074 469.841C435.361 463.978 358.593 439.843 281.413 398.806C204.233 357.768 141.296 307.621 101.927 259.738C82.2411 235.795 68.4643 212.438 61.734 191.086C55.0045 169.736 55.3303 150.431 63.783 134.534C72.2358 118.637 88.058 107.572 109.521 101.212C130.986 94.852 158.053 93.2123 188.911 96.1437C250.624 102.006 327.392 126.142 404.571 167.179Z" stroke="url(#paint37_linear_50_555)" stroke-opacity="0.1"/>
<path d="M406.583 168.271C483.035 210.649 545.088 261.887 583.616 310.451C602.88 334.733 616.247 358.327 622.604 379.793C628.96 401.257 628.297 420.553 619.568 436.301C610.839 452.048 594.826 462.835 573.256 468.819C551.683 474.804 524.591 475.971 493.789 472.501C432.188 465.563 355.853 440.091 279.401 397.713C202.95 355.335 140.897 304.097 102.369 255.534C83.1045 231.251 69.7375 207.657 63.3809 186.191C57.0249 164.727 57.6876 145.431 66.4165 129.684C75.1454 113.936 91.1583 103.149 112.729 97.165C134.301 91.1805 161.394 90.0134 192.195 93.4829C253.796 100.422 330.131 125.893 406.583 168.271Z" stroke="url(#paint38_linear_50_555)" stroke-opacity="0.1"/>
<path d="M408.576 169.399C484.276 213.105 545.425 265.418 583.1 314.646C601.938 339.262 614.891 363.085 620.872 384.659C626.852 406.23 625.853 425.512 616.851 441.105C607.848 456.697 591.649 467.204 569.978 472.81C548.304 478.417 521.195 479.111 490.459 475.105C428.988 467.092 353.11 440.292 277.409 396.586C201.708 352.881 140.56 300.568 102.885 251.339C84.0472 226.724 71.0939 202.9 65.1129 181.326C59.1326 159.755 60.1319 140.473 69.1343 124.88C78.1367 109.288 94.3354 98.7816 116.007 93.1751C137.681 87.5679 164.789 86.8739 195.526 90.8804C256.996 98.8931 332.875 125.693 408.576 169.399Z" stroke="url(#paint39_linear_50_555)" stroke-opacity="0.1"/>
<path d="M410.548 170.561C485.475 215.581 545.701 268.953 582.511 318.832C600.916 343.772 613.452 367.818 619.055 389.493C624.658 411.166 623.323 430.427 614.049 445.86C604.776 461.293 588.397 471.515 566.631 476.743C544.862 481.971 517.746 482.191 487.084 477.649C425.762 468.565 350.363 440.445 275.437 395.424C200.51 350.404 140.284 297.032 103.474 247.153C85.0687 222.213 72.5332 198.167 66.9296 176.492C61.3266 154.82 62.6623 135.558 71.9355 120.125C81.2086 104.692 97.5883 94.47 119.354 89.2426C141.123 84.0145 168.239 83.7937 198.901 88.336C260.223 97.4203 335.622 125.54 410.548 170.561Z" stroke="url(#paint40_linear_50_555)" stroke-opacity="0.1"/>
<path d="M412.5 171.756C486.629 218.077 545.915 272.492 581.849 323.006C599.816 348.264 611.93 372.525 617.155 394.294C622.378 416.061 620.707 435.296 611.166 450.565C601.625 465.834 585.069 475.769 563.215 480.616C541.359 485.463 514.242 485.21 483.665 480.134C422.511 469.981 347.614 440.549 273.485 394.228C199.355 347.907 140.07 293.491 104.136 242.978C86.1687 217.72 74.0548 193.459 68.8304 171.69C63.6065 149.923 65.2781 130.688 74.8192 115.419C84.3603 100.15 100.916 90.2152 122.77 85.3684C144.626 80.5211 171.742 80.7735 202.32 85.8503C263.474 96.0034 338.371 125.435 412.5 171.756Z" stroke="url(#paint41_linear_50_555)" stroke-opacity="0.1"/>
<path d="M414.431 172.987C487.74 220.594 546.068 276.036 581.114 327.169C598.638 352.736 610.327 377.205 615.17 399.062C620.014 420.917 618.006 440.12 608.2 455.22C598.394 470.32 581.668 479.965 559.733 484.429C537.795 488.894 510.687 488.169 480.202 482.559C419.236 471.34 344.863 440.606 271.554 392.998C198.244 345.39 139.917 289.949 104.871 238.816C87.3469 213.248 75.6583 188.779 70.8146 166.922C65.9714 145.067 67.9784 125.864 77.7846 110.764C87.5907 95.6642 104.317 86.0201 126.252 81.5554C148.19 77.0903 175.298 77.816 205.782 83.4256C266.749 94.6444 341.121 125.379 414.431 172.987Z" stroke="url(#paint42_linear_50_555)" stroke-opacity="0.1"/>
<path d="M416.34 174.25C488.807 223.13 546.158 279.581 580.307 331.318C597.382 357.187 608.642 381.857 613.103 403.795C617.564 425.731 615.222 444.896 605.154 459.823C595.086 474.749 578.194 484.1 556.184 488.181C534.172 492.263 507.081 491.064 476.699 484.923C415.937 472.642 342.112 440.614 269.645 391.734C197.177 342.855 139.827 286.403 105.678 234.667C88.603 208.797 77.3432 184.128 72.8817 162.19C68.4206 140.254 70.7625 121.089 80.8307 106.162C90.8988 91.2353 107.791 81.8846 129.801 77.8035C151.813 73.7218 178.904 74.9205 209.286 81.0613C270.048 93.3425 343.872 125.37 416.34 174.25Z" stroke="url(#paint43_linear_50_555)" stroke-opacity="0.1"/>
<path d="M418.227 175.547C489.83 225.684 546.187 283.127 579.427 335.452C596.048 361.615 606.876 386.478 610.954 408.49C615.031 430.501 612.355 449.622 602.028 464.371C591.701 479.119 574.648 488.174 552.57 491.87C530.49 495.567 503.424 493.896 473.154 487.226C412.616 473.886 339.362 440.575 267.758 390.438C196.155 340.3 139.798 282.857 106.558 230.532C89.9367 204.369 79.1091 179.507 75.0312 157.494C70.9536 135.483 73.6297 116.362 83.9568 101.613C94.2839 86.8647 111.337 77.8102 133.414 74.1138C155.495 70.417 182.56 72.0882 212.831 78.7584C273.369 92.0981 346.623 125.409 418.227 175.547Z" stroke="url(#paint44_linear_50_555)" stroke-opacity="0.1"/>
<path d="M420.09 176.876C490.808 228.255 546.153 286.674 578.476 339.571C594.637 366.02 605.029 391.067 608.723 413.148C612.415 435.226 609.406 454.298 598.823 468.864C588.24 483.43 571.032 492.186 548.893 495.496C526.752 498.807 499.719 496.664 469.57 489.467C409.274 475.072 336.612 440.488 265.895 389.108C195.177 337.729 139.831 279.311 107.509 226.414C91.3474 199.964 80.9554 174.917 77.2622 152.837C73.5694 130.758 76.5788 111.687 87.1617 97.1204C97.7447 82.5542 114.953 73.7987 137.092 70.4882C159.233 67.1773 186.266 69.3207 216.415 76.5181C276.711 90.9123 349.373 125.497 420.09 176.876Z" stroke="url(#paint45_linear_50_555)" stroke-opacity="0.1"/>
<path d="M421.931 178.238C491.741 230.844 546.058 290.219 577.452 343.672C593.15 370.4 603.103 395.625 606.411 417.766C609.718 439.906 606.376 458.922 595.54 473.301C584.705 487.68 567.346 496.134 545.153 499.058C522.957 501.982 495.966 499.367 465.947 491.645C405.911 476.2 333.864 440.353 264.054 387.747C194.244 335.142 139.927 275.766 108.532 222.313C92.8347 195.586 82.8814 170.361 79.5742 148.219C76.2673 126.08 79.609 107.064 90.4446 92.6843C101.28 78.305 118.639 69.8512 140.832 66.9275C163.027 64.0035 190.019 66.6184 220.038 74.3409C280.073 89.7852 352.121 125.633 421.931 178.238Z" stroke="url(#paint46_linear_50_555)" stroke-opacity="0.1"/>
<path d="M423.747 179.632C492.628 233.448 545.901 293.762 576.358 347.755C591.586 374.752 601.098 400.147 604.018 422.343C606.938 444.537 603.265 463.492 592.18 477.68C581.096 491.867 563.592 500.017 541.351 502.553C519.108 505.089 492.167 502.004 462.287 493.758C402.53 477.269 331.119 440.169 262.238 386.353C193.357 332.537 140.084 272.223 109.627 218.23C94.3983 191.233 84.8867 165.838 81.9664 143.642C79.0464 121.448 82.7195 102.493 93.8043 88.3054C104.889 74.1175 122.393 65.9679 144.633 63.432C166.877 60.8958 193.818 63.9813 223.698 72.2265C283.455 88.7163 354.865 125.816 423.747 179.632Z" stroke="url(#paint47_linear_50_555)" stroke-opacity="0.1"/>
<path d="M425.538 181.057C493.47 236.066 545.682 297.301 575.192 351.817C589.947 379.076 599.014 404.633 601.547 426.877C604.079 449.118 600.076 468.006 588.745 481.999C577.414 495.991 559.771 503.834 537.489 505.981C515.205 508.129 488.322 504.574 458.59 495.808C399.13 478.278 328.378 439.938 260.447 384.928C192.515 329.918 140.303 268.683 110.793 214.167C96.0377 186.908 86.9708 161.351 84.4383 139.108C81.906 116.866 85.9094 97.9783 97.2401 83.986C108.571 69.9936 126.214 62.1507 148.496 60.0034C170.78 57.8558 197.663 61.411 227.394 70.1765C286.855 87.7066 357.607 126.047 425.538 181.057Z" stroke="url(#paint48_linear_50_555)" stroke-opacity="0.1"/>
<path d="M427.305 182.513C494.266 238.7 545.402 300.837 573.955 355.86C588.233 383.372 596.852 409.083 598.996 431.368C601.14 453.65 596.807 472.465 585.234 486.258C573.661 500.05 555.884 507.584 533.568 509.342C511.25 511.101 484.432 507.077 454.859 497.794C395.713 479.228 325.641 439.659 258.68 383.472C191.719 327.285 140.583 265.149 112.03 210.126C97.7522 182.613 89.1327 156.902 86.9888 134.618C84.8451 112.336 89.1774 93.5203 100.751 79.7278C112.324 65.9354 130.101 58.4016 152.417 56.6435C174.735 54.8851 201.552 58.909 231.126 68.192C290.271 86.7572 360.344 126.326 427.305 182.513Z" stroke="url(#paint49_linear_50_555)" stroke-opacity="0.1"/>
<path d="M429.046 184C495.016 241.347 545.059 304.367 572.648 359.88C586.443 387.637 594.613 413.495 596.368 435.813C598.122 458.129 593.462 476.866 581.65 490.455C569.838 504.043 551.932 511.265 529.589 512.634C507.243 514.002 480.5 509.511 451.093 499.713C392.281 480.119 322.91 439.333 256.939 381.986C190.969 324.638 140.925 261.619 113.336 206.106C99.5413 178.349 91.3719 152.491 89.6172 130.172C87.8627 107.856 92.5228 89.1195 104.335 75.5311C116.147 61.9427 134.053 54.7203 156.396 53.3519C178.742 51.9834 205.485 56.4746 234.892 66.2723C293.704 85.8669 363.075 126.653 429.046 184Z" stroke="url(#paint50_linear_50_555)" stroke-opacity="0.1"/>
<path d="M430.76 185.517C495.72 244.006 544.656 307.89 571.272 363.876C584.58 391.87 592.297 417.866 593.662 440.212C595.027 462.555 590.04 481.208 577.993 494.588C565.945 507.968 547.916 514.877 525.552 515.855C503.186 516.833 476.526 511.876 447.294 501.567C388.833 480.949 320.184 438.958 255.225 380.468C190.265 321.979 141.329 258.095 114.713 202.109C101.405 174.115 93.6877 148.119 92.3229 125.773C90.9581 103.43 95.9445 84.7774 107.992 71.3972C120.04 58.0171 138.069 51.1083 160.432 50.1301C182.798 49.1517 209.459 54.109 238.691 64.4184C297.152 85.0365 365.801 127.027 430.76 185.517Z" stroke="url(#paint51_linear_50_555)" stroke-opacity="0.1"/>
<path d="M432.448 187.063C496.377 246.678 544.19 311.406 569.825 367.847C582.643 396.069 589.905 422.196 590.88 444.563C591.854 466.926 586.543 485.489 574.264 498.657C561.985 511.825 543.838 518.418 521.461 519.006C499.081 519.594 472.511 514.172 443.464 503.354C385.371 481.719 317.466 438.536 253.537 378.922C189.608 319.307 141.794 254.58 116.16 198.138C103.342 169.916 96.0796 143.789 95.1049 121.423C94.1303 99.0588 99.4415 80.4961 111.721 67.3283C124 54.1604 142.147 47.5673 164.524 46.9795C186.904 46.3916 213.474 51.8135 242.521 62.6315C300.614 84.2667 368.519 127.449 432.448 187.063Z" stroke="url(#paint52_linear_50_555)" stroke-opacity="0.1"/>
<path d="M434.108 188.639C496.987 249.36 543.664 314.912 568.31 371.793C580.633 400.234 587.438 426.484 588.022 448.864C588.606 471.241 582.972 489.709 570.465 502.66C557.958 515.612 539.699 521.887 517.314 522.084C494.928 522.281 468.457 516.397 439.602 505.073C381.896 482.428 314.755 438.067 251.876 377.346C188.998 316.625 142.321 251.072 117.675 194.192C105.352 165.75 98.5466 139.501 97.9624 117.121C97.3783 94.7434 103.013 76.2762 115.52 63.3246C128.027 50.3731 146.286 44.0977 168.67 43.9005C191.057 43.7033 217.528 49.588 246.382 60.9114C304.089 83.5571 371.23 127.918 434.108 188.639Z" stroke="url(#paint53_linear_50_555)" stroke-opacity="0.1"/>
<path d="M435.741 190.244C497.551 252.053 543.076 318.41 566.726 375.712C578.551 404.364 584.897 430.729 585.09 453.115C585.284 475.499 579.328 493.865 566.597 506.597C553.865 519.328 535.499 525.284 513.115 525.09C490.729 524.897 464.364 518.551 435.712 506.726C378.41 483.076 312.053 437.551 250.243 375.741C188.434 313.932 142.909 247.575 119.259 190.273C107.434 161.621 101.088 135.256 100.895 112.87C100.701 90.4856 106.657 72.1196 119.388 59.3883C132.119 46.657 150.485 40.7013 172.87 40.8948C195.256 41.0883 221.621 47.4341 250.273 59.2593C307.575 82.9087 373.932 128.434 435.741 190.244Z" stroke="url(#paint54_linear_50_555)" stroke-opacity="0.1"/>
<path d="M437.346 191.876C498.067 254.755 542.428 321.896 565.073 379.602C576.397 408.457 582.281 434.928 582.084 457.314C581.887 479.699 575.612 497.958 562.66 510.465C549.709 522.972 531.241 528.606 508.864 528.022C486.484 527.438 460.234 520.633 431.793 508.31C374.912 483.664 309.36 436.987 248.639 374.108C187.918 311.23 143.557 244.089 120.911 186.382C109.588 157.528 103.703 131.057 103.901 108.67C104.098 86.2863 110.373 68.027 123.325 55.5198C136.276 43.0126 154.743 37.3783 177.121 37.9624C199.501 38.5466 225.75 45.3516 254.192 57.675C311.072 82.3209 376.625 128.998 437.346 191.876Z" stroke="url(#paint55_linear_50_555)" stroke-opacity="0.1"/>
<path d="M438.922 193.537C498.536 257.466 541.718 325.371 563.354 383.464C574.172 412.511 579.593 439.081 579.006 461.461C578.418 483.838 571.825 501.985 558.657 514.264C545.489 526.544 526.926 531.855 504.562 530.88C482.196 529.906 456.069 522.643 427.847 509.826C371.405 484.191 306.678 436.377 247.063 372.448C187.449 308.519 144.267 240.614 122.631 182.522C111.813 153.474 106.392 126.904 106.979 104.525C107.567 82.1472 114.16 64.0003 127.328 51.721C140.496 39.4418 159.059 34.1306 181.422 35.1052C203.789 36.0799 229.916 43.342 258.138 56.1599C314.58 81.7947 379.307 129.608 438.922 193.537Z" stroke="url(#paint56_linear_50_555)" stroke-opacity="0.1"/>
<path d="M440.468 195.225C498.958 260.184 540.949 328.833 561.567 387.294C571.876 416.526 576.833 443.186 575.855 465.552C574.877 487.916 567.968 505.945 554.588 517.993C541.208 530.04 522.555 535.027 500.212 533.662C477.866 532.297 451.87 524.58 423.876 511.271C367.89 484.656 304.006 435.719 245.517 370.76C187.027 305.801 145.036 237.152 124.418 178.691C114.109 149.459 109.152 122.798 110.13 100.432C111.108 78.0687 118.017 60.0395 131.397 47.992C144.777 35.9444 163.43 30.958 185.773 32.3228C208.119 33.6877 234.115 41.4046 262.109 54.7131C318.095 81.3291 381.979 130.265 440.468 195.225Z" stroke="url(#paint57_linear_50_555)" stroke-opacity="0.1"/>
<path d="M441.985 196.939C499.332 262.91 540.118 332.281 559.713 391.093C569.511 420.5 574.002 447.243 572.633 469.589C571.265 491.932 564.043 509.838 550.454 521.65C536.866 533.462 518.129 538.122 495.813 536.368C473.494 534.613 447.637 526.444 419.879 512.648C364.366 485.06 301.347 435.016 244 369.046C186.652 303.075 145.867 233.704 126.272 174.892C116.474 145.485 111.983 118.742 113.352 96.3963C114.72 74.0531 121.942 56.1473 135.531 44.3351C149.119 32.5228 167.856 27.8628 190.172 29.6173C212.491 31.3719 238.348 39.5414 266.106 53.3364C321.619 80.9254 384.638 130.969 441.985 196.939Z" stroke="url(#paint58_linear_50_555)" stroke-opacity="0.1"/>
<path d="M443.472 198.68C499.659 265.641 539.228 335.713 557.793 394.859C567.076 424.433 571.1 451.25 569.342 473.568C567.584 495.884 560.05 513.661 546.257 525.234C532.465 536.807 513.65 541.14 491.368 538.996C469.083 536.852 443.372 528.233 415.859 513.955C360.836 485.402 298.7 434.266 242.513 367.305C186.326 300.344 146.757 230.271 128.192 171.126C118.909 141.552 114.885 114.735 116.643 92.4169C118.401 70.101 125.935 52.324 139.727 40.7507C153.52 29.1775 172.335 24.8451 194.617 26.9888C216.902 29.1327 242.613 37.7522 270.125 52.0295C325.148 80.5832 387.285 131.719 443.472 198.68Z" stroke="url(#paint59_linear_50_555)" stroke-opacity="0.1"/>
<path d="M444.928 200.447C499.938 268.378 538.278 339.13 555.808 398.591C564.574 428.322 568.129 455.205 565.981 477.49C563.834 499.771 555.991 517.414 541.999 528.745C528.006 540.076 509.118 544.079 486.877 541.547C464.633 539.014 439.077 529.948 411.817 515.192C357.301 485.683 296.067 433.47 241.057 365.539C186.047 297.607 147.707 226.855 130.177 167.395C121.411 137.663 117.856 110.78 120.004 88.4958C122.151 66.2141 129.994 48.5712 143.986 37.2404C157.978 25.9096 176.866 21.9063 199.108 24.4385C221.351 26.971 246.908 36.0379 274.167 50.7933C328.684 80.3028 389.918 132.515 444.928 200.447Z" stroke="url(#paint60_linear_50_555)" stroke-opacity="0.1"/>
<path d="M446.353 202.238C500.169 271.119 537.269 342.53 553.758 402.287C562.004 432.167 565.089 459.108 562.553 481.352C560.017 503.592 551.867 521.096 537.679 532.181C523.491 543.265 504.537 546.939 482.343 544.019C460.147 541.098 434.752 531.587 407.755 516.358C353.762 485.901 293.448 432.628 239.632 363.747C185.816 294.866 148.716 223.455 132.226 163.698C123.981 133.818 120.896 106.877 123.432 84.6336C125.968 62.3927 134.117 44.8894 148.305 33.8045C162.493 22.7196 181.448 19.0466 203.642 21.9666C225.838 24.8869 251.233 34.3984 278.23 49.6273C332.223 80.0838 392.537 133.357 446.353 202.238Z" stroke="url(#paint61_linear_50_555)" stroke-opacity="0.1"/>
<path d="M447.747 204.055C500.353 273.865 536.2 345.912 551.644 405.948C559.367 435.967 561.982 462.958 559.058 485.153C556.134 507.347 547.68 524.705 533.301 535.541C518.922 546.376 499.906 549.718 477.766 546.411C455.624 543.104 430.4 533.15 403.672 517.453C350.219 486.059 290.844 431.741 238.238 361.931C185.632 292.121 149.785 220.074 134.341 160.038C126.618 130.019 124.003 103.028 126.927 80.8322C129.851 58.6389 138.305 41.2805 152.684 30.4449C167.063 19.6094 186.079 16.2677 208.219 19.5746C230.361 22.8818 255.585 32.8351 282.313 48.5328C335.766 79.927 395.141 134.245 447.747 204.055Z" stroke="url(#paint62_linear_50_555)" stroke-opacity="0.1"/>
<path d="M449.109 205.895C500.488 276.612 535.072 349.274 549.467 409.57C556.664 439.72 558.807 466.752 555.497 488.894C552.186 511.032 543.431 528.241 528.864 538.824C514.298 549.407 495.227 552.416 473.148 548.723C451.068 545.03 426.02 534.638 399.571 518.476C346.674 486.154 288.256 430.808 236.876 360.091C185.497 289.373 150.912 216.712 136.518 156.415C129.321 126.266 127.177 99.2334 130.488 77.0922C133.799 54.9533 142.554 37.7451 157.121 27.1621C171.687 16.5792 190.758 13.5699 212.837 17.2626C234.917 20.9558 259.965 31.3478 286.414 47.5096C339.311 79.8319 397.729 135.178 449.109 205.895Z" stroke="url(#paint63_linear_50_555)" stroke-opacity="0.1"/>
<path d="M450.438 207.758C500.575 279.362 533.886 352.616 547.226 413.154C553.896 443.425 555.568 470.491 551.871 492.571C548.174 514.648 539.12 531.701 524.371 542.028C509.623 552.355 490.501 555.031 468.491 550.954C446.478 546.876 421.616 536.048 395.452 519.427C343.127 486.187 285.684 429.83 235.547 358.227C185.41 286.623 152.098 213.369 138.759 152.831C132.089 122.561 130.417 95.4947 134.114 73.4146C137.811 51.3369 146.865 34.2841 161.614 23.957C176.362 13.6299 195.484 10.9538 217.494 15.0314C239.507 19.1093 264.369 29.9369 290.532 46.5578C342.857 79.7984 400.301 136.155 450.438 207.758Z" stroke="url(#paint64_linear_50_555)" stroke-opacity="0.1"/>
<path d="M451.735 209.645C500.615 282.113 532.642 355.937 544.923 416.699C551.064 447.081 552.263 474.172 548.181 496.184C544.1 518.194 534.749 535.086 519.823 545.154C504.896 555.222 485.731 557.564 463.795 553.103C441.857 548.642 417.187 537.382 391.318 520.307C339.581 486.158 283.13 428.808 234.25 356.34C185.37 283.873 153.343 210.048 141.061 149.286C134.921 118.904 133.722 91.8133 137.804 69.801C141.885 47.7912 151.235 30.899 166.162 20.8308C181.089 10.7627 200.254 8.4208 222.19 12.8818C244.128 17.3434 268.797 28.6032 294.667 45.6782C346.404 79.8269 402.855 137.178 451.735 209.645Z" stroke="url(#paint65_linear_50_555)" stroke-opacity="0.1"/>
<path d="M452.998 211.554C500.606 284.863 531.34 359.236 542.559 420.203C548.169 450.687 548.894 477.795 544.429 499.733C539.965 521.668 530.321 538.394 515.22 548.2C500.12 558.007 480.917 560.014 459.063 555.17C437.205 550.327 412.736 538.638 387.169 521.114C336.036 486.068 280.594 427.741 232.987 354.431C185.379 281.122 154.645 206.749 143.426 145.782C137.816 115.298 137.09 88.1901 141.556 66.2524C146.02 44.3172 155.664 27.5908 170.764 17.7846C185.864 7.97853 205.067 5.97147 226.922 10.8147C248.779 15.6584 273.248 27.347 298.816 44.8709C349.949 79.9173 405.39 138.244 452.998 211.554Z" stroke="url(#paint66_linear_50_555)" stroke-opacity="0.1"/>
<path d="M454.228 213.485C500.549 287.614 529.981 362.511 540.134 423.665C545.211 454.243 545.463 481.359 540.616 503.215C535.769 525.069 525.835 541.625 510.566 551.166C495.297 560.707 476.062 562.379 454.295 557.155C432.525 551.93 408.264 539.816 383.006 521.849C332.493 485.915 278.078 426.63 231.757 352.5C185.436 278.371 156.004 203.474 145.851 142.32C140.774 111.743 140.522 84.6263 145.369 62.7699C150.216 40.9159 160.15 24.3603 175.419 14.8192C190.688 5.27815 209.923 3.60653 231.69 8.83042C253.459 14.0549 277.721 26.1688 302.978 44.1362C353.492 80.0697 407.907 139.356 454.228 213.485Z" stroke="url(#paint67_linear_50_555)" stroke-opacity="0.1"/>
<path d="M455.424 215.437C500.445 290.363 528.565 365.762 537.649 427.084C542.191 457.746 541.97 484.862 536.742 506.631C531.515 528.397 521.293 544.776 505.86 554.05C490.427 563.323 471.165 564.658 449.493 559.055C427.818 553.452 403.772 540.916 378.832 522.511C328.953 485.701 275.581 425.475 230.561 350.548C185.54 275.622 157.42 200.223 148.336 138.901C143.794 108.239 144.014 81.1228 149.242 59.3544C154.47 37.5883 164.692 21.2087 180.125 11.9355C195.558 2.66235 214.819 1.32668 236.492 6.92965C258.167 12.5332 282.213 25.0687 307.153 43.4742C357.032 80.2838 410.404 140.51 455.424 215.437Z" stroke="url(#paint68_linear_50_555)" stroke-opacity="0.1"/>
<path d="M456.586 217.41C500.292 293.11 527.092 368.989 535.105 430.459C539.111 461.196 538.417 488.304 532.81 509.978C527.203 531.65 516.697 547.849 501.104 556.851C485.512 565.853 466.23 566.853 444.659 560.872C423.085 554.891 399.261 541.938 374.646 523.1C325.417 485.426 273.104 424.277 229.399 348.576C185.693 272.876 158.893 196.997 150.88 135.526C146.874 104.79 147.568 77.6814 153.175 56.0075C158.781 34.3359 169.288 18.1372 184.88 9.13479C200.473 0.132392 219.755 -0.86692 241.326 5.11344C262.9 11.0944 286.723 24.0477 311.339 42.8856C360.567 80.5601 412.88 141.709 456.586 217.41Z" stroke="url(#paint69_linear_50_555)" stroke-opacity="0.1"/>
<path d="M457.713 219.401C500.091 295.853 525.563 372.188 532.502 433.789C535.971 464.591 534.804 491.683 528.82 513.256C522.836 534.826 512.048 550.839 496.301 559.568C480.554 568.297 461.257 568.96 439.794 562.604C418.328 556.247 394.734 542.88 370.451 523.616C321.887 485.088 270.649 423.035 228.271 346.583C185.893 270.131 160.422 193.796 153.483 132.195C150.014 101.394 151.181 74.3014 157.165 52.7287C163.149 31.1583 173.937 15.1454 189.684 6.4165C205.431 -2.3124 224.727 -2.97505 246.191 3.38088C267.657 9.73748 291.251 23.1045 315.534 42.3692C364.098 80.8971 415.335 142.95 457.713 219.401Z" stroke="url(#paint70_linear_50_555)" stroke-opacity="0.1"/>
<path d="M458.806 221.413C499.843 298.593 523.979 375.361 529.841 437.074C532.772 467.931 531.133 494.999 524.773 516.464C518.413 537.927 507.348 553.749 491.451 562.202C475.553 570.654 456.249 570.98 434.899 564.251C413.547 557.52 390.19 543.744 366.247 524.058C318.363 484.688 268.216 421.751 227.179 344.571C186.142 267.392 162.006 190.624 156.144 128.911C153.212 98.0534 154.852 70.9856 161.212 49.5206C167.572 28.0579 178.637 12.2357 194.534 3.78294C210.431 -4.6698 229.736 -4.99558 251.086 1.73397C272.438 8.46424 295.795 22.241 319.738 41.9266C367.622 81.2961 417.769 144.233 458.806 221.413Z" stroke="url(#paint71_linear_50_555)" stroke-opacity="0.1"/>
<path d="M459.863 223.444C499.547 301.329 522.339 378.506 527.124 440.312C529.516 471.216 527.404 498.251 520.67 519.601C513.937 540.95 502.598 556.577 486.555 564.751C470.513 572.925 451.205 572.913 429.976 565.812C408.745 558.71 385.632 544.528 362.036 524.428C314.847 484.228 265.806 420.426 226.122 342.541C186.438 264.657 163.646 187.48 158.861 125.674C156.469 94.7699 158.581 67.7348 165.315 46.3841C172.048 25.0357 183.387 9.40899 199.43 1.23499C215.472 -6.93902 234.78 -6.92784 256.008 0.173289C277.24 7.27518 300.353 21.4575 323.948 41.5579C371.138 81.7572 420.179 145.56 459.863 223.444Z" stroke="url(#paint72_linear_50_555)" stroke-opacity="0.1"/>
<path d="M460.884 225.493C499.203 304.058 520.645 381.621 524.35 443.501C526.203 474.442 523.619 501.436 516.514 522.666C509.409 543.894 497.799 559.32 481.616 567.213C465.433 575.106 446.129 574.757 425.027 567.287C403.923 559.816 381.061 545.232 357.82 524.723C311.339 483.706 263.419 419.057 225.1 340.492C186.782 261.927 165.34 184.364 161.635 122.484C159.782 91.5429 162.366 64.5488 169.471 43.3189C176.576 22.0912 188.186 6.66477 204.369 -1.22801C220.551 -9.12079 239.856 -8.77265 260.958 -1.30211C282.061 6.16923 304.924 20.7528 328.165 41.2619C374.646 82.2786 422.566 146.928 460.884 225.493Z" stroke="url(#paint73_linear_50_555)" stroke-opacity="0.1"/>
<path d="M461.87 227.559C498.812 306.781 518.896 384.706 521.521 446.641C522.833 477.61 519.779 504.555 512.305 525.658C504.831 546.758 492.952 561.979 476.635 569.589C460.317 577.198 441.021 576.513 420.053 568.675C399.083 560.837 376.479 545.856 353.599 524.945C307.841 483.123 261.057 417.647 224.115 338.426C187.173 259.204 167.089 181.278 164.464 119.343C163.151 88.3744 166.206 61.4295 173.68 40.3268C181.154 19.2264 193.032 4.00493 209.35 -3.60422C225.668 -11.2134 244.964 -10.5284 265.932 -2.6907C286.902 5.14781 309.506 20.1281 332.386 41.0398C378.144 82.8614 424.928 148.337 461.87 227.559Z" stroke="url(#paint74_linear_50_555)" stroke-opacity="0.1"/>
<path d="M462.819 229.642C498.373 309.496 517.094 387.761 518.638 449.732C519.409 480.719 515.886 507.607 508.044 528.576C500.203 549.542 488.061 564.554 471.612 571.877C455.164 579.201 435.884 578.179 415.056 569.977C394.225 561.773 371.886 546.401 349.375 525.093C304.354 482.479 258.719 416.197 223.166 336.343C187.612 256.488 168.89 178.224 167.347 116.252C166.575 85.2655 170.099 58.378 177.941 37.409C185.782 16.4422 197.924 1.43039 214.372 -5.89282C230.821 -13.216 250.101 -12.1944 270.929 -3.99196C291.76 4.21134 314.099 19.5839 336.61 40.8916C381.631 83.5055 427.266 149.788 462.819 229.642Z" stroke="url(#paint75_linear_50_555)" stroke-opacity="0.1"/>
<path d="M463.732 231.741C497.886 312.204 515.239 390.783 515.701 452.772C515.932 483.768 511.939 510.59 503.732 531.419C495.527 552.246 483.125 567.043 466.551 574.078C449.978 581.113 430.718 579.755 410.036 571.191C389.352 562.625 367.284 546.865 345.148 525.168C300.878 481.774 256.407 414.706 222.253 334.243C188.098 253.781 170.745 175.201 170.284 113.212C170.053 82.2168 174.046 55.3949 182.252 34.5659C190.458 13.7392 202.86 -1.05844 219.434 -8.09347C236.007 -15.1285 255.267 -13.7705 275.949 -5.20585C296.633 3.35975 318.7 19.1198 340.836 40.8172C385.107 84.2103 429.578 151.279 463.732 231.741Z" stroke="url(#paint76_linear_50_555)" stroke-opacity="0.1"/>
<path d="M464.608 233.857C497.353 314.904 513.332 393.774 512.712 455.761C512.401 486.756 507.941 513.504 499.372 534.187C490.804 554.867 478.146 569.446 461.452 576.191C444.758 582.936 425.525 581.242 404.996 572.318C384.465 563.392 362.676 547.249 340.922 525.169C297.415 481.01 254.122 413.176 221.377 332.129C188.632 251.082 172.653 172.212 173.273 110.225C173.583 79.2299 178.044 52.4817 186.613 31.7991C195.181 11.1188 207.839 -3.46015 224.533 -10.2049C241.227 -16.9496 260.46 -15.2557 280.989 -6.33135C301.52 2.59393 323.309 18.7367 345.063 40.8171C388.57 84.9763 431.863 152.811 464.608 233.857Z" stroke="url(#paint77_linear_50_555)" stroke-opacity="0.1"/>
<path d="M465.447 235.987C496.773 317.592 511.373 396.729 509.671 458.696C508.82 489.681 503.893 516.348 494.965 536.877C486.037 557.405 473.126 571.761 456.317 578.213C439.508 584.666 420.308 582.636 399.937 573.355C379.565 564.073 358.061 547.552 336.695 525.095C293.966 480.184 251.863 411.604 220.538 329.999C189.212 248.393 174.612 169.256 176.314 107.289C177.165 76.3038 182.092 49.6376 191.02 29.1077C199.948 8.58 212.859 -5.77579 229.668 -12.2281C246.477 -18.6805 265.677 -16.6512 286.048 -7.36992C306.42 1.91232 327.924 18.4329 349.29 40.8896C392.019 85.8013 434.122 154.381 465.447 235.987Z" stroke="url(#paint78_linear_50_555)" stroke-opacity="0.1"/>
<path d="M466.249 238.131C496.145 320.271 509.362 399.651 506.579 461.579C505.187 492.544 499.796 519.121 490.511 539.492C481.226 559.86 468.066 573.989 451.147 580.147C434.229 586.305 415.066 583.94 394.861 574.305C374.654 564.669 353.441 547.775 332.471 524.949C290.532 479.299 249.633 409.995 219.736 327.855C189.839 245.715 176.623 166.335 179.406 104.407C180.798 73.4417 186.189 46.8655 195.474 26.4945C204.759 6.12578 217.918 -8.0025 234.837 -14.1605C251.756 -20.3185 270.919 -17.9544 291.124 -8.31907C311.331 1.31731 332.544 18.2107 353.514 41.0369C395.453 86.6875 436.352 155.991 466.249 238.131Z" stroke="url(#paint79_linear_50_555)" stroke-opacity="0.1"/>
<path d="M467.013 240.289C495.471 322.938 507.301 402.537 503.437 464.407C501.505 495.343 495.651 521.821 486.012 542.027C476.373 562.23 462.969 576.127 445.945 581.988C428.921 587.85 409.803 585.152 389.769 575.166C369.733 565.178 348.819 547.917 328.25 524.728C287.114 478.353 247.43 408.346 218.972 325.696C190.513 243.047 178.684 163.449 182.548 101.579C184.48 70.6426 190.334 44.1645 199.973 23.9587C209.612 3.75512 223.016 -10.1413 240.04 -16.0031C257.064 -21.8649 276.182 -19.1667 296.216 -9.18025C316.252 0.807326 337.166 18.0683 357.735 41.257C398.871 87.6326 438.555 157.64 467.013 240.289Z" stroke="url(#paint80_linear_50_555)" stroke-opacity="0.1"/>
<path d="M467.739 242.46C494.751 325.593 505.189 405.386 500.246 467.179C497.775 498.077 491.46 524.449 481.469 544.483C471.479 564.516 457.835 578.176 440.711 583.74C423.588 589.304 404.519 586.272 384.663 575.938C364.804 565.602 344.194 547.979 324.033 524.434C283.713 477.348 245.257 406.659 218.245 323.526C191.234 240.392 180.796 160.6 185.738 98.8064C188.21 67.9086 194.525 41.5367 204.516 21.5023C214.506 1.46997 228.15 -12.1904 245.274 -17.7542C262.397 -23.318 281.465 -20.2866 301.322 -9.95198C321.181 0.383753 341.791 18.0071 361.952 41.5513C402.272 88.6377 440.728 159.327 467.739 242.46Z" stroke="url(#paint81_linear_50_555)" stroke-opacity="0.1"/>
<path d="M468.428 244.643C493.985 328.235 503.029 408.198 497.008 469.896C493.998 500.745 487.223 527.003 476.884 546.86C466.546 566.715 452.666 580.135 435.447 585.399C418.229 590.663 399.217 587.3 379.544 576.62C359.869 565.939 339.569 547.959 319.822 524.067C280.33 476.284 243.114 404.934 217.557 321.342C192 237.75 182.956 157.787 188.977 96.0899C191.987 65.2399 198.762 38.9823 209.101 19.1252C219.438 -0.729682 233.319 -14.1499 250.537 -19.414C267.756 -24.6781 286.768 -21.3143 306.441 -10.6347C326.116 0.0460013 346.416 18.0264 366.162 41.9188C405.655 89.7017 442.871 161.051 468.428 244.643Z" stroke="url(#paint82_linear_50_555)" stroke-opacity="0.1"/>
<path d="M469.078 246.838C493.172 330.864 500.819 410.972 493.723 472.555C490.174 503.348 482.943 529.483 472.259 549.157C461.576 568.828 447.463 582.004 430.156 586.967C412.848 591.93 393.898 588.235 374.414 577.213C354.928 566.191 334.945 547.859 315.619 523.625C276.967 475.161 241.001 403.172 216.907 319.147C192.813 235.122 185.166 155.013 192.262 93.4303C195.81 62.6376 203.042 36.5022 213.726 16.8286C224.409 -2.84288 238.522 -16.0188 255.829 -20.9816C273.137 -25.9444 292.087 -22.2493 311.571 -11.228C331.057 -0.205529 351.039 18.1264 370.366 42.3598C409.018 90.8247 444.984 162.813 469.078 246.838Z" stroke="url(#paint83_linear_50_555)" stroke-opacity="0.1"/>
<path d="M469.69 249.044C492.314 333.477 498.561 413.707 490.391 475.157C486.306 505.883 478.62 531.888 467.594 551.372C456.569 570.854 442.229 583.782 424.837 588.442C407.446 593.102 388.563 589.077 369.274 577.717C349.984 566.356 330.324 547.678 311.423 523.111C273.623 473.979 238.919 401.374 216.295 316.941C193.671 232.508 187.423 152.279 195.593 90.8288C199.679 60.1027 207.365 34.0975 218.391 14.6134C229.415 -4.86867 243.756 -17.7963 261.148 -22.4562C278.539 -27.1162 297.422 -23.091 316.711 -11.7313C336.001 -0.370452 355.661 18.3074 374.562 42.8744C412.362 92.0065 447.066 164.611 469.69 249.044Z" stroke="url(#paint84_linear_50_555)" stroke-opacity="0.1"/>
<path d="M470.263 251.261C491.41 336.076 496.256 416.402 487.015 477.7C482.394 508.35 474.255 534.217 462.891 553.506C451.528 572.793 436.964 585.468 419.494 589.824C402.024 594.179 383.214 589.825 364.126 578.131C345.037 566.435 325.707 547.417 307.237 522.524C270.3 472.739 236.869 399.54 215.722 314.725C194.575 229.91 189.728 149.583 198.97 88.2856C203.59 57.6354 211.73 31.7683 223.094 12.4796C234.457 -6.80705 249.021 -19.4824 266.491 -23.8381C283.961 -28.1939 302.771 -23.8397 321.858 -12.1452C340.948 -0.449345 360.278 18.5688 378.747 43.4619C415.685 93.2462 449.116 166.446 470.263 251.261Z" stroke="url(#paint85_linear_50_555)" stroke-opacity="0.1"/>
<path d="M470.797 253.487C490.461 338.658 493.905 419.057 483.595 480.184C478.44 510.749 469.851 536.47 458.152 555.557C446.454 574.643 431.671 587.062 414.127 591.112C396.584 595.162 377.853 590.481 358.972 578.455C340.09 566.428 321.094 547.075 303.062 521.863C267 471.442 234.851 397.67 215.187 312.499C195.524 227.328 192.08 146.929 202.39 85.8017C207.545 55.2369 216.134 29.5158 227.833 10.4283C239.531 -8.65709 254.314 -21.0763 271.857 -25.1265C289.401 -29.1767 308.132 -24.4949 327.012 -12.469C345.895 -0.441824 364.89 18.9108 382.922 44.1224C418.985 94.5438 451.134 168.316 470.797 253.487Z" stroke="url(#paint86_linear_50_555)" stroke-opacity="0.1"/>
<path d="M471.293 255.721C489.467 341.223 491.507 421.669 480.132 482.607C474.445 513.078 465.408 538.645 453.377 557.525C441.348 576.404 426.351 588.563 408.739 592.306C391.128 596.05 372.481 591.042 353.813 578.688C335.144 566.333 316.489 546.652 298.9 521.129C263.722 470.086 232.866 395.765 214.692 310.263C196.518 224.762 194.478 144.315 205.853 83.3774C211.54 52.9072 220.577 27.3399 232.608 8.45954C244.637 -10.4188 259.634 -22.5781 277.246 -26.3215C294.857 -30.0649 313.504 -25.057 332.171 -12.7034C350.841 -0.348474 369.496 19.3327 387.085 44.8552C422.262 95.8983 453.119 170.22 471.293 255.721Z" stroke="url(#paint87_linear_50_555)" stroke-opacity="0.1"/>
<path d="M471.749 257.964C488.428 343.77 489.064 424.24 476.628 484.97C470.409 515.337 460.927 540.742 448.569 559.41C436.213 578.075 421.005 589.971 403.331 593.407C385.657 596.842 367.1 591.509 348.651 578.832C330.2 566.153 311.891 546.149 294.75 520.324C260.469 468.674 230.914 393.826 214.236 308.02C197.557 222.215 196.92 141.745 209.357 81.0143C215.576 50.648 225.058 25.2423 237.416 6.57479C249.772 -12.0907 264.98 -23.9865 282.654 -27.4219C300.328 -30.8574 318.885 -25.5248 337.334 -12.8473C355.785 -0.168427 374.093 19.8353 391.235 45.6609C425.516 97.3102 455.07 172.159 471.749 257.964Z" stroke="url(#paint88_linear_50_555)" stroke-opacity="0.1"/>
<path d="M472.166 260.216C487.345 346.299 486.577 426.768 473.082 487.272C466.334 517.525 456.411 542.762 443.729 561.211C431.048 579.658 415.635 591.286 397.904 594.413C380.173 597.539 361.712 591.883 343.487 578.886C325.26 565.887 307.303 545.567 290.615 519.446C257.241 467.206 228.997 391.853 213.818 305.769C198.639 219.686 199.408 139.217 212.902 78.7131C219.65 48.46 229.574 23.2236 242.256 4.7746C254.936 -13.6724 270.349 -25.3009 288.08 -28.4274C305.812 -31.5539 324.272 -25.8983 342.497 -12.9007C360.724 0.0982283 378.681 20.4185 395.369 46.5393C428.743 98.7789 456.987 174.132 472.166 260.216Z" stroke="url(#paint89_linear_50_555)" stroke-opacity="0.1"/>
<path d="M472.544 262.473C486.218 348.809 484.046 429.252 469.497 489.511C462.223 519.642 451.86 544.701 438.858 562.926C425.857 581.149 410.244 592.507 392.461 595.323C374.678 598.14 356.319 592.163 338.323 578.849C320.326 565.534 302.726 544.903 286.497 518.495C254.039 465.681 227.115 389.847 213.441 303.511C199.766 217.176 201.939 136.733 216.488 76.4735C223.762 46.3427 234.125 21.2834 247.127 3.0585C260.127 -15.1644 275.741 -26.5222 293.524 -29.3387C311.307 -32.1553 329.666 -26.1783 347.662 -12.8647C365.659 0.450414 383.258 21.0809 399.488 47.489C431.946 100.303 458.87 176.138 472.544 262.473Z" stroke="url(#paint90_linear_50_555)" stroke-opacity="0.1"/>
<path d="M472.883 264.738C485.048 351.299 481.472 431.692 465.874 491.688C458.074 521.687 447.276 546.562 433.958 564.557C420.641 582.55 404.832 593.634 387.002 596.139C369.173 598.645 350.921 592.349 333.16 578.723C315.398 565.096 298.161 544.161 282.395 517.474C250.864 464.101 225.267 387.808 213.102 301.248C200.937 214.687 204.513 134.294 220.111 74.2976C227.91 44.2983 238.709 19.4237 252.027 1.42851C265.344 -16.5647 281.153 -27.6483 298.983 -30.154C316.812 -32.6598 335.064 -26.3633 352.824 -12.7377C370.587 0.889487 387.823 21.824 403.589 48.5113C435.12 101.884 460.717 178.177 472.883 264.738Z" stroke="url(#paint91_linear_50_555)" stroke-opacity="0.1"/>
<path d="M473.181 267.007C483.834 353.767 478.856 434.086 462.213 493.8C453.891 523.659 442.66 548.341 429.03 566.101C415.401 583.859 399.401 594.665 381.53 596.86C363.66 599.054 345.521 592.44 328.001 578.506C310.479 564.571 293.61 543.339 278.312 516.38C247.718 462.466 223.456 385.738 212.803 298.978C202.151 212.218 207.129 131.899 223.772 72.1846C232.094 42.3261 243.325 17.6437 256.955 -0.116323C270.583 -17.8744 286.584 -28.6803 304.454 -30.8746C322.325 -33.0688 340.464 -26.4547 357.984 -12.5212C375.506 1.4139 392.375 22.6461 407.672 49.6045C438.267 103.519 462.529 180.247 473.181 267.007Z" stroke="url(#paint92_linear_50_555)" stroke-opacity="0.1"/>
<path d="M473.441 269.282C482.578 356.214 476.198 436.434 458.516 495.849C449.674 525.557 438.014 550.04 424.076 567.56C410.14 585.077 393.953 595.602 376.047 597.484C358.141 599.366 340.12 592.437 322.846 578.199C305.57 563.961 289.074 542.437 274.249 515.216C244.6 460.776 221.681 383.636 212.544 296.703C203.407 209.77 209.787 129.551 227.469 70.1358C236.311 40.4271 247.971 15.9445 261.909 -1.57496C275.845 -19.0925 292.032 -29.6175 309.938 -31.4996C327.844 -33.3816 345.865 -26.4519 363.139 -12.2147C380.415 2.02402 396.911 23.5474 411.736 50.7686C441.385 105.209 464.304 182.349 473.441 269.282Z" stroke="url(#paint93_linear_50_555)" stroke-opacity="0.1"/>
<path d="M473.66 271.561C481.279 358.64 473.5 438.736 454.783 497.833C445.425 527.383 433.339 551.659 419.097 568.932C404.857 586.204 388.489 596.445 370.553 598.014C352.617 599.583 334.719 592.34 317.697 577.804C300.672 563.265 284.554 541.458 270.207 513.982C241.512 459.032 219.943 381.504 212.325 294.425C204.706 207.346 212.485 127.25 231.202 68.1529C240.56 38.603 252.646 14.3276 266.888 -2.94591C281.128 -20.2176 297.495 -30.4585 315.432 -32.0277C333.368 -33.5969 351.265 -26.3538 368.288 -11.8173C385.313 2.72075 401.43 24.5287 415.778 52.0046C444.473 106.954 466.042 184.482 473.66 271.561Z" stroke="url(#paint94_linear_50_555)" stroke-opacity="0.1"/>
<path d="M473.84 273.843C479.937 361.042 470.762 440.99 451.017 499.752C441.144 529.134 428.636 553.194 414.095 570.217C399.556 587.237 383.012 597.191 365.051 598.447C347.09 599.703 329.322 592.149 312.555 577.317C295.787 562.484 280.053 540.398 266.186 512.676C238.455 457.234 218.243 379.341 212.145 292.143C206.048 204.944 215.223 124.997 234.968 66.2346C244.841 36.8525 257.349 12.7918 271.889 -4.23057C286.429 -21.2511 302.973 -31.2048 320.934 -32.4607C338.895 -33.7167 356.663 -26.1623 373.43 -11.3309C390.198 3.50204 405.932 25.588 419.798 53.31C447.53 108.752 467.742 186.645 473.84 273.843Z" stroke="url(#paint95_linear_50_555)" stroke-opacity="0.1"/>
<path d="M473.979 276.128C478.554 363.419 467.985 443.195 447.217 501.603C436.833 530.808 423.908 554.647 409.072 571.413C394.238 588.177 377.522 597.841 359.542 598.783C341.562 599.726 323.928 591.862 307.423 576.74C290.916 561.617 275.57 539.26 262.19 511.3C235.43 455.383 216.58 377.149 212.005 289.857C207.431 202.565 218 122.79 238.768 64.3817C249.152 35.1764 262.077 11.3376 276.913 -5.42841C291.747 -22.1926 308.462 -31.856 326.443 -32.7983C344.423 -33.7406 362.056 -25.8773 378.562 -10.7556C395.069 4.36779 410.415 26.7249 423.795 54.6848C450.554 110.602 469.405 188.836 473.979 276.128Z" stroke="url(#paint96_linear_50_555)" stroke-opacity="0.1"/>
<path d="M474.079 278.415C477.13 365.773 465.17 445.352 443.386 503.389C432.494 532.408 419.154 556.018 404.028 572.522C388.904 589.025 372.022 598.395 354.028 599.024C336.035 599.652 318.541 591.482 302.302 576.075C286.061 560.666 271.108 538.044 258.217 509.855C232.438 453.479 214.956 374.928 211.906 287.57C208.855 200.212 220.815 120.633 242.599 62.5958C253.491 33.5762 266.831 9.9666 281.957 -6.53791C297.081 -23.0406 313.963 -32.4109 331.956 -33.0393C349.95 -33.6676 367.444 -25.4978 383.683 -10.0903C399.923 5.3189 414.877 27.9405 427.767 56.1296C453.547 112.506 471.029 191.056 474.079 278.415Z" stroke="url(#paint97_linear_50_555)" stroke-opacity="0.1"/>
<path d="M474.139 280.703C475.665 368.101 462.318 447.459 439.524 505.107C428.127 533.932 414.378 557.306 398.966 573.544C383.556 589.78 366.513 598.854 348.511 599.168C330.509 599.482 313.161 591.009 297.193 575.32C281.224 559.63 266.667 536.751 254.271 508.341C229.48 451.523 213.371 372.68 211.846 285.281C210.32 197.883 223.667 118.525 246.461 60.8773C257.858 32.0522 271.607 8.67898 287.019 -7.55903C302.429 -23.7953 319.472 -32.8695 337.474 -33.1837C355.476 -33.4979 372.824 -25.024 388.792 -9.33547C404.761 6.35478 419.318 29.2339 431.714 57.6437C456.505 114.461 472.614 193.305 474.139 280.703Z" stroke="url(#paint98_linear_50_555)" stroke-opacity="0.1"/>
<path d="M474.159 282.992C474.159 370.404 459.429 449.517 435.633 506.758C423.735 535.38 409.579 558.51 393.886 574.476C378.195 590.441 360.997 599.216 342.992 599.216C324.988 599.216 307.79 590.441 292.098 574.476C276.406 558.51 262.25 535.38 250.352 506.758C226.556 449.517 211.826 370.404 211.826 282.992C211.826 195.581 226.556 116.468 250.352 59.2264C262.25 30.6045 276.406 7.47486 292.098 -8.4917C307.79 -24.4565 324.988 -33.2319 342.992 -33.2319C360.997 -33.2319 378.195 -24.4565 393.886 -8.4917C409.579 7.47486 423.735 30.6045 435.633 59.2264C459.429 116.468 474.159 195.581 474.159 282.992Z" stroke="url(#paint99_linear_50_555)" stroke-opacity="0.1"/>
<defs>
<linearGradient id="paint0_linear_50_555" x1="50.7648" y1="462.585" x2="95.9226" y2="206.98" gradientUnits="userSpaceOnUse">
<stop stop-color="#56F395"/>
<stop offset="1" stop-color="#60A5FA"/>
</linearGradient>
<linearGradient id="paint1_linear_50_555" x1="47.6751" y1="457.458" x2="97.2869" y2="202.679" gradientUnits="userSpaceOnUse">
<stop stop-color="#56F395"/>
<stop offset="1" stop-color="#60A5FA"/>
</linearGradient>
<linearGradient id="paint2_linear_50_555" x1="44.6752" y1="452.277" x2="98.7259" y2="198.403" gradientUnits="userSpaceOnUse">
<stop stop-color="#56F395"/>
<stop offset="1" stop-color="#60A5FA"/>
</linearGradient>
<linearGradient id="paint3_linear_50_555" x1="41.7663" y1="447.045" x2="100.24" y2="194.153" gradientUnits="userSpaceOnUse">
<stop stop-color="#56F395"/>
<stop offset="1" stop-color="#60A5FA"/>
</linearGradient>
<linearGradient id="paint4_linear_50_555" x1="38.949" y1="441.763" x2="101.827" y2="189.93" gradientUnits="userSpaceOnUse">
<stop stop-color="#56F395"/>
<stop offset="1" stop-color="#60A5FA"/>
</linearGradient>
<linearGradient id="paint5_linear_50_555" x1="36.2244" y1="436.432" x2="103.488" y2="185.735" gradientUnits="userSpaceOnUse">
<stop stop-color="#56F395"/>
<stop offset="1" stop-color="#60A5FA"/>
</linearGradient>
<linearGradient id="paint6_linear_50_555" x1="33.5932" y1="431.055" x2="105.222" y2="181.57" gradientUnits="userSpaceOnUse">
<stop stop-color="#56F395"/>
<stop offset="1" stop-color="#60A5FA"/>
</linearGradient>
<linearGradient id="paint7_linear_50_555" x1="31.0562" y1="425.632" x2="107.028" y2="177.436" gradientUnits="userSpaceOnUse">
<stop stop-color="#56F395"/>
<stop offset="1" stop-color="#60A5FA"/>
</linearGradient>
<linearGradient id="paint8_linear_50_555" x1="28.6144" y1="420.167" x2="108.906" y2="173.333" gradientUnits="userSpaceOnUse">
<stop stop-color="#56F395"/>
<stop offset="1" stop-color="#60A5FA"/>
</linearGradient>
<linearGradient id="paint9_linear_50_555" x1="26.2683" y1="414.659" x2="110.856" y2="169.265" gradientUnits="userSpaceOnUse">
<stop stop-color="#56F395"/>
<stop offset="1" stop-color="#60A5FA"/>
</linearGradient>
<linearGradient id="paint10_linear_50_555" x1="24.0186" y1="409.112" x2="112.876" y2="165.231" gradientUnits="userSpaceOnUse">
<stop stop-color="#56F395"/>
<stop offset="1" stop-color="#60A5FA"/>
</linearGradient>
<linearGradient id="paint11_linear_50_555" x1="21.866" y1="403.525" x2="114.966" y2="161.233" gradientUnits="userSpaceOnUse">
<stop stop-color="#56F395"/>
<stop offset="1" stop-color="#60A5FA"/>
</linearGradient>
<linearGradient id="paint12_linear_50_555" x1="19.8114" y1="397.902" x2="117.126" y2="157.271" gradientUnits="userSpaceOnUse">
<stop stop-color="#56F395"/>
<stop offset="1" stop-color="#60A5FA"/>
</linearGradient>
<linearGradient id="paint13_linear_50_555" x1="17.8552" y1="392.245" x2="119.354" y2="153.349" gradientUnits="userSpaceOnUse">
<stop stop-color="#56F395"/>
<stop offset="1" stop-color="#60A5FA"/>
</linearGradient>
<linearGradient id="paint14_linear_50_555" x1="15.9979" y1="386.554" x2="121.651" y2="149.466" gradientUnits="userSpaceOnUse">
<stop stop-color="#56F395"/>
<stop offset="1" stop-color="#60A5FA"/>
</linearGradient>
<linearGradient id="paint15_linear_50_555" x1="14.2404" y1="380.831" x2="124.015" y2="145.623" gradientUnits="userSpaceOnUse">
<stop stop-color="#56F395"/>
<stop offset="1" stop-color="#60A5FA"/>
</linearGradient>
<linearGradient id="paint16_linear_50_555" x1="12.5829" y1="375.079" x2="126.446" y2="141.822" gradientUnits="userSpaceOnUse">
<stop stop-color="#56F395"/>
<stop offset="1" stop-color="#60A5FA"/>
</linearGradient>
<linearGradient id="paint17_linear_50_555" x1="11.0261" y1="369.298" x2="128.942" y2="138.065" gradientUnits="userSpaceOnUse">
<stop stop-color="#56F395"/>
<stop offset="1" stop-color="#60A5FA"/>
</linearGradient>
<linearGradient id="paint18_linear_50_555" x1="9.57043" y1="363.491" x2="131.504" y2="134.351" gradientUnits="userSpaceOnUse">
<stop stop-color="#56F395"/>
<stop offset="1" stop-color="#60A5FA"/>
</linearGradient>
<linearGradient id="paint19_linear_50_555" x1="8.21637" y1="357.66" x2="134.131" y2="130.683" gradientUnits="userSpaceOnUse">
<stop stop-color="#56F395"/>
<stop offset="1" stop-color="#60A5FA"/>
</linearGradient>
<linearGradient id="paint20_linear_50_555" x1="6.96414" y1="351.807" x2="136.821" y2="127.061" gradientUnits="userSpaceOnUse">
<stop stop-color="#56F395"/>
<stop offset="1" stop-color="#60A5FA"/>
</linearGradient>
<linearGradient id="paint21_linear_50_555" x1="5.81442" y1="345.931" x2="139.574" y2="123.486" gradientUnits="userSpaceOnUse">
<stop stop-color="#56F395"/>
<stop offset="1" stop-color="#60A5FA"/>
</linearGradient>
<linearGradient id="paint22_linear_50_555" x1="4.76733" y1="340.037" x2="142.388" y2="119.96" gradientUnits="userSpaceOnUse">
<stop stop-color="#56F395"/>
<stop offset="1" stop-color="#60A5FA"/>
</linearGradient>
<linearGradient id="paint23_linear_50_555" x1="3.8233" y1="334.125" x2="145.264" y2="116.484" gradientUnits="userSpaceOnUse">
<stop stop-color="#56F395"/>
<stop offset="1" stop-color="#60A5FA"/>
</linearGradient>
<linearGradient id="paint24_linear_50_555" x1="2.98254" y1="328.198" x2="148.2" y2="113.058" gradientUnits="userSpaceOnUse">
<stop stop-color="#56F395"/>
<stop offset="1" stop-color="#60A5FA"/>
</linearGradient>
<linearGradient id="paint25_linear_50_555" x1="2.2453" y1="322.258" x2="151.196" y2="109.685" gradientUnits="userSpaceOnUse">
<stop stop-color="#56F395"/>
<stop offset="1" stop-color="#60A5FA"/>
</linearGradient>
<linearGradient id="paint26_linear_50_555" x1="1.61191" y1="316.305" x2="154.249" y2="106.364" gradientUnits="userSpaceOnUse">
<stop stop-color="#56F395"/>
<stop offset="1" stop-color="#60A5FA"/>
</linearGradient>
<linearGradient id="paint27_linear_50_555" x1="1.08255" y1="310.342" x2="157.361" y2="103.097" gradientUnits="userSpaceOnUse">
<stop stop-color="#56F395"/>
<stop offset="1" stop-color="#60A5FA"/>
</linearGradient>
<linearGradient id="paint28_linear_50_555" x1="0.657379" y1="304.37" x2="160.529" y2="99.8843" gradientUnits="userSpaceOnUse">
<stop stop-color="#56F395"/>
<stop offset="1" stop-color="#60A5FA"/>
</linearGradient>
<linearGradient id="paint29_linear_50_555" x1="0.336365" y1="298.393" x2="163.752" y2="96.7285" gradientUnits="userSpaceOnUse">
<stop stop-color="#56F395"/>
<stop offset="1" stop-color="#60A5FA"/>
</linearGradient>
<linearGradient id="paint30_linear_50_555" x1="0.119751" y1="292.41" x2="167.03" y2="93.6283" gradientUnits="userSpaceOnUse">
<stop stop-color="#56F395"/>
<stop offset="1" stop-color="#60A5FA"/>
</linearGradient>
<linearGradient id="paint31_linear_50_555" x1="0.00762939" y1="286.425" x2="170.362" y2="90.5862" gradientUnits="userSpaceOnUse">
<stop stop-color="#56F395"/>
<stop offset="1" stop-color="#60A5FA"/>
</linearGradient>
<linearGradient id="paint32_linear_50_555" x1="0" y1="280.438" x2="173.746" y2="87.6028" gradientUnits="userSpaceOnUse">
<stop stop-color="#56F395"/>
<stop offset="1" stop-color="#60A5FA"/>
</linearGradient>
<linearGradient id="paint33_linear_50_555" x1="0.0967712" y1="274.453" x2="177.182" y2="84.6787" gradientUnits="userSpaceOnUse">
<stop stop-color="#56F395"/>
<stop offset="1" stop-color="#60A5FA"/>
</linearGradient>
<linearGradient id="paint34_linear_50_555" x1="0.298035" y1="268.469" x2="180.668" y2="81.8147" gradientUnits="userSpaceOnUse">
<stop stop-color="#56F395"/>
<stop offset="1" stop-color="#60A5FA"/>
</linearGradient>
<linearGradient id="paint35_linear_50_555" x1="0.603699" y1="262.491" x2="184.204" y2="79.013" gradientUnits="userSpaceOnUse">
<stop stop-color="#56F395"/>
<stop offset="1" stop-color="#60A5FA"/>
</linearGradient>
<linearGradient id="paint36_linear_50_555" x1="1.01361" y1="256.519" x2="187.788" y2="76.2731" gradientUnits="userSpaceOnUse">
<stop stop-color="#56F395"/>
<stop offset="1" stop-color="#60A5FA"/>
</linearGradient>
<linearGradient id="paint37_linear_50_555" x1="1.52774" y1="250.554" x2="191.419" y2="73.5953" gradientUnits="userSpaceOnUse">
<stop stop-color="#56F395"/>
<stop offset="1" stop-color="#60A5FA"/>
</linearGradient>
<linearGradient id="paint38_linear_50_555" x1="2.14587" y1="244.6" x2="195.097" y2="70.9818" gradientUnits="userSpaceOnUse">
<stop stop-color="#56F395"/>
<stop offset="1" stop-color="#60A5FA"/>
</linearGradient>
<linearGradient id="paint39_linear_50_555" x1="2.86789" y1="238.657" x2="198.82" y2="68.4333" gradientUnits="userSpaceOnUse">
<stop stop-color="#56F395"/>
<stop offset="1" stop-color="#60A5FA"/>
</linearGradient>
<linearGradient id="paint40_linear_50_555" x1="3.69348" y1="232.728" x2="202.586" y2="65.9498" gradientUnits="userSpaceOnUse">
<stop stop-color="#56F395"/>
<stop offset="1" stop-color="#60A5FA"/>
</linearGradient>
<linearGradient id="paint41_linear_50_555" x1="4.62241" y1="226.813" x2="206.396" y2="63.5319" gradientUnits="userSpaceOnUse">
<stop stop-color="#56F395"/>
<stop offset="1" stop-color="#60A5FA"/>
</linearGradient>
<linearGradient id="paint42_linear_50_555" x1="5.65436" y1="220.917" x2="210.246" y2="61.1817" gradientUnits="userSpaceOnUse">
<stop stop-color="#56F395"/>
<stop offset="1" stop-color="#60A5FA"/>
</linearGradient>
<linearGradient id="paint43_linear_50_555" x1="6.78903" y1="215.039" x2="214.138" y2="58.8987" gradientUnits="userSpaceOnUse">
<stop stop-color="#56F395"/>
<stop offset="1" stop-color="#60A5FA"/>
</linearGradient>
<linearGradient id="paint44_linear_50_555" x1="8.02625" y1="209.182" x2="218.068" y2="56.6838" gradientUnits="userSpaceOnUse">
<stop stop-color="#56F395"/>
<stop offset="1" stop-color="#60A5FA"/>
</linearGradient>
<linearGradient id="paint45_linear_50_555" x1="9.36542" y1="203.347" x2="222.037" y2="54.5383" gradientUnits="userSpaceOnUse">
<stop stop-color="#56F395"/>
<stop offset="1" stop-color="#60A5FA"/>
</linearGradient>
<linearGradient id="paint46_linear_50_555" x1="10.8062" y1="197.537" x2="226.042" y2="52.4625" gradientUnits="userSpaceOnUse">
<stop stop-color="#56F395"/>
<stop offset="1" stop-color="#60A5FA"/>
</linearGradient>
<linearGradient id="paint47_linear_50_555" x1="12.3482" y1="191.752" x2="230.084" y2="50.4563" gradientUnits="userSpaceOnUse">
<stop stop-color="#56F395"/>
<stop offset="1" stop-color="#60A5FA"/>
</linearGradient>
<linearGradient id="paint48_linear_50_555" x1="13.991" y1="185.996" x2="234.159" y2="48.521" gradientUnits="userSpaceOnUse">
<stop stop-color="#56F395"/>
<stop offset="1" stop-color="#60A5FA"/>
</linearGradient>
<linearGradient id="paint49_linear_50_555" x1="15.7339" y1="180.269" x2="238.268" y2="46.6579" gradientUnits="userSpaceOnUse">
<stop stop-color="#56F395"/>
<stop offset="1" stop-color="#60A5FA"/>
</linearGradient>
<linearGradient id="paint50_linear_50_555" x1="17.5765" y1="174.573" x2="242.408" y2="44.8662" gradientUnits="userSpaceOnUse">
<stop stop-color="#56F395"/>
<stop offset="1" stop-color="#60A5FA"/>
</linearGradient>
<linearGradient id="paint51_linear_50_555" x1="19.5182" y1="168.91" x2="246.58" y2="43.1467" gradientUnits="userSpaceOnUse">
<stop stop-color="#56F395"/>
<stop offset="1" stop-color="#60A5FA"/>
</linearGradient>
<linearGradient id="paint52_linear_50_555" x1="21.5585" y1="163.282" x2="250.78" y2="41.5007" gradientUnits="userSpaceOnUse">
<stop stop-color="#56F395"/>
<stop offset="1" stop-color="#60A5FA"/>
</linearGradient>
<linearGradient id="paint53_linear_50_555" x1="23.6967" y1="157.69" x2="255.009" y2="39.9279" gradientUnits="userSpaceOnUse">
<stop stop-color="#56F395"/>
<stop offset="1" stop-color="#60A5FA"/>
</linearGradient>
<linearGradient id="paint54_linear_50_555" x1="25.9321" y1="152.137" x2="259.264" y2="38.4296" gradientUnits="userSpaceOnUse">
<stop stop-color="#56F395"/>
<stop offset="1" stop-color="#60A5FA"/>
</linearGradient>
<linearGradient id="paint55_linear_50_555" x1="28.2641" y1="146.624" x2="263.545" y2="37.0054" gradientUnits="userSpaceOnUse">
<stop stop-color="#56F395"/>
<stop offset="1" stop-color="#60A5FA"/>
</linearGradient>
<linearGradient id="paint56_linear_50_555" x1="30.6922" y1="141.152" x2="267.85" y2="35.6566" gradientUnits="userSpaceOnUse">
<stop stop-color="#56F395"/>
<stop offset="1" stop-color="#60A5FA"/>
</linearGradient>
<linearGradient id="paint57_linear_50_555" x1="33.2152" y1="135.723" x2="272.178" y2="34.3825" gradientUnits="userSpaceOnUse">
<stop stop-color="#56F395"/>
<stop offset="1" stop-color="#60A5FA"/>
</linearGradient>
<linearGradient id="paint58_linear_50_555" x1="35.8325" y1="130.339" x2="276.528" y2="33.1846" gradientUnits="userSpaceOnUse">
<stop stop-color="#56F395"/>
<stop offset="1" stop-color="#60A5FA"/>
</linearGradient>
<linearGradient id="paint59_linear_50_555" x1="38.5434" y1="125.001" x2="280.898" y2="32.0627" gradientUnits="userSpaceOnUse">
<stop stop-color="#56F395"/>
<stop offset="1" stop-color="#60A5FA"/>
</linearGradient>
<linearGradient id="paint60_linear_50_555" x1="41.3471" y1="119.712" x2="285.287" y2="31.0175" gradientUnits="userSpaceOnUse">
<stop stop-color="#56F395"/>
<stop offset="1" stop-color="#60A5FA"/>
</linearGradient>
<linearGradient id="paint61_linear_50_555" x1="44.2427" y1="114.473" x2="289.693" y2="30.0486" gradientUnits="userSpaceOnUse">
<stop stop-color="#56F395"/>
<stop offset="1" stop-color="#60A5FA"/>
</linearGradient>
<linearGradient id="paint62_linear_50_555" x1="47.2294" y1="109.285" x2="294.116" y2="29.1572" gradientUnits="userSpaceOnUse">
<stop stop-color="#56F395"/>
<stop offset="1" stop-color="#60A5FA"/>
</linearGradient>
<linearGradient id="paint63_linear_50_555" x1="50.306" y1="104.149" x2="298.553" y2="28.3429" gradientUnits="userSpaceOnUse">
<stop stop-color="#56F395"/>
<stop offset="1" stop-color="#60A5FA"/>
</linearGradient>
<linearGradient id="paint64_linear_50_555" x1="53.4718" y1="99.0684" x2="303.004" y2="27.6059" gradientUnits="userSpaceOnUse">
<stop stop-color="#56F395"/>
<stop offset="1" stop-color="#60A5FA"/>
</linearGradient>
<linearGradient id="paint65_linear_50_555" x1="56.7258" y1="94.0435" x2="307.467" y2="26.9468" gradientUnits="userSpaceOnUse">
<stop stop-color="#56F395"/>
<stop offset="1" stop-color="#60A5FA"/>
</linearGradient>
<linearGradient id="paint66_linear_50_555" x1="60.067" y1="89.0762" x2="311.941" y2="26.3658" gradientUnits="userSpaceOnUse">
<stop stop-color="#56F395"/>
<stop offset="1" stop-color="#60A5FA"/>
</linearGradient>
<linearGradient id="paint67_linear_50_555" x1="63.4944" y1="84.168" x2="316.425" y2="25.8629" gradientUnits="userSpaceOnUse">
<stop stop-color="#56F395"/>
<stop offset="1" stop-color="#60A5FA"/>
</linearGradient>
<linearGradient id="paint68_linear_50_555" x1="67.007" y1="79.3203" x2="320.916" y2="25.4384" gradientUnits="userSpaceOnUse">
<stop stop-color="#56F395"/>
<stop offset="1" stop-color="#60A5FA"/>
</linearGradient>
<linearGradient id="paint69_linear_50_555" x1="70.6036" y1="74.5352" x2="325.415" y2="25.0928" gradientUnits="userSpaceOnUse">
<stop stop-color="#56F395"/>
<stop offset="1" stop-color="#60A5FA"/>
</linearGradient>
<linearGradient id="paint70_linear_50_555" x1="74.2831" y1="69.8125" x2="329.918" y2="24.8247" gradientUnits="userSpaceOnUse">
<stop stop-color="#56F395"/>
<stop offset="1" stop-color="#60A5FA"/>
</linearGradient>
<linearGradient id="paint71_linear_50_555" x1="78.0446" y1="65.1553" x2="334.426" y2="24.6358" gradientUnits="userSpaceOnUse">
<stop stop-color="#56F395"/>
<stop offset="1" stop-color="#60A5FA"/>
</linearGradient>
<linearGradient id="paint72_linear_50_555" x1="81.8868" y1="60.5649" x2="338.936" y2="24.5261" gradientUnits="userSpaceOnUse">
<stop stop-color="#56F395"/>
<stop offset="1" stop-color="#60A5FA"/>
</linearGradient>
<linearGradient id="paint73_linear_50_555" x1="85.8084" y1="56.0415" x2="343.448" y2="24.4943" gradientUnits="userSpaceOnUse">
<stop stop-color="#56F395"/>
<stop offset="1" stop-color="#60A5FA"/>
</linearGradient>
<linearGradient id="paint74_linear_50_555" x1="89.8084" y1="51.5874" x2="347.959" y2="24.5414" gradientUnits="userSpaceOnUse">
<stop stop-color="#56F395"/>
<stop offset="1" stop-color="#60A5FA"/>
</linearGradient>
<linearGradient id="paint75_linear_50_555" x1="93.8855" y1="47.2041" x2="352.469" y2="24.6676" gradientUnits="userSpaceOnUse">
<stop stop-color="#56F395"/>
<stop offset="1" stop-color="#60A5FA"/>
</linearGradient>
<linearGradient id="paint76_linear_50_555" x1="98.0385" y1="42.8926" x2="356.976" y2="24.8724" gradientUnits="userSpaceOnUse">
<stop stop-color="#56F395"/>
<stop offset="1" stop-color="#60A5FA"/>
</linearGradient>
<linearGradient id="paint77_linear_50_555" x1="102.266" y1="38.6548" x2="361.479" y2="25.1565" gradientUnits="userSpaceOnUse">
<stop stop-color="#56F395"/>
<stop offset="1" stop-color="#60A5FA"/>
</linearGradient>
<linearGradient id="paint78_linear_50_555" x1="106.567" y1="34.4902" x2="365.976" y2="25.5178" gradientUnits="userSpaceOnUse">
<stop stop-color="#56F395"/>
<stop offset="1" stop-color="#60A5FA"/>
</linearGradient>
<linearGradient id="paint79_linear_50_555" x1="110.94" y1="30.4023" x2="370.466" y2="25.9586" gradientUnits="userSpaceOnUse">
<stop stop-color="#56F395"/>
<stop offset="1" stop-color="#60A5FA"/>
</linearGradient>
<linearGradient id="paint80_linear_50_555" x1="115.384" y1="26.3906" x2="374.947" y2="26.4769" gradientUnits="userSpaceOnUse">
<stop stop-color="#56F395"/>
<stop offset="1" stop-color="#60A5FA"/>
</linearGradient>
<linearGradient id="paint81_linear_50_555" x1="119.897" y1="22.4575" x2="379.419" y2="27.0738" gradientUnits="userSpaceOnUse">
<stop stop-color="#56F395"/>
<stop offset="1" stop-color="#60A5FA"/>
</linearGradient>
<linearGradient id="paint82_linear_50_555" x1="124.478" y1="18.6035" x2="383.88" y2="27.7484" gradientUnits="userSpaceOnUse">
<stop stop-color="#56F395"/>
<stop offset="1" stop-color="#60A5FA"/>
</linearGradient>
<linearGradient id="paint83_linear_50_555" x1="129.125" y1="14.8301" x2="388.329" y2="28.5008" gradientUnits="userSpaceOnUse">
<stop stop-color="#56F395"/>
<stop offset="1" stop-color="#60A5FA"/>
</linearGradient>
<linearGradient id="paint84_linear_50_555" x1="133.838" y1="11.1387" x2="392.763" y2="29.331" gradientUnits="userSpaceOnUse">
<stop stop-color="#56F395"/>
<stop offset="1" stop-color="#60A5FA"/>
</linearGradient>
<linearGradient id="paint85_linear_50_555" x1="138.614" y1="7.52979" x2="397.183" y2="30.2382" gradientUnits="userSpaceOnUse">
<stop stop-color="#56F395"/>
<stop offset="1" stop-color="#60A5FA"/>
</linearGradient>
<linearGradient id="paint86_linear_50_555" x1="143.453" y1="4.00488" x2="401.586" y2="31.2225" gradientUnits="userSpaceOnUse">
<stop stop-color="#56F395"/>
<stop offset="1" stop-color="#60A5FA"/>
</linearGradient>
<linearGradient id="paint87_linear_50_555" x1="148.352" y1="0.564453" x2="405.971" y2="32.283" gradientUnits="userSpaceOnUse">
<stop stop-color="#56F395"/>
<stop offset="1" stop-color="#60A5FA"/>
</linearGradient>
<linearGradient id="paint88_linear_50_555" x1="153.311" y1="-2.78955" x2="410.337" y2="33.4202" gradientUnits="userSpaceOnUse">
<stop stop-color="#56F395"/>
<stop offset="1" stop-color="#60A5FA"/>
</linearGradient>
<linearGradient id="paint89_linear_50_555" x1="158.327" y1="-6.05615" x2="414.682" y2="34.6338" gradientUnits="userSpaceOnUse">
<stop stop-color="#56F395"/>
<stop offset="1" stop-color="#60A5FA"/>
</linearGradient>
<linearGradient id="paint90_linear_50_555" x1="163.4" y1="-9.23535" x2="419.005" y2="35.9224" gradientUnits="userSpaceOnUse">
<stop stop-color="#56F395"/>
<stop offset="1" stop-color="#60A5FA"/>
</linearGradient>
<linearGradient id="paint91_linear_50_555" x1="168.528" y1="-12.3247" x2="423.306" y2="37.2871" gradientUnits="userSpaceOnUse">
<stop stop-color="#56F395"/>
<stop offset="1" stop-color="#60A5FA"/>
</linearGradient>
<linearGradient id="paint92_linear_50_555" x1="173.708" y1="-15.3247" x2="427.582" y2="38.726" gradientUnits="userSpaceOnUse">
<stop stop-color="#56F395"/>
<stop offset="1" stop-color="#60A5FA"/>
</linearGradient>
<linearGradient id="paint93_linear_50_555" x1="178.94" y1="-18.2339" x2="431.832" y2="40.2393" gradientUnits="userSpaceOnUse">
<stop stop-color="#56F395"/>
<stop offset="1" stop-color="#60A5FA"/>
</linearGradient>
<linearGradient id="paint94_linear_50_555" x1="184.222" y1="-21.0503" x2="436.055" y2="41.8276" gradientUnits="userSpaceOnUse">
<stop stop-color="#56F395"/>
<stop offset="1" stop-color="#60A5FA"/>
</linearGradient>
<linearGradient id="paint95_linear_50_555" x1="189.553" y1="-23.7749" x2="440.25" y2="43.4885" gradientUnits="userSpaceOnUse">
<stop stop-color="#56F395"/>
<stop offset="1" stop-color="#60A5FA"/>
</linearGradient>
<linearGradient id="paint96_linear_50_555" x1="194.93" y1="-26.4067" x2="444.415" y2="45.2217" gradientUnits="userSpaceOnUse">
<stop stop-color="#56F395"/>
<stop offset="1" stop-color="#60A5FA"/>
</linearGradient>
<linearGradient id="paint97_linear_50_555" x1="200.352" y1="-28.9438" x2="448.549" y2="47.0278" gradientUnits="userSpaceOnUse">
<stop stop-color="#56F395"/>
<stop offset="1" stop-color="#60A5FA"/>
</linearGradient>
<linearGradient id="paint98_linear_50_555" x1="205.818" y1="-31.3857" x2="452.651" y2="48.9059" gradientUnits="userSpaceOnUse">
<stop stop-color="#56F395"/>
<stop offset="1" stop-color="#60A5FA"/>
</linearGradient>
<linearGradient id="paint99_linear_50_555" x1="211.326" y1="-33.7319" x2="456.72" y2="50.8553" gradientUnits="userSpaceOnUse">
<stop stop-color="#56F395"/>
<stop offset="1" stop-color="#60A5FA"/>
</linearGradient>
</defs>
</svg>
