<svg width="316" height="479" viewBox="0 0 316 479" fill="none" xmlns="http://www.w3.org/2000/svg">
<g opacity="0.3">
<path d="M150.896 1.98755C152.486 1.30889 154.084 0.646308 155.69 0H341.31C342.916 0.646308 344.514 1.30889 346.104 1.98755H150.896Z" fill="url(#paint0_linear_76_223)"/>
<path d="M113.545 21.8631C114.58 21.193 115.621 20.5305 116.667 19.8755H380.333C381.379 20.5305 382.42 21.193 383.455 21.8631H113.545Z" fill="url(#paint1_linear_76_223)"/>
<path d="M86.9059 41.7386C87.686 41.0713 88.4702 40.4088 89.2586 39.751H407.741C408.53 40.4088 409.314 41.0713 410.094 41.7386H86.9059Z" fill="url(#paint2_linear_76_223)"/>
<path d="M66.2037 61.6141C66.8221 60.9482 67.444 60.2857 68.0695 59.6266H428.931C429.556 60.2857 430.178 60.9482 430.796 61.6141H66.2037Z" fill="url(#paint3_linear_76_223)"/>
<path d="M49.5819 81.4896C50.0818 80.8245 50.585 80.162 51.0915 79.5021H445.909C446.415 80.162 446.918 80.8245 447.418 81.4896H49.5819Z" fill="url(#paint4_linear_76_223)"/>
<path d="M36.0909 101.365C36.4966 100.701 36.9053 100.038 37.317 99.3776H459.683C460.095 100.038 460.503 100.701 460.909 101.365H36.0909Z" fill="url(#paint5_linear_76_223)"/>
<path d="M25.1731 121.241C25.4993 120.576 25.8284 119.914 26.1603 119.253H470.84C471.172 119.914 471.501 120.576 471.827 121.241H25.1731Z" fill="url(#paint6_linear_76_223)"/>
<path d="M16.4731 141.116C16.7295 140.452 16.9888 139.79 17.2508 139.129H479.749C480.011 139.79 480.27 140.452 480.527 141.116H16.4731Z" fill="url(#paint7_linear_76_223)"/>
<path d="M9.75279 160.992C9.94612 160.328 10.1421 159.665 10.3409 159.004H486.659C486.858 159.665 487.054 160.328 487.247 160.992H9.75279Z" fill="url(#paint8_linear_76_223)"/>
<path d="M4.84852 180.867C4.98329 180.204 5.12072 179.541 5.26077 178.88H491.739C491.879 179.541 492.017 180.204 492.151 180.867H4.84852Z" fill="url(#paint9_linear_76_223)"/>
<path d="M1.64682 200.743C1.7262 200.079 1.8082 199.417 1.89281 198.755H495.107C495.192 199.417 495.274 200.079 495.353 200.743H1.64682Z" fill="url(#paint10_linear_76_223)"/>
<path d="M0.0703815 220.618C0.0964888 219.955 0.125198 219.293 0.156498 218.631H496.844C496.875 219.293 496.904 219.955 496.93 220.618H0.0703815Z" fill="url(#paint11_linear_76_223)"/>
<path d="M0.0703814 240.494C0.0443266 239.832 0.0208629 239.169 0 238.506H497C496.979 239.169 496.956 239.832 496.93 240.494H0.0703814Z" fill="url(#paint12_linear_76_223)"/>
<path d="M1.64682 260.369C1.56762 259.708 1.49103 259.045 1.41705 258.382H495.583C495.509 259.045 495.432 259.708 495.353 260.369H1.64682Z" fill="url(#paint13_linear_76_223)"/>
<path d="M4.84851 280.245C4.71413 279.583 4.58237 278.921 4.45325 278.257H492.547C492.418 278.921 492.286 279.583 492.151 280.245H4.84851Z" fill="url(#paint14_linear_76_223)"/>
<path d="M9.75279 300.12C9.56013 299.459 9.37015 298.796 9.18285 298.133H487.817C487.63 298.796 487.44 299.459 487.247 300.12H9.75279Z" fill="url(#paint15_linear_76_223)"/>
<path d="M16.4731 319.996C16.2177 319.335 15.965 318.672 15.7152 318.008H481.285C481.035 318.672 480.782 319.335 480.527 319.996H16.4731Z" fill="url(#paint16_linear_76_223)"/>
<path d="M25.1731 339.871C24.8485 339.21 24.5268 338.548 24.208 337.884H472.792C472.473 338.548 472.151 339.21 471.827 339.871H25.1731Z" fill="url(#paint17_linear_76_223)"/>
<path d="M36.0909 359.747C35.6877 359.086 35.2876 358.424 34.8904 357.759H462.11C461.712 358.424 461.312 359.086 460.909 359.747H36.0909Z" fill="url(#paint18_linear_76_223)"/>
<path d="M49.5819 379.622C49.0858 378.962 48.5929 378.3 48.1033 377.635H448.897C448.407 378.3 447.914 378.962 447.418 379.622H49.5819Z" fill="url(#paint19_linear_76_223)"/>
<path d="M66.2037 399.498C65.5916 398.839 64.9831 398.176 64.3781 397.51H432.622C432.017 398.176 431.408 398.839 430.796 399.498H66.2037Z" fill="url(#paint20_linear_76_223)"/>
<path d="M86.9059 419.373C86.1367 418.716 85.3716 418.053 84.6106 417.386H412.389C411.628 418.053 410.863 418.716 410.094 419.373H86.9059Z" fill="url(#paint21_linear_76_223)"/>
<path d="M113.545 439.249C112.532 438.594 111.524 437.931 110.522 437.261H386.478C385.476 437.931 384.468 438.594 383.455 439.249H113.545Z" fill="url(#paint22_linear_76_223)"/>
<path d="M150.896 459.124C149.379 458.477 147.869 457.814 146.367 457.137H350.633C349.131 457.814 347.621 458.477 346.104 459.124H150.896Z" fill="url(#paint23_linear_76_223)"/>
<path d="M280.099 477.012C269.751 478.324 259.204 479 248.5 479C237.796 479 227.249 478.324 216.901 477.012H280.099Z" fill="url(#paint24_linear_76_223)"/>
</g>
<defs>
<linearGradient id="paint0_linear_76_223" x1="0" y1="0" x2="297.77" y2="256.182" gradientUnits="userSpaceOnUse">
<stop stop-color="#56F395"/>
<stop offset="1" stop-color="#60A5FA"/>
</linearGradient>
<linearGradient id="paint1_linear_76_223" x1="0" y1="0" x2="297.77" y2="256.182" gradientUnits="userSpaceOnUse">
<stop stop-color="#56F395"/>
<stop offset="1" stop-color="#60A5FA"/>
</linearGradient>
<linearGradient id="paint2_linear_76_223" x1="0" y1="0" x2="297.77" y2="256.182" gradientUnits="userSpaceOnUse">
<stop stop-color="#56F395"/>
<stop offset="1" stop-color="#60A5FA"/>
</linearGradient>
<linearGradient id="paint3_linear_76_223" x1="0" y1="0" x2="297.77" y2="256.182" gradientUnits="userSpaceOnUse">
<stop stop-color="#56F395"/>
<stop offset="1" stop-color="#60A5FA"/>
</linearGradient>
<linearGradient id="paint4_linear_76_223" x1="0" y1="0" x2="297.77" y2="256.182" gradientUnits="userSpaceOnUse">
<stop stop-color="#56F395"/>
<stop offset="1" stop-color="#60A5FA"/>
</linearGradient>
<linearGradient id="paint5_linear_76_223" x1="0" y1="0" x2="297.77" y2="256.182" gradientUnits="userSpaceOnUse">
<stop stop-color="#56F395"/>
<stop offset="1" stop-color="#60A5FA"/>
</linearGradient>
<linearGradient id="paint6_linear_76_223" x1="0" y1="0" x2="297.77" y2="256.182" gradientUnits="userSpaceOnUse">
<stop stop-color="#56F395"/>
<stop offset="1" stop-color="#60A5FA"/>
</linearGradient>
<linearGradient id="paint7_linear_76_223" x1="0" y1="0" x2="297.77" y2="256.182" gradientUnits="userSpaceOnUse">
<stop stop-color="#56F395"/>
<stop offset="1" stop-color="#60A5FA"/>
</linearGradient>
<linearGradient id="paint8_linear_76_223" x1="0" y1="0" x2="297.77" y2="256.182" gradientUnits="userSpaceOnUse">
<stop stop-color="#56F395"/>
<stop offset="1" stop-color="#60A5FA"/>
</linearGradient>
<linearGradient id="paint9_linear_76_223" x1="0" y1="0" x2="297.77" y2="256.182" gradientUnits="userSpaceOnUse">
<stop stop-color="#56F395"/>
<stop offset="1" stop-color="#60A5FA"/>
</linearGradient>
<linearGradient id="paint10_linear_76_223" x1="0" y1="0" x2="297.77" y2="256.182" gradientUnits="userSpaceOnUse">
<stop stop-color="#56F395"/>
<stop offset="1" stop-color="#60A5FA"/>
</linearGradient>
<linearGradient id="paint11_linear_76_223" x1="0" y1="0" x2="297.77" y2="256.182" gradientUnits="userSpaceOnUse">
<stop stop-color="#56F395"/>
<stop offset="1" stop-color="#60A5FA"/>
</linearGradient>
<linearGradient id="paint12_linear_76_223" x1="0" y1="0" x2="297.77" y2="256.182" gradientUnits="userSpaceOnUse">
<stop stop-color="#56F395"/>
<stop offset="1" stop-color="#60A5FA"/>
</linearGradient>
<linearGradient id="paint13_linear_76_223" x1="0" y1="0" x2="297.77" y2="256.182" gradientUnits="userSpaceOnUse">
<stop stop-color="#56F395"/>
<stop offset="1" stop-color="#60A5FA"/>
</linearGradient>
<linearGradient id="paint14_linear_76_223" x1="0" y1="0" x2="297.77" y2="256.182" gradientUnits="userSpaceOnUse">
<stop stop-color="#56F395"/>
<stop offset="1" stop-color="#60A5FA"/>
</linearGradient>
<linearGradient id="paint15_linear_76_223" x1="0" y1="0" x2="297.77" y2="256.182" gradientUnits="userSpaceOnUse">
<stop stop-color="#56F395"/>
<stop offset="1" stop-color="#60A5FA"/>
</linearGradient>
<linearGradient id="paint16_linear_76_223" x1="0" y1="0" x2="297.77" y2="256.182" gradientUnits="userSpaceOnUse">
<stop stop-color="#56F395"/>
<stop offset="1" stop-color="#60A5FA"/>
</linearGradient>
<linearGradient id="paint17_linear_76_223" x1="0" y1="0" x2="297.77" y2="256.182" gradientUnits="userSpaceOnUse">
<stop stop-color="#56F395"/>
<stop offset="1" stop-color="#60A5FA"/>
</linearGradient>
<linearGradient id="paint18_linear_76_223" x1="0" y1="0" x2="297.77" y2="256.182" gradientUnits="userSpaceOnUse">
<stop stop-color="#56F395"/>
<stop offset="1" stop-color="#60A5FA"/>
</linearGradient>
<linearGradient id="paint19_linear_76_223" x1="0" y1="0" x2="297.77" y2="256.182" gradientUnits="userSpaceOnUse">
<stop stop-color="#56F395"/>
<stop offset="1" stop-color="#60A5FA"/>
</linearGradient>
<linearGradient id="paint20_linear_76_223" x1="0" y1="0" x2="297.77" y2="256.182" gradientUnits="userSpaceOnUse">
<stop stop-color="#56F395"/>
<stop offset="1" stop-color="#60A5FA"/>
</linearGradient>
<linearGradient id="paint21_linear_76_223" x1="0" y1="0" x2="297.77" y2="256.182" gradientUnits="userSpaceOnUse">
<stop stop-color="#56F395"/>
<stop offset="1" stop-color="#60A5FA"/>
</linearGradient>
<linearGradient id="paint22_linear_76_223" x1="0" y1="0" x2="297.77" y2="256.182" gradientUnits="userSpaceOnUse">
<stop stop-color="#56F395"/>
<stop offset="1" stop-color="#60A5FA"/>
</linearGradient>
<linearGradient id="paint23_linear_76_223" x1="0" y1="0" x2="297.77" y2="256.182" gradientUnits="userSpaceOnUse">
<stop stop-color="#56F395"/>
<stop offset="1" stop-color="#60A5FA"/>
</linearGradient>
<linearGradient id="paint24_linear_76_223" x1="0" y1="0" x2="297.77" y2="256.182" gradientUnits="userSpaceOnUse">
<stop stop-color="#56F395"/>
<stop offset="1" stop-color="#60A5FA"/>
</linearGradient>
</defs>
</svg>
